%TF.GenerationSoftware,KiCad,Pcbnew,(6.0.4)*%
%TF.CreationDate,2022-05-04T20:00:02+02:00*%
%TF.ProjectId,TutelPad,54757465-6c50-4616-942e-6b696361645f,rev1.0*%
%TF.SameCoordinates,Original*%
%TF.FileFunction,Legend,Bot*%
%TF.FilePolarity,Positive*%
%FSLAX46Y46*%
G04 Gerber Fmt 4.6, Leading zero omitted, Abs format (unit mm)*
G04 Created by KiCad (PCBNEW (6.0.4)) date 2022-05-04 20:00:02*
%MOMM*%
%LPD*%
G01*
G04 APERTURE LIST*
%ADD10C,0.200000*%
%ADD11C,0.150000*%
%ADD12C,0.010000*%
%ADD13C,0.120000*%
%ADD14R,1.752600X1.752600*%
%ADD15C,1.752600*%
%ADD16C,1.750000*%
%ADD17C,4.000000*%
%ADD18C,2.500000*%
%ADD19C,2.100000*%
%ADD20C,1.200000*%
%ADD21R,1.600000X2.000000*%
%ADD22O,1.600000X2.000000*%
%ADD23R,1.500000X1.000000*%
G04 APERTURE END LIST*
D10*
X200828273Y-115420819D02*
X200256845Y-115420819D01*
X200542559Y-116420819D02*
X200542559Y-115420819D01*
X199494940Y-115754153D02*
X199494940Y-116420819D01*
X199923511Y-115754153D02*
X199923511Y-116277962D01*
X199875892Y-116373200D01*
X199780654Y-116420819D01*
X199637797Y-116420819D01*
X199542559Y-116373200D01*
X199494940Y-116325581D01*
X199161607Y-115754153D02*
X198780654Y-115754153D01*
X199018750Y-115420819D02*
X199018750Y-116277962D01*
X198971130Y-116373200D01*
X198875892Y-116420819D01*
X198780654Y-116420819D01*
X198066369Y-116373200D02*
X198161607Y-116420819D01*
X198352083Y-116420819D01*
X198447321Y-116373200D01*
X198494940Y-116277962D01*
X198494940Y-115897010D01*
X198447321Y-115801772D01*
X198352083Y-115754153D01*
X198161607Y-115754153D01*
X198066369Y-115801772D01*
X198018750Y-115897010D01*
X198018750Y-115992248D01*
X198494940Y-116087486D01*
X197447321Y-116420819D02*
X197542559Y-116373200D01*
X197590178Y-116277962D01*
X197590178Y-115420819D01*
X197066369Y-116420819D02*
X197066369Y-115420819D01*
X196685416Y-115420819D01*
X196590178Y-115468439D01*
X196542559Y-115516058D01*
X196494940Y-115611296D01*
X196494940Y-115754153D01*
X196542559Y-115849391D01*
X196590178Y-115897010D01*
X196685416Y-115944629D01*
X197066369Y-115944629D01*
X195637797Y-116420819D02*
X195637797Y-115897010D01*
X195685416Y-115801772D01*
X195780654Y-115754153D01*
X195971130Y-115754153D01*
X196066369Y-115801772D01*
X195637797Y-116373200D02*
X195733035Y-116420819D01*
X195971130Y-116420819D01*
X196066369Y-116373200D01*
X196113988Y-116277962D01*
X196113988Y-116182724D01*
X196066369Y-116087486D01*
X195971130Y-116039867D01*
X195733035Y-116039867D01*
X195637797Y-115992248D01*
X194733035Y-116420819D02*
X194733035Y-115420819D01*
X194733035Y-116373200D02*
X194828273Y-116420819D01*
X195018750Y-116420819D01*
X195113988Y-116373200D01*
X195161607Y-116325581D01*
X195209226Y-116230343D01*
X195209226Y-115944629D01*
X195161607Y-115849391D01*
X195113988Y-115801772D01*
X195018750Y-115754153D01*
X194828273Y-115754153D01*
X194733035Y-115801772D01*
X193494940Y-116420819D02*
X193494940Y-115754153D01*
X193494940Y-115944629D02*
X193447321Y-115849391D01*
X193399702Y-115801772D01*
X193304464Y-115754153D01*
X193209226Y-115754153D01*
X192494940Y-116373200D02*
X192590178Y-116420819D01*
X192780654Y-116420819D01*
X192875892Y-116373200D01*
X192923511Y-116277962D01*
X192923511Y-115897010D01*
X192875892Y-115801772D01*
X192780654Y-115754153D01*
X192590178Y-115754153D01*
X192494940Y-115801772D01*
X192447321Y-115897010D01*
X192447321Y-115992248D01*
X192923511Y-116087486D01*
X192113988Y-115754153D02*
X191875892Y-116420819D01*
X191637797Y-115754153D01*
X190733035Y-116420819D02*
X191304464Y-116420819D01*
X191018750Y-116420819D02*
X191018750Y-115420819D01*
X191113988Y-115563677D01*
X191209226Y-115658915D01*
X191304464Y-115706534D01*
X190304464Y-116325581D02*
X190256845Y-116373200D01*
X190304464Y-116420819D01*
X190352083Y-116373200D01*
X190304464Y-116325581D01*
X190304464Y-116420819D01*
X189304464Y-116420819D02*
X189875892Y-116420819D01*
X189590178Y-116420819D02*
X189590178Y-115420819D01*
X189685416Y-115563677D01*
X189780654Y-115658915D01*
X189875892Y-115706534D01*
X205233035Y-118030819D02*
X205233035Y-117030819D01*
X204994940Y-117030819D01*
X204852083Y-117078439D01*
X204756845Y-117173677D01*
X204709226Y-117268915D01*
X204661607Y-117459391D01*
X204661607Y-117602248D01*
X204709226Y-117792724D01*
X204756845Y-117887962D01*
X204852083Y-117983200D01*
X204994940Y-118030819D01*
X205233035Y-118030819D01*
X203852083Y-117983200D02*
X203947321Y-118030819D01*
X204137797Y-118030819D01*
X204233035Y-117983200D01*
X204280654Y-117887962D01*
X204280654Y-117507010D01*
X204233035Y-117411772D01*
X204137797Y-117364153D01*
X203947321Y-117364153D01*
X203852083Y-117411772D01*
X203804464Y-117507010D01*
X203804464Y-117602248D01*
X204280654Y-117697486D01*
X203423511Y-117983200D02*
X203328273Y-118030819D01*
X203137797Y-118030819D01*
X203042559Y-117983200D01*
X202994940Y-117887962D01*
X202994940Y-117840343D01*
X203042559Y-117745105D01*
X203137797Y-117697486D01*
X203280654Y-117697486D01*
X203375892Y-117649867D01*
X203423511Y-117554629D01*
X203423511Y-117507010D01*
X203375892Y-117411772D01*
X203280654Y-117364153D01*
X203137797Y-117364153D01*
X203042559Y-117411772D01*
X202566369Y-118030819D02*
X202566369Y-117364153D01*
X202566369Y-117030819D02*
X202613988Y-117078439D01*
X202566369Y-117126058D01*
X202518750Y-117078439D01*
X202566369Y-117030819D01*
X202566369Y-117126058D01*
X201661607Y-117364153D02*
X201661607Y-118173677D01*
X201709226Y-118268915D01*
X201756845Y-118316534D01*
X201852083Y-118364153D01*
X201994940Y-118364153D01*
X202090178Y-118316534D01*
X201661607Y-117983200D02*
X201756845Y-118030819D01*
X201947321Y-118030819D01*
X202042559Y-117983200D01*
X202090178Y-117935581D01*
X202137797Y-117840343D01*
X202137797Y-117554629D01*
X202090178Y-117459391D01*
X202042559Y-117411772D01*
X201947321Y-117364153D01*
X201756845Y-117364153D01*
X201661607Y-117411772D01*
X201185416Y-117364153D02*
X201185416Y-118030819D01*
X201185416Y-117459391D02*
X201137797Y-117411772D01*
X201042559Y-117364153D01*
X200899702Y-117364153D01*
X200804464Y-117411772D01*
X200756845Y-117507010D01*
X200756845Y-118030819D01*
X199899702Y-117983200D02*
X199994940Y-118030819D01*
X200185416Y-118030819D01*
X200280654Y-117983200D01*
X200328273Y-117887962D01*
X200328273Y-117507010D01*
X200280654Y-117411772D01*
X200185416Y-117364153D01*
X199994940Y-117364153D01*
X199899702Y-117411772D01*
X199852083Y-117507010D01*
X199852083Y-117602248D01*
X200328273Y-117697486D01*
X198994940Y-118030819D02*
X198994940Y-117030819D01*
X198994940Y-117983200D02*
X199090178Y-118030819D01*
X199280654Y-118030819D01*
X199375892Y-117983200D01*
X199423511Y-117935581D01*
X199471130Y-117840343D01*
X199471130Y-117554629D01*
X199423511Y-117459391D01*
X199375892Y-117411772D01*
X199280654Y-117364153D01*
X199090178Y-117364153D01*
X198994940Y-117411772D01*
X197756845Y-118030819D02*
X197756845Y-117030819D01*
X197756845Y-117411772D02*
X197661607Y-117364153D01*
X197471130Y-117364153D01*
X197375892Y-117411772D01*
X197328273Y-117459391D01*
X197280654Y-117554629D01*
X197280654Y-117840343D01*
X197328273Y-117935581D01*
X197375892Y-117983200D01*
X197471130Y-118030819D01*
X197661607Y-118030819D01*
X197756845Y-117983200D01*
X196947321Y-117364153D02*
X196709226Y-118030819D01*
X196471130Y-117364153D02*
X196709226Y-118030819D01*
X196804464Y-118268915D01*
X196852083Y-118316534D01*
X196947321Y-118364153D01*
X195328273Y-118030819D02*
X195328273Y-117030819D01*
X194994940Y-117364153D02*
X194613988Y-117364153D01*
X194852083Y-117030819D02*
X194852083Y-117887962D01*
X194804464Y-117983200D01*
X194709226Y-118030819D01*
X194613988Y-118030819D01*
X194328273Y-117983200D02*
X194233035Y-118030819D01*
X194042559Y-118030819D01*
X193947321Y-117983200D01*
X193899702Y-117887962D01*
X193899702Y-117840343D01*
X193947321Y-117745105D01*
X194042559Y-117697486D01*
X194185416Y-117697486D01*
X194280654Y-117649867D01*
X194328273Y-117554629D01*
X194328273Y-117507010D01*
X194280654Y-117411772D01*
X194185416Y-117364153D01*
X194042559Y-117364153D01*
X193947321Y-117411772D01*
X193137797Y-117507010D02*
X193471130Y-117507010D01*
X193471130Y-118030819D02*
X193471130Y-117030819D01*
X192994940Y-117030819D01*
X192613988Y-118030819D02*
X192613988Y-117364153D01*
X192613988Y-117030819D02*
X192661607Y-117078439D01*
X192613988Y-117126058D01*
X192566369Y-117078439D01*
X192613988Y-117030819D01*
X192613988Y-117126058D01*
X192137797Y-118030819D02*
X192137797Y-117364153D01*
X192137797Y-117554629D02*
X192090178Y-117459391D01*
X192042559Y-117411772D01*
X191947321Y-117364153D01*
X191852083Y-117364153D01*
X191137797Y-117983200D02*
X191233035Y-118030819D01*
X191423511Y-118030819D01*
X191518750Y-117983200D01*
X191566369Y-117887962D01*
X191566369Y-117507010D01*
X191518750Y-117411772D01*
X191423511Y-117364153D01*
X191233035Y-117364153D01*
X191137797Y-117411772D01*
X191090178Y-117507010D01*
X191090178Y-117602248D01*
X191566369Y-117697486D01*
X190661607Y-118030819D02*
X190661607Y-117364153D01*
X190661607Y-117459391D02*
X190613988Y-117411772D01*
X190518750Y-117364153D01*
X190375892Y-117364153D01*
X190280654Y-117411772D01*
X190233035Y-117507010D01*
X190233035Y-118030819D01*
X190233035Y-117507010D02*
X190185416Y-117411772D01*
X190090178Y-117364153D01*
X189947321Y-117364153D01*
X189852083Y-117411772D01*
X189804464Y-117507010D01*
X189804464Y-118030819D01*
X188899702Y-118030819D02*
X188899702Y-117507010D01*
X188947321Y-117411772D01*
X189042559Y-117364153D01*
X189233035Y-117364153D01*
X189328273Y-117411772D01*
X188899702Y-117983200D02*
X188994940Y-118030819D01*
X189233035Y-118030819D01*
X189328273Y-117983200D01*
X189375892Y-117887962D01*
X189375892Y-117792724D01*
X189328273Y-117697486D01*
X189233035Y-117649867D01*
X188994940Y-117649867D01*
X188899702Y-117602248D01*
X188423511Y-117364153D02*
X188423511Y-118030819D01*
X188423511Y-117459391D02*
X188375892Y-117411772D01*
X188280654Y-117364153D01*
X188137797Y-117364153D01*
X188042559Y-117411772D01*
X187994940Y-117507010D01*
X187994940Y-118030819D01*
X187566369Y-117983200D02*
X187423511Y-118030819D01*
X187185416Y-118030819D01*
X187090178Y-117983200D01*
X187042559Y-117935581D01*
X186994940Y-117840343D01*
X186994940Y-117745105D01*
X187042559Y-117649867D01*
X187090178Y-117602248D01*
X187185416Y-117554629D01*
X187375892Y-117507010D01*
X187471130Y-117459391D01*
X187518750Y-117411772D01*
X187566369Y-117316534D01*
X187566369Y-117221296D01*
X187518750Y-117126058D01*
X187471130Y-117078439D01*
X187375892Y-117030819D01*
X187137797Y-117030819D01*
X186994940Y-117078439D01*
X186137797Y-118030819D02*
X186137797Y-117507010D01*
X186185416Y-117411772D01*
X186280654Y-117364153D01*
X186471130Y-117364153D01*
X186566369Y-117411772D01*
X186137797Y-117983200D02*
X186233035Y-118030819D01*
X186471130Y-118030819D01*
X186566369Y-117983200D01*
X186613988Y-117887962D01*
X186613988Y-117792724D01*
X186566369Y-117697486D01*
X186471130Y-117649867D01*
X186233035Y-117649867D01*
X186137797Y-117602248D01*
X185661607Y-118030819D02*
X185661607Y-117364153D01*
X185661607Y-117459391D02*
X185613988Y-117411772D01*
X185518750Y-117364153D01*
X185375892Y-117364153D01*
X185280654Y-117411772D01*
X185233035Y-117507010D01*
X185233035Y-118030819D01*
X185233035Y-117507010D02*
X185185416Y-117411772D01*
X185090178Y-117364153D01*
X184947321Y-117364153D01*
X184852083Y-117411772D01*
X184804464Y-117507010D01*
X184804464Y-118030819D01*
D11*
X155827797Y-98650819D02*
X155827797Y-97650819D01*
X155351607Y-97984153D02*
X155351607Y-98650819D01*
X155351607Y-98079391D02*
X155303988Y-98031772D01*
X155208750Y-97984153D01*
X155065892Y-97984153D01*
X154970654Y-98031772D01*
X154923035Y-98127010D01*
X154923035Y-98650819D01*
X154494464Y-98603200D02*
X154399226Y-98650819D01*
X154208750Y-98650819D01*
X154113511Y-98603200D01*
X154065892Y-98507962D01*
X154065892Y-98460343D01*
X154113511Y-98365105D01*
X154208750Y-98317486D01*
X154351607Y-98317486D01*
X154446845Y-98269867D01*
X154494464Y-98174629D01*
X154494464Y-98127010D01*
X154446845Y-98031772D01*
X154351607Y-97984153D01*
X154208750Y-97984153D01*
X154113511Y-98031772D01*
X153780178Y-97984153D02*
X153399226Y-97984153D01*
X153637321Y-97650819D02*
X153637321Y-98507962D01*
X153589702Y-98603200D01*
X153494464Y-98650819D01*
X153399226Y-98650819D01*
X152637321Y-98650819D02*
X152637321Y-98127010D01*
X152684940Y-98031772D01*
X152780178Y-97984153D01*
X152970654Y-97984153D01*
X153065892Y-98031772D01*
X152637321Y-98603200D02*
X152732559Y-98650819D01*
X152970654Y-98650819D01*
X153065892Y-98603200D01*
X153113511Y-98507962D01*
X153113511Y-98412724D01*
X153065892Y-98317486D01*
X152970654Y-98269867D01*
X152732559Y-98269867D01*
X152637321Y-98222248D01*
X152018273Y-98650819D02*
X152113511Y-98603200D01*
X152161130Y-98507962D01*
X152161130Y-97650819D01*
X151494464Y-98650819D02*
X151589702Y-98603200D01*
X151637321Y-98507962D01*
X151637321Y-97650819D01*
X158423035Y-100213200D02*
X158518273Y-100260819D01*
X158708750Y-100260819D01*
X158803988Y-100213200D01*
X158851607Y-100165581D01*
X158899226Y-100070343D01*
X158899226Y-99784629D01*
X158851607Y-99689391D01*
X158803988Y-99641772D01*
X158708750Y-99594153D01*
X158518273Y-99594153D01*
X158423035Y-99641772D01*
X157851607Y-100260819D02*
X157946845Y-100213200D01*
X157994464Y-100165581D01*
X158042083Y-100070343D01*
X158042083Y-99784629D01*
X157994464Y-99689391D01*
X157946845Y-99641772D01*
X157851607Y-99594153D01*
X157708750Y-99594153D01*
X157613511Y-99641772D01*
X157565892Y-99689391D01*
X157518273Y-99784629D01*
X157518273Y-100070343D01*
X157565892Y-100165581D01*
X157613511Y-100213200D01*
X157708750Y-100260819D01*
X157851607Y-100260819D01*
X157089702Y-99594153D02*
X157089702Y-100260819D01*
X157089702Y-99689391D02*
X157042083Y-99641772D01*
X156946845Y-99594153D01*
X156803988Y-99594153D01*
X156708750Y-99641772D01*
X156661130Y-99737010D01*
X156661130Y-100260819D01*
X156327797Y-99594153D02*
X155946845Y-99594153D01*
X156184940Y-99260819D02*
X156184940Y-100117962D01*
X156137321Y-100213200D01*
X156042083Y-100260819D01*
X155946845Y-100260819D01*
X155613511Y-100260819D02*
X155613511Y-99594153D01*
X155613511Y-99784629D02*
X155565892Y-99689391D01*
X155518273Y-99641772D01*
X155423035Y-99594153D01*
X155327797Y-99594153D01*
X154851607Y-100260819D02*
X154946845Y-100213200D01*
X154994464Y-100165581D01*
X155042083Y-100070343D01*
X155042083Y-99784629D01*
X154994464Y-99689391D01*
X154946845Y-99641772D01*
X154851607Y-99594153D01*
X154708750Y-99594153D01*
X154613511Y-99641772D01*
X154565892Y-99689391D01*
X154518273Y-99784629D01*
X154518273Y-100070343D01*
X154565892Y-100165581D01*
X154613511Y-100213200D01*
X154708750Y-100260819D01*
X154851607Y-100260819D01*
X153946845Y-100260819D02*
X154042083Y-100213200D01*
X154089702Y-100117962D01*
X154089702Y-99260819D01*
X153423035Y-100260819D02*
X153518273Y-100213200D01*
X153565892Y-100117962D01*
X153565892Y-99260819D01*
X152661130Y-100213200D02*
X152756369Y-100260819D01*
X152946845Y-100260819D01*
X153042083Y-100213200D01*
X153089702Y-100117962D01*
X153089702Y-99737010D01*
X153042083Y-99641772D01*
X152946845Y-99594153D01*
X152756369Y-99594153D01*
X152661130Y-99641772D01*
X152613511Y-99737010D01*
X152613511Y-99832248D01*
X153089702Y-99927486D01*
X152184940Y-100260819D02*
X152184940Y-99594153D01*
X152184940Y-99784629D02*
X152137321Y-99689391D01*
X152089702Y-99641772D01*
X151994464Y-99594153D01*
X151899226Y-99594153D01*
X150375416Y-100260819D02*
X150375416Y-99737010D01*
X150423035Y-99641772D01*
X150518273Y-99594153D01*
X150708750Y-99594153D01*
X150803988Y-99641772D01*
X150375416Y-100213200D02*
X150470654Y-100260819D01*
X150708750Y-100260819D01*
X150803988Y-100213200D01*
X150851607Y-100117962D01*
X150851607Y-100022724D01*
X150803988Y-99927486D01*
X150708750Y-99879867D01*
X150470654Y-99879867D01*
X150375416Y-99832248D01*
X149899226Y-99594153D02*
X149899226Y-100260819D01*
X149899226Y-99689391D02*
X149851607Y-99641772D01*
X149756369Y-99594153D01*
X149613511Y-99594153D01*
X149518273Y-99641772D01*
X149470654Y-99737010D01*
X149470654Y-100260819D01*
X148565892Y-100260819D02*
X148565892Y-99260819D01*
X148565892Y-100213200D02*
X148661130Y-100260819D01*
X148851607Y-100260819D01*
X148946845Y-100213200D01*
X148994464Y-100165581D01*
X149042083Y-100070343D01*
X149042083Y-99784629D01*
X148994464Y-99689391D01*
X148946845Y-99641772D01*
X148851607Y-99594153D01*
X148661130Y-99594153D01*
X148565892Y-99641772D01*
X158089702Y-101870819D02*
X158089702Y-101204153D01*
X158089702Y-101394629D02*
X158042083Y-101299391D01*
X157994464Y-101251772D01*
X157899226Y-101204153D01*
X157803988Y-101204153D01*
X157089702Y-101823200D02*
X157184940Y-101870819D01*
X157375416Y-101870819D01*
X157470654Y-101823200D01*
X157518273Y-101727962D01*
X157518273Y-101347010D01*
X157470654Y-101251772D01*
X157375416Y-101204153D01*
X157184940Y-101204153D01*
X157089702Y-101251772D01*
X157042083Y-101347010D01*
X157042083Y-101442248D01*
X157518273Y-101537486D01*
X156661130Y-101823200D02*
X156565892Y-101870819D01*
X156375416Y-101870819D01*
X156280178Y-101823200D01*
X156232559Y-101727962D01*
X156232559Y-101680343D01*
X156280178Y-101585105D01*
X156375416Y-101537486D01*
X156518273Y-101537486D01*
X156613511Y-101489867D01*
X156661130Y-101394629D01*
X156661130Y-101347010D01*
X156613511Y-101251772D01*
X156518273Y-101204153D01*
X156375416Y-101204153D01*
X156280178Y-101251772D01*
X155423035Y-101823200D02*
X155518273Y-101870819D01*
X155708750Y-101870819D01*
X155803988Y-101823200D01*
X155851607Y-101727962D01*
X155851607Y-101347010D01*
X155803988Y-101251772D01*
X155708750Y-101204153D01*
X155518273Y-101204153D01*
X155423035Y-101251772D01*
X155375416Y-101347010D01*
X155375416Y-101442248D01*
X155851607Y-101537486D01*
X155089702Y-101204153D02*
X154708750Y-101204153D01*
X154946845Y-100870819D02*
X154946845Y-101727962D01*
X154899226Y-101823200D01*
X154803988Y-101870819D01*
X154708750Y-101870819D01*
X153613511Y-101870819D02*
X153613511Y-100870819D01*
X153613511Y-101251772D02*
X153518273Y-101204153D01*
X153327797Y-101204153D01*
X153232559Y-101251772D01*
X153184940Y-101299391D01*
X153137321Y-101394629D01*
X153137321Y-101680343D01*
X153184940Y-101775581D01*
X153232559Y-101823200D01*
X153327797Y-101870819D01*
X153518273Y-101870819D01*
X153613511Y-101823200D01*
X152280178Y-101204153D02*
X152280178Y-101870819D01*
X152708750Y-101204153D02*
X152708750Y-101727962D01*
X152661130Y-101823200D01*
X152565892Y-101870819D01*
X152423035Y-101870819D01*
X152327797Y-101823200D01*
X152280178Y-101775581D01*
X151946845Y-101204153D02*
X151565892Y-101204153D01*
X151803988Y-100870819D02*
X151803988Y-101727962D01*
X151756369Y-101823200D01*
X151661130Y-101870819D01*
X151565892Y-101870819D01*
X151375416Y-101204153D02*
X150994464Y-101204153D01*
X151232559Y-100870819D02*
X151232559Y-101727962D01*
X151184940Y-101823200D01*
X151089702Y-101870819D01*
X150994464Y-101870819D01*
X150518273Y-101870819D02*
X150613511Y-101823200D01*
X150661130Y-101775581D01*
X150708750Y-101680343D01*
X150708750Y-101394629D01*
X150661130Y-101299391D01*
X150613511Y-101251772D01*
X150518273Y-101204153D01*
X150375416Y-101204153D01*
X150280178Y-101251772D01*
X150232559Y-101299391D01*
X150184940Y-101394629D01*
X150184940Y-101680343D01*
X150232559Y-101775581D01*
X150280178Y-101823200D01*
X150375416Y-101870819D01*
X150518273Y-101870819D01*
X149756369Y-101204153D02*
X149756369Y-101870819D01*
X149756369Y-101299391D02*
X149708750Y-101251772D01*
X149613511Y-101204153D01*
X149470654Y-101204153D01*
X149375416Y-101251772D01*
X149327797Y-101347010D01*
X149327797Y-101870819D01*
X157899226Y-103480819D02*
X157994464Y-103433200D01*
X158042083Y-103385581D01*
X158089702Y-103290343D01*
X158089702Y-103004629D01*
X158042083Y-102909391D01*
X157994464Y-102861772D01*
X157899226Y-102814153D01*
X157756369Y-102814153D01*
X157661130Y-102861772D01*
X157613511Y-102909391D01*
X157565892Y-103004629D01*
X157565892Y-103290343D01*
X157613511Y-103385581D01*
X157661130Y-103433200D01*
X157756369Y-103480819D01*
X157899226Y-103480819D01*
X157137321Y-102814153D02*
X157137321Y-103480819D01*
X157137321Y-102909391D02*
X157089702Y-102861772D01*
X156994464Y-102814153D01*
X156851607Y-102814153D01*
X156756369Y-102861772D01*
X156708750Y-102957010D01*
X156708750Y-103480819D01*
X155613511Y-102814153D02*
X155232559Y-102814153D01*
X155470654Y-102480819D02*
X155470654Y-103337962D01*
X155423035Y-103433200D01*
X155327797Y-103480819D01*
X155232559Y-103480819D01*
X154899226Y-103480819D02*
X154899226Y-102480819D01*
X154470654Y-103480819D02*
X154470654Y-102957010D01*
X154518273Y-102861772D01*
X154613511Y-102814153D01*
X154756369Y-102814153D01*
X154851607Y-102861772D01*
X154899226Y-102909391D01*
X153994464Y-103480819D02*
X153994464Y-102814153D01*
X153994464Y-102480819D02*
X154042083Y-102528439D01*
X153994464Y-102576058D01*
X153946845Y-102528439D01*
X153994464Y-102480819D01*
X153994464Y-102576058D01*
X153565892Y-103433200D02*
X153470654Y-103480819D01*
X153280178Y-103480819D01*
X153184940Y-103433200D01*
X153137321Y-103337962D01*
X153137321Y-103290343D01*
X153184940Y-103195105D01*
X153280178Y-103147486D01*
X153423035Y-103147486D01*
X153518273Y-103099867D01*
X153565892Y-103004629D01*
X153565892Y-102957010D01*
X153518273Y-102861772D01*
X153423035Y-102814153D01*
X153280178Y-102814153D01*
X153184940Y-102861772D01*
X151994464Y-103433200D02*
X151899226Y-103480819D01*
X151708750Y-103480819D01*
X151613511Y-103433200D01*
X151565892Y-103337962D01*
X151565892Y-103290343D01*
X151613511Y-103195105D01*
X151708750Y-103147486D01*
X151851607Y-103147486D01*
X151946845Y-103099867D01*
X151994464Y-103004629D01*
X151994464Y-102957010D01*
X151946845Y-102861772D01*
X151851607Y-102814153D01*
X151708750Y-102814153D01*
X151613511Y-102861772D01*
X151137321Y-103480819D02*
X151137321Y-102814153D01*
X151137321Y-102480819D02*
X151184940Y-102528439D01*
X151137321Y-102576058D01*
X151089702Y-102528439D01*
X151137321Y-102480819D01*
X151137321Y-102576058D01*
X150232559Y-103480819D02*
X150232559Y-102480819D01*
X150232559Y-103433200D02*
X150327797Y-103480819D01*
X150518273Y-103480819D01*
X150613511Y-103433200D01*
X150661130Y-103385581D01*
X150708750Y-103290343D01*
X150708750Y-103004629D01*
X150661130Y-102909391D01*
X150613511Y-102861772D01*
X150518273Y-102814153D01*
X150327797Y-102814153D01*
X150232559Y-102861772D01*
X149375416Y-103433200D02*
X149470654Y-103480819D01*
X149661130Y-103480819D01*
X149756369Y-103433200D01*
X149803988Y-103337962D01*
X149803988Y-102957010D01*
X149756369Y-102861772D01*
X149661130Y-102814153D01*
X149470654Y-102814153D01*
X149375416Y-102861772D01*
X149327797Y-102957010D01*
X149327797Y-103052248D01*
X149803988Y-103147486D01*
%TO.C,REF\u002A\u002A*%
G36*
X152392691Y-116192721D02*
G01*
X152424524Y-116205197D01*
X152461493Y-116222041D01*
X152461493Y-116708635D01*
X152415562Y-116754566D01*
X152405070Y-116764866D01*
X152376005Y-116787759D01*
X152346693Y-116795174D01*
X152303076Y-116791760D01*
X152285318Y-116789553D01*
X152239517Y-116784884D01*
X152207493Y-116783024D01*
X152197994Y-116783308D01*
X152159024Y-116786387D01*
X152111910Y-116791760D01*
X152096835Y-116793607D01*
X152058860Y-116794332D01*
X152031075Y-116782868D01*
X151999424Y-116754566D01*
X151953493Y-116708635D01*
X151953493Y-116448494D01*
X151953851Y-116371619D01*
X151954966Y-116298325D01*
X151956702Y-116240289D01*
X151958917Y-116202102D01*
X151961471Y-116188353D01*
X151962006Y-116188390D01*
X151980558Y-116195232D01*
X152011903Y-116210307D01*
X152054358Y-116232261D01*
X152058354Y-116460679D01*
X152062350Y-116689096D01*
X152149436Y-116689096D01*
X152153407Y-116438725D01*
X152154666Y-116370666D01*
X152156468Y-116297921D01*
X152158421Y-116240169D01*
X152160362Y-116202087D01*
X152162127Y-116188353D01*
X152162635Y-116188401D01*
X152180232Y-116193454D01*
X152212584Y-116204288D01*
X152258293Y-116220222D01*
X152258515Y-116440145D01*
X152258738Y-116478348D01*
X152260281Y-116552585D01*
X152263042Y-116614584D01*
X152266727Y-116658747D01*
X152271042Y-116679480D01*
X152286482Y-116690570D01*
X152317991Y-116693995D01*
X152352636Y-116689096D01*
X152356607Y-116438725D01*
X152358028Y-116375102D01*
X152360975Y-116299795D01*
X152364829Y-116240725D01*
X152369292Y-116202157D01*
X152374067Y-116188353D01*
X152392691Y-116192721D01*
G37*
D12*
X152392691Y-116192721D02*
X152424524Y-116205197D01*
X152461493Y-116222041D01*
X152461493Y-116708635D01*
X152415562Y-116754566D01*
X152405070Y-116764866D01*
X152376005Y-116787759D01*
X152346693Y-116795174D01*
X152303076Y-116791760D01*
X152285318Y-116789553D01*
X152239517Y-116784884D01*
X152207493Y-116783024D01*
X152197994Y-116783308D01*
X152159024Y-116786387D01*
X152111910Y-116791760D01*
X152096835Y-116793607D01*
X152058860Y-116794332D01*
X152031075Y-116782868D01*
X151999424Y-116754566D01*
X151953493Y-116708635D01*
X151953493Y-116448494D01*
X151953851Y-116371619D01*
X151954966Y-116298325D01*
X151956702Y-116240289D01*
X151958917Y-116202102D01*
X151961471Y-116188353D01*
X151962006Y-116188390D01*
X151980558Y-116195232D01*
X152011903Y-116210307D01*
X152054358Y-116232261D01*
X152058354Y-116460679D01*
X152062350Y-116689096D01*
X152149436Y-116689096D01*
X152153407Y-116438725D01*
X152154666Y-116370666D01*
X152156468Y-116297921D01*
X152158421Y-116240169D01*
X152160362Y-116202087D01*
X152162127Y-116188353D01*
X152162635Y-116188401D01*
X152180232Y-116193454D01*
X152212584Y-116204288D01*
X152258293Y-116220222D01*
X152258515Y-116440145D01*
X152258738Y-116478348D01*
X152260281Y-116552585D01*
X152263042Y-116614584D01*
X152266727Y-116658747D01*
X152271042Y-116679480D01*
X152286482Y-116690570D01*
X152317991Y-116693995D01*
X152352636Y-116689096D01*
X152356607Y-116438725D01*
X152358028Y-116375102D01*
X152360975Y-116299795D01*
X152364829Y-116240725D01*
X152369292Y-116202157D01*
X152374067Y-116188353D01*
X152392691Y-116192721D01*
G36*
X157004451Y-116494374D02*
G01*
X157003664Y-116564558D01*
X157000960Y-116613461D01*
X156995356Y-116647617D01*
X156985869Y-116673563D01*
X156971518Y-116697836D01*
X156967987Y-116702872D01*
X156930628Y-116742582D01*
X156888061Y-116772531D01*
X156866202Y-116782249D01*
X156787658Y-116798459D01*
X156709981Y-116787974D01*
X156638395Y-116752146D01*
X156578124Y-116692326D01*
X156573036Y-116684312D01*
X156556480Y-116637781D01*
X156545323Y-116572991D01*
X156539910Y-116498166D01*
X156540518Y-116428952D01*
X156686998Y-116428952D01*
X156688152Y-116524838D01*
X156688616Y-116531008D01*
X156695379Y-116583917D01*
X156707421Y-116617468D01*
X156727755Y-116640455D01*
X156761847Y-116661987D01*
X156795564Y-116663119D01*
X156830293Y-116638296D01*
X156836334Y-116631764D01*
X156848167Y-116612218D01*
X156855154Y-116583825D01*
X156858477Y-116539869D01*
X156859321Y-116473631D01*
X156857875Y-116411589D01*
X156850657Y-116352481D01*
X156835756Y-116315125D01*
X156811386Y-116295591D01*
X156775758Y-116289953D01*
X156762190Y-116291074D01*
X156724180Y-116311633D01*
X156699062Y-116357738D01*
X156686998Y-116428952D01*
X156540518Y-116428952D01*
X156540583Y-116421535D01*
X156547687Y-116351321D01*
X156561565Y-116295751D01*
X156579399Y-116258740D01*
X156629605Y-116201172D01*
X156697635Y-116165401D01*
X156780908Y-116153104D01*
X156803148Y-116153770D01*
X156868641Y-116167386D01*
X156922437Y-116201688D01*
X156971807Y-116260777D01*
X156974745Y-116265161D01*
X156988037Y-116288738D01*
X156996682Y-116315388D01*
X157001654Y-116351598D01*
X157003924Y-116403852D01*
X157004428Y-116473631D01*
X157004464Y-116478639D01*
X157004451Y-116494374D01*
G37*
X157004451Y-116494374D02*
X157003664Y-116564558D01*
X157000960Y-116613461D01*
X156995356Y-116647617D01*
X156985869Y-116673563D01*
X156971518Y-116697836D01*
X156967987Y-116702872D01*
X156930628Y-116742582D01*
X156888061Y-116772531D01*
X156866202Y-116782249D01*
X156787658Y-116798459D01*
X156709981Y-116787974D01*
X156638395Y-116752146D01*
X156578124Y-116692326D01*
X156573036Y-116684312D01*
X156556480Y-116637781D01*
X156545323Y-116572991D01*
X156539910Y-116498166D01*
X156540518Y-116428952D01*
X156686998Y-116428952D01*
X156688152Y-116524838D01*
X156688616Y-116531008D01*
X156695379Y-116583917D01*
X156707421Y-116617468D01*
X156727755Y-116640455D01*
X156761847Y-116661987D01*
X156795564Y-116663119D01*
X156830293Y-116638296D01*
X156836334Y-116631764D01*
X156848167Y-116612218D01*
X156855154Y-116583825D01*
X156858477Y-116539869D01*
X156859321Y-116473631D01*
X156857875Y-116411589D01*
X156850657Y-116352481D01*
X156835756Y-116315125D01*
X156811386Y-116295591D01*
X156775758Y-116289953D01*
X156762190Y-116291074D01*
X156724180Y-116311633D01*
X156699062Y-116357738D01*
X156686998Y-116428952D01*
X156540518Y-116428952D01*
X156540583Y-116421535D01*
X156547687Y-116351321D01*
X156561565Y-116295751D01*
X156579399Y-116258740D01*
X156629605Y-116201172D01*
X156697635Y-116165401D01*
X156780908Y-116153104D01*
X156803148Y-116153770D01*
X156868641Y-116167386D01*
X156922437Y-116201688D01*
X156971807Y-116260777D01*
X156974745Y-116265161D01*
X156988037Y-116288738D01*
X156996682Y-116315388D01*
X157001654Y-116351598D01*
X157003924Y-116403852D01*
X157004428Y-116473631D01*
X157004464Y-116478639D01*
X157004451Y-116494374D01*
G36*
X150879057Y-116534744D02*
G01*
X150875512Y-116610960D01*
X150866233Y-116666733D01*
X150849125Y-116708052D01*
X150822094Y-116740906D01*
X150783042Y-116771285D01*
X150758195Y-116785099D01*
X150718365Y-116794404D01*
X150662415Y-116793669D01*
X150631135Y-116790722D01*
X150593403Y-116781722D01*
X150563244Y-116762159D01*
X150528158Y-116725706D01*
X150523470Y-116720382D01*
X150491927Y-116679408D01*
X150476878Y-116643722D01*
X150473036Y-116601405D01*
X150473036Y-116539218D01*
X150516492Y-116555621D01*
X150548174Y-116574795D01*
X150575712Y-116619786D01*
X150581461Y-116634191D01*
X150613605Y-116674985D01*
X150657361Y-116695520D01*
X150705004Y-116693674D01*
X150748807Y-116667325D01*
X150763861Y-116650894D01*
X150777513Y-116626106D01*
X150773243Y-116603583D01*
X150748666Y-116580403D01*
X150701401Y-116553641D01*
X150629064Y-116520373D01*
X150480293Y-116455255D01*
X150476345Y-116390747D01*
X150477829Y-116349659D01*
X150574760Y-116349659D01*
X150582118Y-116375096D01*
X150615598Y-116402253D01*
X150676364Y-116433153D01*
X150686419Y-116437629D01*
X150734501Y-116458456D01*
X150770476Y-116473104D01*
X150787194Y-116478639D01*
X150789727Y-116474565D01*
X150790743Y-116449686D01*
X150787119Y-116409696D01*
X150777992Y-116370591D01*
X150749523Y-116321323D01*
X150708428Y-116293561D01*
X150659340Y-116289803D01*
X150606894Y-116312548D01*
X150592359Y-116323920D01*
X150574760Y-116349659D01*
X150477829Y-116349659D01*
X150478088Y-116342503D01*
X150500031Y-116281535D01*
X150527729Y-116247936D01*
X150585155Y-116210405D01*
X150653277Y-116191445D01*
X150723697Y-116192946D01*
X150788017Y-116216794D01*
X150802176Y-116225952D01*
X150834654Y-116254288D01*
X150856866Y-116290134D01*
X150870554Y-116338823D01*
X150877465Y-116405688D01*
X150878378Y-116449686D01*
X150879340Y-116496061D01*
X150879057Y-116534744D01*
G37*
X150879057Y-116534744D02*
X150875512Y-116610960D01*
X150866233Y-116666733D01*
X150849125Y-116708052D01*
X150822094Y-116740906D01*
X150783042Y-116771285D01*
X150758195Y-116785099D01*
X150718365Y-116794404D01*
X150662415Y-116793669D01*
X150631135Y-116790722D01*
X150593403Y-116781722D01*
X150563244Y-116762159D01*
X150528158Y-116725706D01*
X150523470Y-116720382D01*
X150491927Y-116679408D01*
X150476878Y-116643722D01*
X150473036Y-116601405D01*
X150473036Y-116539218D01*
X150516492Y-116555621D01*
X150548174Y-116574795D01*
X150575712Y-116619786D01*
X150581461Y-116634191D01*
X150613605Y-116674985D01*
X150657361Y-116695520D01*
X150705004Y-116693674D01*
X150748807Y-116667325D01*
X150763861Y-116650894D01*
X150777513Y-116626106D01*
X150773243Y-116603583D01*
X150748666Y-116580403D01*
X150701401Y-116553641D01*
X150629064Y-116520373D01*
X150480293Y-116455255D01*
X150476345Y-116390747D01*
X150477829Y-116349659D01*
X150574760Y-116349659D01*
X150582118Y-116375096D01*
X150615598Y-116402253D01*
X150676364Y-116433153D01*
X150686419Y-116437629D01*
X150734501Y-116458456D01*
X150770476Y-116473104D01*
X150787194Y-116478639D01*
X150789727Y-116474565D01*
X150790743Y-116449686D01*
X150787119Y-116409696D01*
X150777992Y-116370591D01*
X150749523Y-116321323D01*
X150708428Y-116293561D01*
X150659340Y-116289803D01*
X150606894Y-116312548D01*
X150592359Y-116323920D01*
X150574760Y-116349659D01*
X150477829Y-116349659D01*
X150478088Y-116342503D01*
X150500031Y-116281535D01*
X150527729Y-116247936D01*
X150585155Y-116210405D01*
X150653277Y-116191445D01*
X150723697Y-116192946D01*
X150788017Y-116216794D01*
X150802176Y-116225952D01*
X150834654Y-116254288D01*
X150856866Y-116290134D01*
X150870554Y-116338823D01*
X150877465Y-116405688D01*
X150878378Y-116449686D01*
X150879340Y-116496061D01*
X150879057Y-116534744D01*
G36*
X155169770Y-116161261D02*
G01*
X155237560Y-116193119D01*
X155293116Y-116248209D01*
X155304631Y-116265455D01*
X155314182Y-116285001D01*
X155320956Y-116309637D01*
X155325569Y-116344150D01*
X155328638Y-116393328D01*
X155330779Y-116461958D01*
X155332609Y-116554828D01*
X155337154Y-116812446D01*
X155298975Y-116797930D01*
X155264018Y-116784595D01*
X155237847Y-116771762D01*
X155220763Y-116755219D01*
X155210836Y-116729904D01*
X155206136Y-116690755D01*
X155204732Y-116632707D01*
X155204693Y-116550700D01*
X155204494Y-116485334D01*
X155203309Y-116422612D01*
X155200479Y-116379773D01*
X155195359Y-116351659D01*
X155187303Y-116333114D01*
X155175664Y-116318982D01*
X155147053Y-116299039D01*
X155098989Y-116291522D01*
X155051438Y-116310518D01*
X155048300Y-116312950D01*
X155038519Y-116324187D01*
X155031303Y-116342209D01*
X155026049Y-116371465D01*
X155022152Y-116416401D01*
X155019006Y-116481467D01*
X155016007Y-116571109D01*
X155008750Y-116811136D01*
X154947064Y-116783483D01*
X154885379Y-116755830D01*
X154885379Y-116536685D01*
X154885634Y-116477150D01*
X154887836Y-116394331D01*
X154893411Y-116332666D01*
X154903691Y-116287187D01*
X154920008Y-116252923D01*
X154943693Y-116224905D01*
X154976078Y-116198162D01*
X155022657Y-116171219D01*
X155096037Y-116153630D01*
X155169770Y-116161261D01*
G37*
X155169770Y-116161261D02*
X155237560Y-116193119D01*
X155293116Y-116248209D01*
X155304631Y-116265455D01*
X155314182Y-116285001D01*
X155320956Y-116309637D01*
X155325569Y-116344150D01*
X155328638Y-116393328D01*
X155330779Y-116461958D01*
X155332609Y-116554828D01*
X155337154Y-116812446D01*
X155298975Y-116797930D01*
X155264018Y-116784595D01*
X155237847Y-116771762D01*
X155220763Y-116755219D01*
X155210836Y-116729904D01*
X155206136Y-116690755D01*
X155204732Y-116632707D01*
X155204693Y-116550700D01*
X155204494Y-116485334D01*
X155203309Y-116422612D01*
X155200479Y-116379773D01*
X155195359Y-116351659D01*
X155187303Y-116333114D01*
X155175664Y-116318982D01*
X155147053Y-116299039D01*
X155098989Y-116291522D01*
X155051438Y-116310518D01*
X155048300Y-116312950D01*
X155038519Y-116324187D01*
X155031303Y-116342209D01*
X155026049Y-116371465D01*
X155022152Y-116416401D01*
X155019006Y-116481467D01*
X155016007Y-116571109D01*
X155008750Y-116811136D01*
X154947064Y-116783483D01*
X154885379Y-116755830D01*
X154885379Y-116536685D01*
X154885634Y-116477150D01*
X154887836Y-116394331D01*
X154893411Y-116332666D01*
X154903691Y-116287187D01*
X154920008Y-116252923D01*
X154943693Y-116224905D01*
X154976078Y-116198162D01*
X155022657Y-116171219D01*
X155096037Y-116153630D01*
X155169770Y-116161261D01*
G36*
X151221579Y-116194536D02*
G01*
X151281503Y-116216794D01*
X151306423Y-116233519D01*
X151331660Y-116257482D01*
X151349662Y-116287965D01*
X151361608Y-116329462D01*
X151368680Y-116386471D01*
X151372058Y-116463486D01*
X151372921Y-116565004D01*
X151372752Y-116617466D01*
X151371903Y-116689154D01*
X151370461Y-116746364D01*
X151368564Y-116784248D01*
X151366347Y-116797953D01*
X151351922Y-116793420D01*
X151322804Y-116781109D01*
X151321931Y-116780711D01*
X151306810Y-116772795D01*
X151296641Y-116761934D01*
X151290441Y-116742910D01*
X151287228Y-116710508D01*
X151286020Y-116659510D01*
X151285836Y-116584700D01*
X151285464Y-116537243D01*
X151281500Y-116448054D01*
X151272423Y-116382726D01*
X151257274Y-116337832D01*
X151235095Y-116309946D01*
X151204925Y-116295642D01*
X151200740Y-116294645D01*
X151144230Y-116293866D01*
X151100160Y-116319183D01*
X151069722Y-116369941D01*
X151064294Y-116384614D01*
X151051921Y-116417088D01*
X151045655Y-116432011D01*
X151032786Y-116429955D01*
X151004683Y-116418796D01*
X150978471Y-116400366D01*
X150966521Y-116365537D01*
X150970086Y-116340590D01*
X150991985Y-116289986D01*
X151027394Y-116242567D01*
X151068802Y-116209773D01*
X151086150Y-116202191D01*
X151151839Y-116189515D01*
X151221579Y-116194536D01*
G37*
X151221579Y-116194536D02*
X151281503Y-116216794D01*
X151306423Y-116233519D01*
X151331660Y-116257482D01*
X151349662Y-116287965D01*
X151361608Y-116329462D01*
X151368680Y-116386471D01*
X151372058Y-116463486D01*
X151372921Y-116565004D01*
X151372752Y-116617466D01*
X151371903Y-116689154D01*
X151370461Y-116746364D01*
X151368564Y-116784248D01*
X151366347Y-116797953D01*
X151351922Y-116793420D01*
X151322804Y-116781109D01*
X151321931Y-116780711D01*
X151306810Y-116772795D01*
X151296641Y-116761934D01*
X151290441Y-116742910D01*
X151287228Y-116710508D01*
X151286020Y-116659510D01*
X151285836Y-116584700D01*
X151285464Y-116537243D01*
X151281500Y-116448054D01*
X151272423Y-116382726D01*
X151257274Y-116337832D01*
X151235095Y-116309946D01*
X151204925Y-116295642D01*
X151200740Y-116294645D01*
X151144230Y-116293866D01*
X151100160Y-116319183D01*
X151069722Y-116369941D01*
X151064294Y-116384614D01*
X151051921Y-116417088D01*
X151045655Y-116432011D01*
X151032786Y-116429955D01*
X151004683Y-116418796D01*
X150978471Y-116400366D01*
X150966521Y-116365537D01*
X150970086Y-116340590D01*
X150991985Y-116289986D01*
X151027394Y-116242567D01*
X151068802Y-116209773D01*
X151086150Y-116202191D01*
X151151839Y-116189515D01*
X151221579Y-116194536D01*
G36*
X152968287Y-116549752D02*
G01*
X152960095Y-116626901D01*
X152942269Y-116684715D01*
X152912725Y-116728861D01*
X152869375Y-116765007D01*
X152828082Y-116785902D01*
X152758737Y-116797529D01*
X152689486Y-116784816D01*
X152626895Y-116749384D01*
X152577529Y-116692857D01*
X152571568Y-116682434D01*
X152563695Y-116664172D01*
X152557856Y-116640868D01*
X152553749Y-116608524D01*
X152551075Y-116563143D01*
X152549531Y-116500726D01*
X152549484Y-116495187D01*
X152650179Y-116495187D01*
X152650522Y-116548016D01*
X152652692Y-116595801D01*
X152658057Y-116626648D01*
X152667967Y-116647374D01*
X152683771Y-116664795D01*
X152687474Y-116668144D01*
X152735049Y-116692858D01*
X152785385Y-116690329D01*
X152832267Y-116660727D01*
X152846227Y-116645392D01*
X152857910Y-116625061D01*
X152864436Y-116596953D01*
X152867274Y-116553989D01*
X152867893Y-116489086D01*
X152867587Y-116439561D01*
X152865472Y-116391221D01*
X152860140Y-116360026D01*
X152850210Y-116339086D01*
X152834300Y-116321512D01*
X152824954Y-116313598D01*
X152776526Y-116292282D01*
X152725790Y-116295637D01*
X152681737Y-116323546D01*
X152672254Y-116334612D01*
X152660689Y-116355448D01*
X152654002Y-116384545D01*
X152650923Y-116428820D01*
X152650179Y-116495187D01*
X152549484Y-116495187D01*
X152548817Y-116417276D01*
X152548633Y-116308797D01*
X152548579Y-115972040D01*
X152595750Y-115991801D01*
X152608222Y-115997209D01*
X152628074Y-116009424D01*
X152639437Y-116027921D01*
X152645683Y-116060268D01*
X152650179Y-116114032D01*
X152654285Y-116162305D01*
X152659713Y-116193996D01*
X152667489Y-116205822D01*
X152679207Y-116202651D01*
X152709068Y-116191506D01*
X152762434Y-116188743D01*
X152819843Y-116199064D01*
X152869375Y-116221300D01*
X152896626Y-116241882D01*
X152931615Y-116282039D01*
X152954024Y-116333525D01*
X152965940Y-116402007D01*
X152969292Y-116489086D01*
X152969448Y-116493153D01*
X152968287Y-116549752D01*
G37*
X152968287Y-116549752D02*
X152960095Y-116626901D01*
X152942269Y-116684715D01*
X152912725Y-116728861D01*
X152869375Y-116765007D01*
X152828082Y-116785902D01*
X152758737Y-116797529D01*
X152689486Y-116784816D01*
X152626895Y-116749384D01*
X152577529Y-116692857D01*
X152571568Y-116682434D01*
X152563695Y-116664172D01*
X152557856Y-116640868D01*
X152553749Y-116608524D01*
X152551075Y-116563143D01*
X152549531Y-116500726D01*
X152549484Y-116495187D01*
X152650179Y-116495187D01*
X152650522Y-116548016D01*
X152652692Y-116595801D01*
X152658057Y-116626648D01*
X152667967Y-116647374D01*
X152683771Y-116664795D01*
X152687474Y-116668144D01*
X152735049Y-116692858D01*
X152785385Y-116690329D01*
X152832267Y-116660727D01*
X152846227Y-116645392D01*
X152857910Y-116625061D01*
X152864436Y-116596953D01*
X152867274Y-116553989D01*
X152867893Y-116489086D01*
X152867587Y-116439561D01*
X152865472Y-116391221D01*
X152860140Y-116360026D01*
X152850210Y-116339086D01*
X152834300Y-116321512D01*
X152824954Y-116313598D01*
X152776526Y-116292282D01*
X152725790Y-116295637D01*
X152681737Y-116323546D01*
X152672254Y-116334612D01*
X152660689Y-116355448D01*
X152654002Y-116384545D01*
X152650923Y-116428820D01*
X152650179Y-116495187D01*
X152549484Y-116495187D01*
X152548817Y-116417276D01*
X152548633Y-116308797D01*
X152548579Y-115972040D01*
X152595750Y-115991801D01*
X152608222Y-115997209D01*
X152628074Y-116009424D01*
X152639437Y-116027921D01*
X152645683Y-116060268D01*
X152650179Y-116114032D01*
X152654285Y-116162305D01*
X152659713Y-116193996D01*
X152667489Y-116205822D01*
X152679207Y-116202651D01*
X152709068Y-116191506D01*
X152762434Y-116188743D01*
X152819843Y-116199064D01*
X152869375Y-116221300D01*
X152896626Y-116241882D01*
X152931615Y-116282039D01*
X152954024Y-116333525D01*
X152965940Y-116402007D01*
X152969292Y-116489086D01*
X152969448Y-116493153D01*
X152968287Y-116549752D01*
G36*
X154417293Y-115992883D02*
G01*
X154464464Y-116012781D01*
X154464464Y-116409948D01*
X154464269Y-116512937D01*
X154463748Y-116605580D01*
X154462949Y-116684139D01*
X154461922Y-116744878D01*
X154460713Y-116784062D01*
X154459373Y-116797953D01*
X154458849Y-116797907D01*
X154441037Y-116792859D01*
X154408573Y-116782019D01*
X154362864Y-116766085D01*
X154362864Y-116561612D01*
X154362574Y-116481271D01*
X154361224Y-116423001D01*
X154358119Y-116383348D01*
X154352562Y-116357057D01*
X154343857Y-116338875D01*
X154331306Y-116323546D01*
X154322749Y-116315394D01*
X154276478Y-116292814D01*
X154225478Y-116294814D01*
X154178743Y-116321512D01*
X154171939Y-116328137D01*
X154161043Y-116341895D01*
X154153586Y-116360081D01*
X154148919Y-116387616D01*
X154146392Y-116429420D01*
X154145352Y-116490412D01*
X154145150Y-116575512D01*
X154145053Y-116618673D01*
X154144424Y-116689663D01*
X154143306Y-116746515D01*
X154141813Y-116784267D01*
X154140059Y-116797953D01*
X154139535Y-116797907D01*
X154121723Y-116792859D01*
X154089259Y-116782019D01*
X154043550Y-116766085D01*
X154043573Y-116560676D01*
X154043607Y-116542390D01*
X154045528Y-116447065D01*
X154051428Y-116374982D01*
X154062751Y-116321252D01*
X154080937Y-116280988D01*
X154107429Y-116249300D01*
X154143668Y-116221300D01*
X154179013Y-116203772D01*
X154235523Y-116190224D01*
X154291106Y-116189454D01*
X154333836Y-116202634D01*
X154337048Y-116204454D01*
X154346955Y-116204259D01*
X154353725Y-116189011D01*
X154358611Y-116154052D01*
X154362864Y-116094728D01*
X154370121Y-115972986D01*
X154417293Y-115992883D01*
G37*
X154417293Y-115992883D02*
X154464464Y-116012781D01*
X154464464Y-116409948D01*
X154464269Y-116512937D01*
X154463748Y-116605580D01*
X154462949Y-116684139D01*
X154461922Y-116744878D01*
X154460713Y-116784062D01*
X154459373Y-116797953D01*
X154458849Y-116797907D01*
X154441037Y-116792859D01*
X154408573Y-116782019D01*
X154362864Y-116766085D01*
X154362864Y-116561612D01*
X154362574Y-116481271D01*
X154361224Y-116423001D01*
X154358119Y-116383348D01*
X154352562Y-116357057D01*
X154343857Y-116338875D01*
X154331306Y-116323546D01*
X154322749Y-116315394D01*
X154276478Y-116292814D01*
X154225478Y-116294814D01*
X154178743Y-116321512D01*
X154171939Y-116328137D01*
X154161043Y-116341895D01*
X154153586Y-116360081D01*
X154148919Y-116387616D01*
X154146392Y-116429420D01*
X154145352Y-116490412D01*
X154145150Y-116575512D01*
X154145053Y-116618673D01*
X154144424Y-116689663D01*
X154143306Y-116746515D01*
X154141813Y-116784267D01*
X154140059Y-116797953D01*
X154139535Y-116797907D01*
X154121723Y-116792859D01*
X154089259Y-116782019D01*
X154043550Y-116766085D01*
X154043573Y-116560676D01*
X154043607Y-116542390D01*
X154045528Y-116447065D01*
X154051428Y-116374982D01*
X154062751Y-116321252D01*
X154080937Y-116280988D01*
X154107429Y-116249300D01*
X154143668Y-116221300D01*
X154179013Y-116203772D01*
X154235523Y-116190224D01*
X154291106Y-116189454D01*
X154333836Y-116202634D01*
X154337048Y-116204454D01*
X154346955Y-116204259D01*
X154353725Y-116189011D01*
X154358611Y-116154052D01*
X154362864Y-116094728D01*
X154370121Y-115972986D01*
X154417293Y-115992883D01*
G36*
X153828233Y-116204008D02*
G01*
X153878126Y-116233100D01*
X153900075Y-116255766D01*
X153942254Y-116323521D01*
X153956464Y-116397389D01*
X153956464Y-116448209D01*
X153909749Y-116428567D01*
X153877442Y-116408747D01*
X153851981Y-116367599D01*
X153849366Y-116359114D01*
X153821228Y-116315890D01*
X153778817Y-116292542D01*
X153730120Y-116291539D01*
X153683123Y-116315353D01*
X153676107Y-116321495D01*
X153652643Y-116348184D01*
X153648769Y-116371453D01*
X153666518Y-116394301D01*
X153707929Y-116419726D01*
X153775036Y-116450727D01*
X153779574Y-116452691D01*
X153854072Y-116487429D01*
X153904953Y-116518202D01*
X153936275Y-116548927D01*
X153952093Y-116583521D01*
X153956464Y-116625901D01*
X153950736Y-116672885D01*
X153921812Y-116733024D01*
X153870928Y-116776227D01*
X153834124Y-116789198D01*
X153782184Y-116796295D01*
X153731749Y-116794779D01*
X153695733Y-116784071D01*
X153691908Y-116781405D01*
X153681748Y-116762776D01*
X153688798Y-116729944D01*
X153701047Y-116704174D01*
X153720689Y-116693445D01*
X153757941Y-116693978D01*
X153809658Y-116690901D01*
X153843451Y-116669651D01*
X153854864Y-116630316D01*
X153854854Y-116629186D01*
X153847937Y-116606352D01*
X153824409Y-116585402D01*
X153778664Y-116561254D01*
X153716454Y-116532180D01*
X153675249Y-116516364D01*
X153651462Y-116517383D01*
X153640347Y-116538276D01*
X153637158Y-116582080D01*
X153637150Y-116651832D01*
X153636794Y-116694891D01*
X153635163Y-116748065D01*
X153632511Y-116784461D01*
X153629172Y-116797953D01*
X153628280Y-116797862D01*
X153608987Y-116790549D01*
X153577034Y-116775117D01*
X153532874Y-116752281D01*
X153538121Y-116546517D01*
X153538486Y-116532871D01*
X153542654Y-116437090D01*
X153550018Y-116364901D01*
X153562080Y-116311497D01*
X153580343Y-116272072D01*
X153606310Y-116241819D01*
X153641483Y-116215932D01*
X153642134Y-116215526D01*
X153699006Y-116194407D01*
X153764783Y-116190839D01*
X153828233Y-116204008D01*
G37*
X153828233Y-116204008D02*
X153878126Y-116233100D01*
X153900075Y-116255766D01*
X153942254Y-116323521D01*
X153956464Y-116397389D01*
X153956464Y-116448209D01*
X153909749Y-116428567D01*
X153877442Y-116408747D01*
X153851981Y-116367599D01*
X153849366Y-116359114D01*
X153821228Y-116315890D01*
X153778817Y-116292542D01*
X153730120Y-116291539D01*
X153683123Y-116315353D01*
X153676107Y-116321495D01*
X153652643Y-116348184D01*
X153648769Y-116371453D01*
X153666518Y-116394301D01*
X153707929Y-116419726D01*
X153775036Y-116450727D01*
X153779574Y-116452691D01*
X153854072Y-116487429D01*
X153904953Y-116518202D01*
X153936275Y-116548927D01*
X153952093Y-116583521D01*
X153956464Y-116625901D01*
X153950736Y-116672885D01*
X153921812Y-116733024D01*
X153870928Y-116776227D01*
X153834124Y-116789198D01*
X153782184Y-116796295D01*
X153731749Y-116794779D01*
X153695733Y-116784071D01*
X153691908Y-116781405D01*
X153681748Y-116762776D01*
X153688798Y-116729944D01*
X153701047Y-116704174D01*
X153720689Y-116693445D01*
X153757941Y-116693978D01*
X153809658Y-116690901D01*
X153843451Y-116669651D01*
X153854864Y-116630316D01*
X153854854Y-116629186D01*
X153847937Y-116606352D01*
X153824409Y-116585402D01*
X153778664Y-116561254D01*
X153716454Y-116532180D01*
X153675249Y-116516364D01*
X153651462Y-116517383D01*
X153640347Y-116538276D01*
X153637158Y-116582080D01*
X153637150Y-116651832D01*
X153636794Y-116694891D01*
X153635163Y-116748065D01*
X153632511Y-116784461D01*
X153629172Y-116797953D01*
X153628280Y-116797862D01*
X153608987Y-116790549D01*
X153577034Y-116775117D01*
X153532874Y-116752281D01*
X153538121Y-116546517D01*
X153538486Y-116532871D01*
X153542654Y-116437090D01*
X153550018Y-116364901D01*
X153562080Y-116311497D01*
X153580343Y-116272072D01*
X153606310Y-116241819D01*
X153641483Y-116215932D01*
X153642134Y-116215526D01*
X153699006Y-116194407D01*
X153764783Y-116190839D01*
X153828233Y-116204008D01*
G36*
X153852683Y-111485810D02*
G01*
X153928606Y-111486304D01*
X153983241Y-111487574D01*
X154020250Y-111489986D01*
X154043297Y-111493906D01*
X154056046Y-111499701D01*
X154062161Y-111507738D01*
X154065306Y-111518382D01*
X154065396Y-111518764D01*
X154070564Y-111543786D01*
X154079959Y-111592120D01*
X154092617Y-111658699D01*
X154107575Y-111738453D01*
X154123869Y-111826314D01*
X154125198Y-111833503D01*
X154141441Y-111918779D01*
X154156555Y-111993681D01*
X154169558Y-112053658D01*
X154179465Y-112094156D01*
X154185294Y-112110623D01*
X154185325Y-112110649D01*
X154203693Y-112119759D01*
X154241390Y-112134896D01*
X154290293Y-112152797D01*
X154293047Y-112153769D01*
X154355567Y-112177398D01*
X154428293Y-112207034D01*
X154496044Y-112236501D01*
X154607453Y-112287065D01*
X154854149Y-112118599D01*
X154871525Y-112106750D01*
X154945952Y-112056386D01*
X155012364Y-112012051D01*
X155066789Y-111976355D01*
X155105256Y-111951910D01*
X155123792Y-111941328D01*
X155136493Y-111943754D01*
X155165329Y-111962549D01*
X155209893Y-111999769D01*
X155271420Y-112056459D01*
X155351148Y-112133666D01*
X155358282Y-112140694D01*
X155421546Y-112203661D01*
X155477740Y-112260707D01*
X155523427Y-112308256D01*
X155555164Y-112342736D01*
X155569514Y-112360570D01*
X155569560Y-112360656D01*
X155571383Y-112374234D01*
X155564660Y-112396259D01*
X155547696Y-112429743D01*
X155518794Y-112477700D01*
X155476258Y-112543143D01*
X155418394Y-112629084D01*
X155408533Y-112643590D01*
X155358663Y-112717074D01*
X155314655Y-112782126D01*
X155279130Y-112834856D01*
X155254709Y-112871375D01*
X155244014Y-112887795D01*
X155243208Y-112891273D01*
X155248268Y-112917224D01*
X155263427Y-112959598D01*
X155286213Y-113011167D01*
X155317179Y-113078609D01*
X155351754Y-113158634D01*
X155381116Y-113231068D01*
X155388395Y-113249816D01*
X155407460Y-113297685D01*
X155421465Y-113331035D01*
X155427791Y-113343553D01*
X155434775Y-113344489D01*
X155466163Y-113349900D01*
X155517537Y-113359245D01*
X155583552Y-113371508D01*
X155658863Y-113385671D01*
X155738125Y-113400719D01*
X155815993Y-113415634D01*
X155887120Y-113429400D01*
X155946162Y-113441001D01*
X155987772Y-113449419D01*
X156006607Y-113453638D01*
X156009730Y-113454828D01*
X156017341Y-113461244D01*
X156023004Y-113474904D01*
X156027001Y-113499438D01*
X156029616Y-113538477D01*
X156031134Y-113595652D01*
X156031836Y-113674593D01*
X156032007Y-113778931D01*
X156032007Y-114096238D01*
X155955807Y-114111278D01*
X155946590Y-114113081D01*
X155897641Y-114122419D01*
X155829955Y-114135108D01*
X155751228Y-114149712D01*
X155669150Y-114164794D01*
X155636828Y-114170861D01*
X155564605Y-114185620D01*
X155504416Y-114199576D01*
X155461790Y-114211391D01*
X155442260Y-114219726D01*
X155433410Y-114233344D01*
X155417298Y-114269377D01*
X155400815Y-114316011D01*
X155395013Y-114333473D01*
X155373656Y-114390797D01*
X155346109Y-114458640D01*
X155316857Y-114525794D01*
X155301213Y-114560869D01*
X155278924Y-114613261D01*
X155263607Y-114652497D01*
X155257912Y-114672002D01*
X155258228Y-114673475D01*
X155269031Y-114694168D01*
X155293388Y-114734104D01*
X155328831Y-114789411D01*
X155372886Y-114856220D01*
X155423082Y-114930659D01*
X155588251Y-115173062D01*
X155371253Y-115390422D01*
X155350266Y-115411338D01*
X155286092Y-115473944D01*
X155228740Y-115527934D01*
X155181570Y-115570265D01*
X155147942Y-115597896D01*
X155131217Y-115607782D01*
X155113053Y-115600260D01*
X155075015Y-115578666D01*
X155021476Y-115545590D01*
X154956634Y-115503630D01*
X154884690Y-115455382D01*
X154814025Y-115407730D01*
X154750276Y-115365767D01*
X154698263Y-115332604D01*
X154662029Y-115310817D01*
X154645617Y-115302982D01*
X154644655Y-115303053D01*
X154622853Y-115310777D01*
X154584190Y-115328762D01*
X154536362Y-115353452D01*
X154535860Y-115353723D01*
X154472337Y-115385538D01*
X154428810Y-115401081D01*
X154401802Y-115401124D01*
X154387840Y-115386439D01*
X154381930Y-115371983D01*
X154365979Y-115333270D01*
X154341410Y-115273755D01*
X154309529Y-115196604D01*
X154271643Y-115104980D01*
X154229060Y-115002046D01*
X154183087Y-114890965D01*
X154141417Y-114789911D01*
X154099018Y-114686219D01*
X154061506Y-114593558D01*
X154030138Y-114515081D01*
X154006175Y-114453939D01*
X153990873Y-114413282D01*
X153985493Y-114396264D01*
X153995768Y-114380658D01*
X154024313Y-114354601D01*
X154064721Y-114324326D01*
X154161729Y-114245123D01*
X154248543Y-114143914D01*
X154312072Y-114032555D01*
X154351927Y-113914332D01*
X154367715Y-113792534D01*
X154359046Y-113670449D01*
X154325528Y-113551364D01*
X154266771Y-113438568D01*
X154182382Y-113335350D01*
X154138381Y-113295152D01*
X154032961Y-113224077D01*
X153920160Y-113177740D01*
X153803275Y-113155038D01*
X153685603Y-113154867D01*
X153570440Y-113176126D01*
X153461085Y-113217709D01*
X153360833Y-113278515D01*
X153272983Y-113357440D01*
X153200830Y-113453380D01*
X153147672Y-113565234D01*
X153116807Y-113691896D01*
X153111142Y-113752946D01*
X153118935Y-113885215D01*
X153154034Y-114010705D01*
X153215399Y-114127198D01*
X153301993Y-114232478D01*
X153412779Y-114324326D01*
X153451681Y-114353369D01*
X153480854Y-114379711D01*
X153492007Y-114396239D01*
X153487560Y-114410648D01*
X153473128Y-114449254D01*
X153449923Y-114508640D01*
X153419202Y-114585654D01*
X153382224Y-114677142D01*
X153340246Y-114779955D01*
X153294528Y-114890941D01*
X153252928Y-114991511D01*
X153209972Y-115095386D01*
X153171579Y-115188258D01*
X153139055Y-115266964D01*
X153113708Y-115328338D01*
X153096845Y-115369218D01*
X153089775Y-115386439D01*
X153089693Y-115386643D01*
X153075548Y-115401184D01*
X153048409Y-115401018D01*
X153004773Y-115385366D01*
X152941138Y-115353452D01*
X152936129Y-115350765D01*
X152888875Y-115326589D01*
X152851561Y-115309476D01*
X152831883Y-115302982D01*
X152815755Y-115310657D01*
X152779709Y-115332310D01*
X152727842Y-115365367D01*
X152664195Y-115407249D01*
X152592810Y-115455382D01*
X152522474Y-115502570D01*
X152457420Y-115544706D01*
X152403570Y-115578017D01*
X152365124Y-115599908D01*
X152346284Y-115607782D01*
X152343075Y-115606782D01*
X152320704Y-115591023D01*
X152282483Y-115558472D01*
X152231771Y-115512172D01*
X152171931Y-115455165D01*
X152106321Y-115390497D01*
X151889398Y-115173211D01*
X152058351Y-114924692D01*
X152227303Y-114676172D01*
X152175933Y-114565034D01*
X152175781Y-114564705D01*
X152144933Y-114493857D01*
X152113411Y-114414962D01*
X152088016Y-114345039D01*
X152084173Y-114333761D01*
X152064797Y-114281406D01*
X152047324Y-114240722D01*
X152035138Y-114219726D01*
X152030176Y-114216761D01*
X152000384Y-114206814D01*
X151949797Y-114193944D01*
X151883944Y-114179492D01*
X151808350Y-114164794D01*
X151785707Y-114160649D01*
X151703788Y-114145555D01*
X151627350Y-114131338D01*
X151564087Y-114119434D01*
X151521693Y-114111278D01*
X151445493Y-114096238D01*
X151445493Y-113778931D01*
X151445510Y-113739915D01*
X151445832Y-113644731D01*
X151446783Y-113573694D01*
X151448646Y-113523173D01*
X151451705Y-113489537D01*
X151456244Y-113469157D01*
X151462545Y-113458401D01*
X151470893Y-113453638D01*
X151478974Y-113451709D01*
X151511922Y-113444884D01*
X151564486Y-113434461D01*
X151631319Y-113421457D01*
X151707078Y-113406888D01*
X151786415Y-113391772D01*
X151863987Y-113377124D01*
X151934448Y-113363962D01*
X151992452Y-113353302D01*
X152032654Y-113346160D01*
X152049709Y-113343553D01*
X152050862Y-113341980D01*
X152060135Y-113321558D01*
X152076182Y-113282484D01*
X152096385Y-113231068D01*
X152124422Y-113161792D01*
X152158936Y-113081729D01*
X152191288Y-113011167D01*
X152198702Y-112995328D01*
X152219505Y-112945732D01*
X152231969Y-112907477D01*
X152233613Y-112887795D01*
X152232765Y-112886401D01*
X152219298Y-112865859D01*
X152192600Y-112825955D01*
X152155289Y-112770579D01*
X152109984Y-112703616D01*
X152059302Y-112628956D01*
X152002195Y-112544131D01*
X151959357Y-112478239D01*
X151930210Y-112429917D01*
X151913067Y-112396172D01*
X151906245Y-112374011D01*
X151908056Y-112360441D01*
X151908665Y-112359423D01*
X151925047Y-112339649D01*
X151958445Y-112303614D01*
X152005421Y-112254890D01*
X152062536Y-112197051D01*
X152126353Y-112133666D01*
X152192552Y-112069344D01*
X152257398Y-112008886D01*
X152305049Y-111968094D01*
X152336740Y-111945923D01*
X152353708Y-111941328D01*
X152355925Y-111942360D01*
X152379274Y-111956276D01*
X152421662Y-111983469D01*
X152479119Y-112021328D01*
X152547673Y-112067242D01*
X152623351Y-112118599D01*
X152870048Y-112287065D01*
X152981456Y-112236501D01*
X152984693Y-112235036D01*
X153053093Y-112205404D01*
X153125657Y-112175932D01*
X153187207Y-112152797D01*
X153187479Y-112152701D01*
X153236345Y-112134806D01*
X153273962Y-112119692D01*
X153292207Y-112110623D01*
X153292502Y-112110294D01*
X153298696Y-112091721D01*
X153308889Y-112049484D01*
X153322098Y-111988135D01*
X153337340Y-111912228D01*
X153353631Y-111826314D01*
X153354199Y-111823235D01*
X153370463Y-111735567D01*
X153385358Y-111656180D01*
X153397921Y-111590140D01*
X153407188Y-111542518D01*
X153412194Y-111518382D01*
X153412514Y-111517044D01*
X153415810Y-111506712D01*
X153422488Y-111498945D01*
X153436212Y-111493379D01*
X153460645Y-111489646D01*
X153499452Y-111487381D01*
X153556296Y-111486217D01*
X153634840Y-111485787D01*
X153738750Y-111485725D01*
X153751806Y-111485725D01*
X153852683Y-111485810D01*
G37*
X153852683Y-111485810D02*
X153928606Y-111486304D01*
X153983241Y-111487574D01*
X154020250Y-111489986D01*
X154043297Y-111493906D01*
X154056046Y-111499701D01*
X154062161Y-111507738D01*
X154065306Y-111518382D01*
X154065396Y-111518764D01*
X154070564Y-111543786D01*
X154079959Y-111592120D01*
X154092617Y-111658699D01*
X154107575Y-111738453D01*
X154123869Y-111826314D01*
X154125198Y-111833503D01*
X154141441Y-111918779D01*
X154156555Y-111993681D01*
X154169558Y-112053658D01*
X154179465Y-112094156D01*
X154185294Y-112110623D01*
X154185325Y-112110649D01*
X154203693Y-112119759D01*
X154241390Y-112134896D01*
X154290293Y-112152797D01*
X154293047Y-112153769D01*
X154355567Y-112177398D01*
X154428293Y-112207034D01*
X154496044Y-112236501D01*
X154607453Y-112287065D01*
X154854149Y-112118599D01*
X154871525Y-112106750D01*
X154945952Y-112056386D01*
X155012364Y-112012051D01*
X155066789Y-111976355D01*
X155105256Y-111951910D01*
X155123792Y-111941328D01*
X155136493Y-111943754D01*
X155165329Y-111962549D01*
X155209893Y-111999769D01*
X155271420Y-112056459D01*
X155351148Y-112133666D01*
X155358282Y-112140694D01*
X155421546Y-112203661D01*
X155477740Y-112260707D01*
X155523427Y-112308256D01*
X155555164Y-112342736D01*
X155569514Y-112360570D01*
X155569560Y-112360656D01*
X155571383Y-112374234D01*
X155564660Y-112396259D01*
X155547696Y-112429743D01*
X155518794Y-112477700D01*
X155476258Y-112543143D01*
X155418394Y-112629084D01*
X155408533Y-112643590D01*
X155358663Y-112717074D01*
X155314655Y-112782126D01*
X155279130Y-112834856D01*
X155254709Y-112871375D01*
X155244014Y-112887795D01*
X155243208Y-112891273D01*
X155248268Y-112917224D01*
X155263427Y-112959598D01*
X155286213Y-113011167D01*
X155317179Y-113078609D01*
X155351754Y-113158634D01*
X155381116Y-113231068D01*
X155388395Y-113249816D01*
X155407460Y-113297685D01*
X155421465Y-113331035D01*
X155427791Y-113343553D01*
X155434775Y-113344489D01*
X155466163Y-113349900D01*
X155517537Y-113359245D01*
X155583552Y-113371508D01*
X155658863Y-113385671D01*
X155738125Y-113400719D01*
X155815993Y-113415634D01*
X155887120Y-113429400D01*
X155946162Y-113441001D01*
X155987772Y-113449419D01*
X156006607Y-113453638D01*
X156009730Y-113454828D01*
X156017341Y-113461244D01*
X156023004Y-113474904D01*
X156027001Y-113499438D01*
X156029616Y-113538477D01*
X156031134Y-113595652D01*
X156031836Y-113674593D01*
X156032007Y-113778931D01*
X156032007Y-114096238D01*
X155955807Y-114111278D01*
X155946590Y-114113081D01*
X155897641Y-114122419D01*
X155829955Y-114135108D01*
X155751228Y-114149712D01*
X155669150Y-114164794D01*
X155636828Y-114170861D01*
X155564605Y-114185620D01*
X155504416Y-114199576D01*
X155461790Y-114211391D01*
X155442260Y-114219726D01*
X155433410Y-114233344D01*
X155417298Y-114269377D01*
X155400815Y-114316011D01*
X155395013Y-114333473D01*
X155373656Y-114390797D01*
X155346109Y-114458640D01*
X155316857Y-114525794D01*
X155301213Y-114560869D01*
X155278924Y-114613261D01*
X155263607Y-114652497D01*
X155257912Y-114672002D01*
X155258228Y-114673475D01*
X155269031Y-114694168D01*
X155293388Y-114734104D01*
X155328831Y-114789411D01*
X155372886Y-114856220D01*
X155423082Y-114930659D01*
X155588251Y-115173062D01*
X155371253Y-115390422D01*
X155350266Y-115411338D01*
X155286092Y-115473944D01*
X155228740Y-115527934D01*
X155181570Y-115570265D01*
X155147942Y-115597896D01*
X155131217Y-115607782D01*
X155113053Y-115600260D01*
X155075015Y-115578666D01*
X155021476Y-115545590D01*
X154956634Y-115503630D01*
X154884690Y-115455382D01*
X154814025Y-115407730D01*
X154750276Y-115365767D01*
X154698263Y-115332604D01*
X154662029Y-115310817D01*
X154645617Y-115302982D01*
X154644655Y-115303053D01*
X154622853Y-115310777D01*
X154584190Y-115328762D01*
X154536362Y-115353452D01*
X154535860Y-115353723D01*
X154472337Y-115385538D01*
X154428810Y-115401081D01*
X154401802Y-115401124D01*
X154387840Y-115386439D01*
X154381930Y-115371983D01*
X154365979Y-115333270D01*
X154341410Y-115273755D01*
X154309529Y-115196604D01*
X154271643Y-115104980D01*
X154229060Y-115002046D01*
X154183087Y-114890965D01*
X154141417Y-114789911D01*
X154099018Y-114686219D01*
X154061506Y-114593558D01*
X154030138Y-114515081D01*
X154006175Y-114453939D01*
X153990873Y-114413282D01*
X153985493Y-114396264D01*
X153995768Y-114380658D01*
X154024313Y-114354601D01*
X154064721Y-114324326D01*
X154161729Y-114245123D01*
X154248543Y-114143914D01*
X154312072Y-114032555D01*
X154351927Y-113914332D01*
X154367715Y-113792534D01*
X154359046Y-113670449D01*
X154325528Y-113551364D01*
X154266771Y-113438568D01*
X154182382Y-113335350D01*
X154138381Y-113295152D01*
X154032961Y-113224077D01*
X153920160Y-113177740D01*
X153803275Y-113155038D01*
X153685603Y-113154867D01*
X153570440Y-113176126D01*
X153461085Y-113217709D01*
X153360833Y-113278515D01*
X153272983Y-113357440D01*
X153200830Y-113453380D01*
X153147672Y-113565234D01*
X153116807Y-113691896D01*
X153111142Y-113752946D01*
X153118935Y-113885215D01*
X153154034Y-114010705D01*
X153215399Y-114127198D01*
X153301993Y-114232478D01*
X153412779Y-114324326D01*
X153451681Y-114353369D01*
X153480854Y-114379711D01*
X153492007Y-114396239D01*
X153487560Y-114410648D01*
X153473128Y-114449254D01*
X153449923Y-114508640D01*
X153419202Y-114585654D01*
X153382224Y-114677142D01*
X153340246Y-114779955D01*
X153294528Y-114890941D01*
X153252928Y-114991511D01*
X153209972Y-115095386D01*
X153171579Y-115188258D01*
X153139055Y-115266964D01*
X153113708Y-115328338D01*
X153096845Y-115369218D01*
X153089775Y-115386439D01*
X153089693Y-115386643D01*
X153075548Y-115401184D01*
X153048409Y-115401018D01*
X153004773Y-115385366D01*
X152941138Y-115353452D01*
X152936129Y-115350765D01*
X152888875Y-115326589D01*
X152851561Y-115309476D01*
X152831883Y-115302982D01*
X152815755Y-115310657D01*
X152779709Y-115332310D01*
X152727842Y-115365367D01*
X152664195Y-115407249D01*
X152592810Y-115455382D01*
X152522474Y-115502570D01*
X152457420Y-115544706D01*
X152403570Y-115578017D01*
X152365124Y-115599908D01*
X152346284Y-115607782D01*
X152343075Y-115606782D01*
X152320704Y-115591023D01*
X152282483Y-115558472D01*
X152231771Y-115512172D01*
X152171931Y-115455165D01*
X152106321Y-115390497D01*
X151889398Y-115173211D01*
X152058351Y-114924692D01*
X152227303Y-114676172D01*
X152175933Y-114565034D01*
X152175781Y-114564705D01*
X152144933Y-114493857D01*
X152113411Y-114414962D01*
X152088016Y-114345039D01*
X152084173Y-114333761D01*
X152064797Y-114281406D01*
X152047324Y-114240722D01*
X152035138Y-114219726D01*
X152030176Y-114216761D01*
X152000384Y-114206814D01*
X151949797Y-114193944D01*
X151883944Y-114179492D01*
X151808350Y-114164794D01*
X151785707Y-114160649D01*
X151703788Y-114145555D01*
X151627350Y-114131338D01*
X151564087Y-114119434D01*
X151521693Y-114111278D01*
X151445493Y-114096238D01*
X151445493Y-113778931D01*
X151445510Y-113739915D01*
X151445832Y-113644731D01*
X151446783Y-113573694D01*
X151448646Y-113523173D01*
X151451705Y-113489537D01*
X151456244Y-113469157D01*
X151462545Y-113458401D01*
X151470893Y-113453638D01*
X151478974Y-113451709D01*
X151511922Y-113444884D01*
X151564486Y-113434461D01*
X151631319Y-113421457D01*
X151707078Y-113406888D01*
X151786415Y-113391772D01*
X151863987Y-113377124D01*
X151934448Y-113363962D01*
X151992452Y-113353302D01*
X152032654Y-113346160D01*
X152049709Y-113343553D01*
X152050862Y-113341980D01*
X152060135Y-113321558D01*
X152076182Y-113282484D01*
X152096385Y-113231068D01*
X152124422Y-113161792D01*
X152158936Y-113081729D01*
X152191288Y-113011167D01*
X152198702Y-112995328D01*
X152219505Y-112945732D01*
X152231969Y-112907477D01*
X152233613Y-112887795D01*
X152232765Y-112886401D01*
X152219298Y-112865859D01*
X152192600Y-112825955D01*
X152155289Y-112770579D01*
X152109984Y-112703616D01*
X152059302Y-112628956D01*
X152002195Y-112544131D01*
X151959357Y-112478239D01*
X151930210Y-112429917D01*
X151913067Y-112396172D01*
X151906245Y-112374011D01*
X151908056Y-112360441D01*
X151908665Y-112359423D01*
X151925047Y-112339649D01*
X151958445Y-112303614D01*
X152005421Y-112254890D01*
X152062536Y-112197051D01*
X152126353Y-112133666D01*
X152192552Y-112069344D01*
X152257398Y-112008886D01*
X152305049Y-111968094D01*
X152336740Y-111945923D01*
X152353708Y-111941328D01*
X152355925Y-111942360D01*
X152379274Y-111956276D01*
X152421662Y-111983469D01*
X152479119Y-112021328D01*
X152547673Y-112067242D01*
X152623351Y-112118599D01*
X152870048Y-112287065D01*
X152981456Y-112236501D01*
X152984693Y-112235036D01*
X153053093Y-112205404D01*
X153125657Y-112175932D01*
X153187207Y-112152797D01*
X153187479Y-112152701D01*
X153236345Y-112134806D01*
X153273962Y-112119692D01*
X153292207Y-112110623D01*
X153292502Y-112110294D01*
X153298696Y-112091721D01*
X153308889Y-112049484D01*
X153322098Y-111988135D01*
X153337340Y-111912228D01*
X153353631Y-111826314D01*
X153354199Y-111823235D01*
X153370463Y-111735567D01*
X153385358Y-111656180D01*
X153397921Y-111590140D01*
X153407188Y-111542518D01*
X153412194Y-111518382D01*
X153412514Y-111517044D01*
X153415810Y-111506712D01*
X153422488Y-111498945D01*
X153436212Y-111493379D01*
X153460645Y-111489646D01*
X153499452Y-111487381D01*
X153556296Y-111486217D01*
X153634840Y-111485787D01*
X153738750Y-111485725D01*
X153751806Y-111485725D01*
X153852683Y-111485810D01*
G36*
X151706245Y-116189659D02*
G01*
X151737349Y-116197560D01*
X151766309Y-116217256D01*
X151803581Y-116253923D01*
X151827551Y-116279817D01*
X151852520Y-116313436D01*
X151863781Y-116344945D01*
X151866407Y-116384924D01*
X151866407Y-116450356D01*
X151821785Y-116427281D01*
X151786423Y-116399163D01*
X151762201Y-116361287D01*
X151758041Y-116350990D01*
X151726344Y-116311076D01*
X151682304Y-116291063D01*
X151634281Y-116293011D01*
X151590636Y-116318982D01*
X151572170Y-116340074D01*
X151561413Y-116367058D01*
X151572928Y-116391073D01*
X151608731Y-116415230D01*
X151670840Y-116442638D01*
X151680265Y-116446424D01*
X151736808Y-116471198D01*
X151785330Y-116495628D01*
X151816201Y-116514925D01*
X151847121Y-116549392D01*
X151867677Y-116604396D01*
X151865494Y-116663422D01*
X151841174Y-116719284D01*
X151795318Y-116764794D01*
X151758188Y-116784166D01*
X151686461Y-116797731D01*
X151646602Y-116795901D01*
X151609703Y-116786007D01*
X151595547Y-116765245D01*
X151600841Y-116731052D01*
X151602381Y-116726531D01*
X151614592Y-116702555D01*
X151634924Y-116693481D01*
X151673658Y-116694088D01*
X151701007Y-116694913D01*
X151733007Y-116687831D01*
X151754932Y-116666658D01*
X151767420Y-116640591D01*
X151768812Y-116613284D01*
X151768748Y-116613124D01*
X151752557Y-116598369D01*
X151717905Y-116576896D01*
X151673071Y-116552897D01*
X151626332Y-116530564D01*
X151585967Y-116514091D01*
X151560254Y-116507668D01*
X151556429Y-116513957D01*
X151551614Y-116543554D01*
X151548316Y-116591886D01*
X151547093Y-116652811D01*
X151546808Y-116694981D01*
X151545468Y-116748092D01*
X151543278Y-116784464D01*
X151540519Y-116797953D01*
X151526094Y-116793420D01*
X151496976Y-116781109D01*
X151460007Y-116764265D01*
X151460007Y-116548160D01*
X151460243Y-116492766D01*
X151462479Y-116408646D01*
X151468173Y-116346239D01*
X151478653Y-116300797D01*
X151495247Y-116267572D01*
X151519281Y-116241817D01*
X151552083Y-116218783D01*
X151593874Y-116199774D01*
X151671037Y-116188353D01*
X151706245Y-116189659D01*
G37*
X151706245Y-116189659D02*
X151737349Y-116197560D01*
X151766309Y-116217256D01*
X151803581Y-116253923D01*
X151827551Y-116279817D01*
X151852520Y-116313436D01*
X151863781Y-116344945D01*
X151866407Y-116384924D01*
X151866407Y-116450356D01*
X151821785Y-116427281D01*
X151786423Y-116399163D01*
X151762201Y-116361287D01*
X151758041Y-116350990D01*
X151726344Y-116311076D01*
X151682304Y-116291063D01*
X151634281Y-116293011D01*
X151590636Y-116318982D01*
X151572170Y-116340074D01*
X151561413Y-116367058D01*
X151572928Y-116391073D01*
X151608731Y-116415230D01*
X151670840Y-116442638D01*
X151680265Y-116446424D01*
X151736808Y-116471198D01*
X151785330Y-116495628D01*
X151816201Y-116514925D01*
X151847121Y-116549392D01*
X151867677Y-116604396D01*
X151865494Y-116663422D01*
X151841174Y-116719284D01*
X151795318Y-116764794D01*
X151758188Y-116784166D01*
X151686461Y-116797731D01*
X151646602Y-116795901D01*
X151609703Y-116786007D01*
X151595547Y-116765245D01*
X151600841Y-116731052D01*
X151602381Y-116726531D01*
X151614592Y-116702555D01*
X151634924Y-116693481D01*
X151673658Y-116694088D01*
X151701007Y-116694913D01*
X151733007Y-116687831D01*
X151754932Y-116666658D01*
X151767420Y-116640591D01*
X151768812Y-116613284D01*
X151768748Y-116613124D01*
X151752557Y-116598369D01*
X151717905Y-116576896D01*
X151673071Y-116552897D01*
X151626332Y-116530564D01*
X151585967Y-116514091D01*
X151560254Y-116507668D01*
X151556429Y-116513957D01*
X151551614Y-116543554D01*
X151548316Y-116591886D01*
X151547093Y-116652811D01*
X151546808Y-116694981D01*
X151545468Y-116748092D01*
X151543278Y-116784464D01*
X151540519Y-116797953D01*
X151526094Y-116793420D01*
X151496976Y-116781109D01*
X151460007Y-116764265D01*
X151460007Y-116548160D01*
X151460243Y-116492766D01*
X151462479Y-116408646D01*
X151468173Y-116346239D01*
X151478653Y-116300797D01*
X151495247Y-116267572D01*
X151519281Y-116241817D01*
X151552083Y-116218783D01*
X151593874Y-116199774D01*
X151671037Y-116188353D01*
X151706245Y-116189659D01*
G36*
X155896434Y-116547517D02*
G01*
X155893828Y-116570826D01*
X155874410Y-116653791D01*
X155839323Y-116716887D01*
X155785962Y-116765247D01*
X155782946Y-116767243D01*
X155715112Y-116795624D01*
X155644285Y-116798150D01*
X155576039Y-116776536D01*
X155515946Y-116732501D01*
X155469579Y-116667761D01*
X155468800Y-116666200D01*
X155453393Y-116625997D01*
X155442107Y-116580305D01*
X155436120Y-116537411D01*
X155436611Y-116505599D01*
X155444757Y-116493153D01*
X155451994Y-116493910D01*
X155486601Y-116507674D01*
X155525828Y-116532985D01*
X155559198Y-116562284D01*
X155576233Y-116588011D01*
X155593942Y-116622910D01*
X155630235Y-116654651D01*
X155672380Y-116667325D01*
X155687827Y-116663660D01*
X155718319Y-116645213D01*
X155744878Y-116619605D01*
X155756236Y-116596373D01*
X155756232Y-116596287D01*
X155743346Y-116585618D01*
X155708991Y-116566372D01*
X155658343Y-116541252D01*
X155596579Y-116512963D01*
X155596239Y-116512813D01*
X155529138Y-116482937D01*
X155484161Y-116461412D01*
X155456895Y-116444876D01*
X155442928Y-116429970D01*
X155437847Y-116413332D01*
X155437240Y-116391601D01*
X155441462Y-116350452D01*
X155584750Y-116350452D01*
X155599541Y-116363388D01*
X155636394Y-116382772D01*
X155637475Y-116383320D01*
X155680955Y-116404026D01*
X155719852Y-116420544D01*
X155744528Y-116427532D01*
X155754426Y-116418192D01*
X155756236Y-116386187D01*
X155748716Y-116346354D01*
X155722647Y-116310156D01*
X155684904Y-116291389D01*
X155642827Y-116293284D01*
X155603755Y-116319071D01*
X155588397Y-116336890D01*
X155584750Y-116350452D01*
X155441462Y-116350452D01*
X155442583Y-116339525D01*
X155469001Y-116268774D01*
X155513223Y-116213174D01*
X155570447Y-116174678D01*
X155635870Y-116155236D01*
X155704687Y-116156798D01*
X155772097Y-116181317D01*
X155833294Y-116230741D01*
X155867200Y-116279651D01*
X155891556Y-116349466D01*
X155895517Y-116386187D01*
X155901049Y-116437494D01*
X155896434Y-116547517D01*
G37*
X155896434Y-116547517D02*
X155893828Y-116570826D01*
X155874410Y-116653791D01*
X155839323Y-116716887D01*
X155785962Y-116765247D01*
X155782946Y-116767243D01*
X155715112Y-116795624D01*
X155644285Y-116798150D01*
X155576039Y-116776536D01*
X155515946Y-116732501D01*
X155469579Y-116667761D01*
X155468800Y-116666200D01*
X155453393Y-116625997D01*
X155442107Y-116580305D01*
X155436120Y-116537411D01*
X155436611Y-116505599D01*
X155444757Y-116493153D01*
X155451994Y-116493910D01*
X155486601Y-116507674D01*
X155525828Y-116532985D01*
X155559198Y-116562284D01*
X155576233Y-116588011D01*
X155593942Y-116622910D01*
X155630235Y-116654651D01*
X155672380Y-116667325D01*
X155687827Y-116663660D01*
X155718319Y-116645213D01*
X155744878Y-116619605D01*
X155756236Y-116596373D01*
X155756232Y-116596287D01*
X155743346Y-116585618D01*
X155708991Y-116566372D01*
X155658343Y-116541252D01*
X155596579Y-116512963D01*
X155596239Y-116512813D01*
X155529138Y-116482937D01*
X155484161Y-116461412D01*
X155456895Y-116444876D01*
X155442928Y-116429970D01*
X155437847Y-116413332D01*
X155437240Y-116391601D01*
X155441462Y-116350452D01*
X155584750Y-116350452D01*
X155599541Y-116363388D01*
X155636394Y-116382772D01*
X155637475Y-116383320D01*
X155680955Y-116404026D01*
X155719852Y-116420544D01*
X155744528Y-116427532D01*
X155754426Y-116418192D01*
X155756236Y-116386187D01*
X155748716Y-116346354D01*
X155722647Y-116310156D01*
X155684904Y-116291389D01*
X155642827Y-116293284D01*
X155603755Y-116319071D01*
X155588397Y-116336890D01*
X155584750Y-116350452D01*
X155441462Y-116350452D01*
X155442583Y-116339525D01*
X155469001Y-116268774D01*
X155513223Y-116213174D01*
X155570447Y-116174678D01*
X155635870Y-116155236D01*
X155704687Y-116156798D01*
X155772097Y-116181317D01*
X155833294Y-116230741D01*
X155867200Y-116279651D01*
X155891556Y-116349466D01*
X155895517Y-116386187D01*
X155901049Y-116437494D01*
X155896434Y-116547517D01*
G36*
X153346441Y-116209906D02*
G01*
X153351023Y-116212442D01*
X153388454Y-116241496D01*
X153421920Y-116278849D01*
X153427757Y-116287291D01*
X153438915Y-116306992D01*
X153446886Y-116330374D01*
X153452368Y-116362506D01*
X153456057Y-116408458D01*
X153458649Y-116473298D01*
X153460842Y-116562096D01*
X153461152Y-116577108D01*
X153462150Y-116674438D01*
X153460744Y-116743373D01*
X153456914Y-116784387D01*
X153450639Y-116797953D01*
X153431648Y-116793891D01*
X153399388Y-116781583D01*
X153391791Y-116777984D01*
X153379926Y-116769837D01*
X153371744Y-116756443D01*
X153366393Y-116733047D01*
X153363019Y-116694894D01*
X153360769Y-116637229D01*
X153358790Y-116555296D01*
X153358248Y-116531346D01*
X153356153Y-116455705D01*
X153353433Y-116402767D01*
X153349265Y-116367514D01*
X153342829Y-116344926D01*
X153333300Y-116329983D01*
X153319856Y-116317666D01*
X153280055Y-116296073D01*
X153231091Y-116291915D01*
X153187279Y-116308438D01*
X153155758Y-116342649D01*
X153143664Y-116391553D01*
X153143328Y-116404846D01*
X153136722Y-116428911D01*
X153117220Y-116432583D01*
X153079033Y-116418252D01*
X153070188Y-116413656D01*
X153046284Y-116386625D01*
X153045811Y-116346433D01*
X153068586Y-116290848D01*
X153089477Y-116260556D01*
X153142892Y-116217523D01*
X153208824Y-116193194D01*
X153279324Y-116189882D01*
X153346441Y-116209906D01*
G37*
X153346441Y-116209906D02*
X153351023Y-116212442D01*
X153388454Y-116241496D01*
X153421920Y-116278849D01*
X153427757Y-116287291D01*
X153438915Y-116306992D01*
X153446886Y-116330374D01*
X153452368Y-116362506D01*
X153456057Y-116408458D01*
X153458649Y-116473298D01*
X153460842Y-116562096D01*
X153461152Y-116577108D01*
X153462150Y-116674438D01*
X153460744Y-116743373D01*
X153456914Y-116784387D01*
X153450639Y-116797953D01*
X153431648Y-116793891D01*
X153399388Y-116781583D01*
X153391791Y-116777984D01*
X153379926Y-116769837D01*
X153371744Y-116756443D01*
X153366393Y-116733047D01*
X153363019Y-116694894D01*
X153360769Y-116637229D01*
X153358790Y-116555296D01*
X153358248Y-116531346D01*
X153356153Y-116455705D01*
X153353433Y-116402767D01*
X153349265Y-116367514D01*
X153342829Y-116344926D01*
X153333300Y-116329983D01*
X153319856Y-116317666D01*
X153280055Y-116296073D01*
X153231091Y-116291915D01*
X153187279Y-116308438D01*
X153155758Y-116342649D01*
X153143664Y-116391553D01*
X153143328Y-116404846D01*
X153136722Y-116428911D01*
X153117220Y-116432583D01*
X153079033Y-116418252D01*
X153070188Y-116413656D01*
X153046284Y-116386625D01*
X153045811Y-116346433D01*
X153068586Y-116290848D01*
X153089477Y-116260556D01*
X153142892Y-116217523D01*
X153208824Y-116193194D01*
X153279324Y-116189882D01*
X153346441Y-116209906D01*
G36*
X156450002Y-116656439D02*
G01*
X156450401Y-116688778D01*
X156451679Y-116796894D01*
X156451935Y-116879625D01*
X156450384Y-116939865D01*
X156446240Y-116980512D01*
X156438714Y-117004462D01*
X156427021Y-117014610D01*
X156410374Y-117013853D01*
X156387986Y-117005087D01*
X156359071Y-116991208D01*
X156352892Y-116988247D01*
X156327163Y-116973750D01*
X156313726Y-116956504D01*
X156308584Y-116927747D01*
X156307740Y-116878722D01*
X156307702Y-116790696D01*
X156217026Y-116790696D01*
X156161248Y-116788254D01*
X156117390Y-116778347D01*
X156080968Y-116758325D01*
X156078253Y-116756368D01*
X156041296Y-116723308D01*
X156015576Y-116683370D01*
X155999356Y-116631096D01*
X155990898Y-116561027D01*
X155988833Y-116481869D01*
X156133607Y-116481869D01*
X156133632Y-116495136D01*
X156135011Y-116555023D01*
X156139437Y-116594171D01*
X156148211Y-116619592D01*
X156162636Y-116638296D01*
X156163534Y-116639189D01*
X156198987Y-116663391D01*
X156233346Y-116661006D01*
X156272153Y-116631699D01*
X156281645Y-116621683D01*
X156295626Y-116601147D01*
X156303510Y-116574436D01*
X156306995Y-116533938D01*
X156307779Y-116472042D01*
X156307100Y-116434569D01*
X156299733Y-116366419D01*
X156282918Y-116321769D01*
X156254984Y-116297365D01*
X156214259Y-116289953D01*
X156197100Y-116291533D01*
X156167410Y-116307205D01*
X156147781Y-116342130D01*
X156136938Y-116399340D01*
X156133607Y-116481869D01*
X155988833Y-116481869D01*
X155988464Y-116467706D01*
X155989003Y-116399608D01*
X155991457Y-116348026D01*
X155996908Y-116312255D01*
X156006436Y-116285454D01*
X156021121Y-116260777D01*
X156034602Y-116241919D01*
X156083549Y-116191007D01*
X156139006Y-116163357D01*
X156208678Y-116154604D01*
X156288414Y-116163329D01*
X156357345Y-116194624D01*
X156411863Y-116249820D01*
X156415973Y-116255663D01*
X156425558Y-116271192D01*
X156432901Y-116288937D01*
X156438362Y-116312729D01*
X156442300Y-116346397D01*
X156445073Y-116393772D01*
X156447042Y-116458684D01*
X156447278Y-116472042D01*
X156448565Y-116544963D01*
X156450002Y-116656439D01*
G37*
X156450002Y-116656439D02*
X156450401Y-116688778D01*
X156451679Y-116796894D01*
X156451935Y-116879625D01*
X156450384Y-116939865D01*
X156446240Y-116980512D01*
X156438714Y-117004462D01*
X156427021Y-117014610D01*
X156410374Y-117013853D01*
X156387986Y-117005087D01*
X156359071Y-116991208D01*
X156352892Y-116988247D01*
X156327163Y-116973750D01*
X156313726Y-116956504D01*
X156308584Y-116927747D01*
X156307740Y-116878722D01*
X156307702Y-116790696D01*
X156217026Y-116790696D01*
X156161248Y-116788254D01*
X156117390Y-116778347D01*
X156080968Y-116758325D01*
X156078253Y-116756368D01*
X156041296Y-116723308D01*
X156015576Y-116683370D01*
X155999356Y-116631096D01*
X155990898Y-116561027D01*
X155988833Y-116481869D01*
X156133607Y-116481869D01*
X156133632Y-116495136D01*
X156135011Y-116555023D01*
X156139437Y-116594171D01*
X156148211Y-116619592D01*
X156162636Y-116638296D01*
X156163534Y-116639189D01*
X156198987Y-116663391D01*
X156233346Y-116661006D01*
X156272153Y-116631699D01*
X156281645Y-116621683D01*
X156295626Y-116601147D01*
X156303510Y-116574436D01*
X156306995Y-116533938D01*
X156307779Y-116472042D01*
X156307100Y-116434569D01*
X156299733Y-116366419D01*
X156282918Y-116321769D01*
X156254984Y-116297365D01*
X156214259Y-116289953D01*
X156197100Y-116291533D01*
X156167410Y-116307205D01*
X156147781Y-116342130D01*
X156136938Y-116399340D01*
X156133607Y-116481869D01*
X155988833Y-116481869D01*
X155988464Y-116467706D01*
X155989003Y-116399608D01*
X155991457Y-116348026D01*
X155996908Y-116312255D01*
X156006436Y-116285454D01*
X156021121Y-116260777D01*
X156034602Y-116241919D01*
X156083549Y-116191007D01*
X156139006Y-116163357D01*
X156208678Y-116154604D01*
X156288414Y-116163329D01*
X156357345Y-116194624D01*
X156411863Y-116249820D01*
X156415973Y-116255663D01*
X156425558Y-116271192D01*
X156432901Y-116288937D01*
X156438362Y-116312729D01*
X156442300Y-116346397D01*
X156445073Y-116393772D01*
X156447042Y-116458684D01*
X156447278Y-116472042D01*
X156448565Y-116544963D01*
X156450002Y-116656439D01*
D13*
%TO.C,RGB4*%
X192177811Y-102988439D02*
X184877811Y-102988439D01*
X184877811Y-102988439D02*
X184877811Y-101838439D01*
X192177811Y-97488439D02*
X184877811Y-97488439D01*
%TO.C,G\u002A\u002A\u002A*%
G36*
X135101854Y-83541236D02*
G01*
X135919977Y-83889675D01*
X137174749Y-84474800D01*
X138816121Y-85463761D01*
X139266768Y-85826452D01*
X140312774Y-86668302D01*
X140612462Y-86940654D01*
X140978897Y-87249721D01*
X141206366Y-87369687D01*
X141369215Y-87330399D01*
X141541789Y-87161705D01*
X141769324Y-86968035D01*
X142251271Y-86652314D01*
X142826494Y-86339268D01*
X143799229Y-85861555D01*
X147974572Y-85865202D01*
X148527357Y-85865761D01*
X149718731Y-85869199D01*
X150635857Y-85879286D01*
X151331690Y-85900740D01*
X151859190Y-85938280D01*
X152271314Y-85996623D01*
X152621018Y-86080486D01*
X152961262Y-86194589D01*
X153345002Y-86343649D01*
X153831503Y-86545392D01*
X154950857Y-87084945D01*
X155858275Y-87636635D01*
X156510962Y-88172264D01*
X156866125Y-88663637D01*
X156923291Y-88824594D01*
X157053408Y-89503932D01*
X157103379Y-90335273D01*
X157098909Y-90473088D01*
X157075478Y-91195463D01*
X156971975Y-91961347D01*
X156795145Y-92509773D01*
X156716935Y-92640100D01*
X156352800Y-93084872D01*
X155891891Y-93508935D01*
X155436014Y-93826376D01*
X155086975Y-93951281D01*
X154909576Y-94015367D01*
X154521511Y-94245277D01*
X154043223Y-94584772D01*
X153096956Y-95233884D01*
X151796446Y-95890495D01*
X150348792Y-96355981D01*
X148664639Y-96664900D01*
X147928389Y-96771912D01*
X146962617Y-96936873D01*
X146091548Y-97110805D01*
X145440752Y-97270133D01*
X144298714Y-97600215D01*
X144529778Y-99626040D01*
X144760841Y-101651865D01*
X145770312Y-102803286D01*
X145868116Y-102915049D01*
X146615418Y-103789962D01*
X147156866Y-104475174D01*
X147527776Y-105022182D01*
X147763465Y-105482480D01*
X147899250Y-105907565D01*
X147919577Y-106045887D01*
X147955946Y-106545292D01*
X147989405Y-107319701D01*
X148018682Y-108321690D01*
X148042504Y-109503836D01*
X148059597Y-110818716D01*
X148068689Y-112218908D01*
X148069500Y-112498391D01*
X148067882Y-113998702D01*
X148067511Y-114343096D01*
X148048143Y-115895738D01*
X148006456Y-117205264D01*
X147937509Y-118320620D01*
X147836362Y-119290755D01*
X147698074Y-120164614D01*
X147517705Y-120991144D01*
X147290314Y-121819294D01*
X147010961Y-122698008D01*
X146694483Y-123587273D01*
X146160936Y-124843319D01*
X145531507Y-126032947D01*
X144769587Y-127211038D01*
X143838564Y-128432475D01*
X142701827Y-129752138D01*
X141322765Y-131224911D01*
X141045140Y-131508177D01*
X140574781Y-131965952D01*
X140220590Y-132281595D01*
X140043442Y-132399226D01*
X139900216Y-132358458D01*
X139697270Y-132076493D01*
X139557211Y-131509530D01*
X139476078Y-130637839D01*
X139449914Y-129441692D01*
X139449914Y-129162450D01*
X139929724Y-129162450D01*
X139973662Y-130094089D01*
X139994584Y-130330419D01*
X140067545Y-130942590D01*
X140146887Y-131369193D01*
X140218800Y-131529363D01*
X140266518Y-131503490D01*
X140514136Y-131275115D01*
X140919988Y-130852147D01*
X141439542Y-130284926D01*
X142028265Y-129623792D01*
X142641626Y-128919083D01*
X143235090Y-128221138D01*
X143764128Y-127580296D01*
X144184205Y-127046897D01*
X144944733Y-125906793D01*
X145826501Y-124169120D01*
X146564457Y-122195090D01*
X147135765Y-120038923D01*
X147198566Y-119728491D01*
X147272040Y-119280034D01*
X147329943Y-118778391D01*
X147373955Y-118181458D01*
X147405752Y-117447127D01*
X147427012Y-116533295D01*
X147439413Y-115397855D01*
X147444632Y-113998702D01*
X147444347Y-112293730D01*
X147436040Y-106019056D01*
X146980287Y-105247840D01*
X146673177Y-104784129D01*
X146191992Y-104147095D01*
X145683799Y-103543491D01*
X144843065Y-102610359D01*
X144902946Y-104171185D01*
X144910327Y-104416577D01*
X144871211Y-105564288D01*
X144867366Y-105677098D01*
X144682606Y-106751453D01*
X144663941Y-106859987D01*
X144274219Y-108075737D01*
X143672367Y-109434843D01*
X142950395Y-110913610D01*
X142934027Y-115784843D01*
X142930056Y-116662692D01*
X142913397Y-118170452D01*
X142877136Y-119409905D01*
X142811771Y-120433985D01*
X142707800Y-121295625D01*
X142555723Y-122047759D01*
X142346036Y-122743320D01*
X142069238Y-123435243D01*
X141715828Y-124176460D01*
X141276303Y-125019906D01*
X140904581Y-125735089D01*
X140443214Y-126722574D01*
X140141970Y-127564455D01*
X139978316Y-128348492D01*
X139929724Y-129162450D01*
X139449914Y-129162450D01*
X139449914Y-127267035D01*
X140691652Y-124884698D01*
X141208944Y-123860546D01*
X141660009Y-122869149D01*
X141956158Y-122068358D01*
X142119103Y-121405246D01*
X142160542Y-121143245D01*
X142302892Y-119907622D01*
X142403434Y-118459024D01*
X142458003Y-116903978D01*
X142462433Y-115349012D01*
X142412558Y-113900653D01*
X142285136Y-111691459D01*
X141705000Y-112200825D01*
X141316529Y-112501461D01*
X140930463Y-112639140D01*
X140431115Y-112617141D01*
X140314606Y-112602422D01*
X140015122Y-112590877D01*
X139747003Y-112660974D01*
X139440006Y-112852904D01*
X139023887Y-113206858D01*
X138428403Y-113763028D01*
X138408853Y-113781513D01*
X137675495Y-114434789D01*
X137110857Y-114832046D01*
X136669059Y-114989916D01*
X136304221Y-114925031D01*
X135970462Y-114654021D01*
X135704792Y-114425438D01*
X135418104Y-114306076D01*
X135275656Y-114342827D01*
X134860753Y-114510137D01*
X134268149Y-114781784D01*
X133574862Y-115123608D01*
X133097456Y-115362687D01*
X132437792Y-115663584D01*
X131915801Y-115840544D01*
X131427209Y-115925399D01*
X130867739Y-115949978D01*
X130690110Y-115950358D01*
X130101257Y-115920570D01*
X129745791Y-115823848D01*
X129532488Y-115638941D01*
X129449495Y-115534605D01*
X129296849Y-115429035D01*
X129053392Y-115405518D01*
X128636150Y-115461755D01*
X127962150Y-115595448D01*
X126998666Y-115773660D01*
X126219090Y-115850215D01*
X125580156Y-115806710D01*
X124984222Y-115636033D01*
X124333647Y-115331068D01*
X123842622Y-115089940D01*
X123385989Y-114922453D01*
X122870802Y-114809304D01*
X122200637Y-114729355D01*
X121279069Y-114661469D01*
X120755173Y-114623977D01*
X119826883Y-114525357D01*
X119452663Y-114451762D01*
X123885058Y-114451762D01*
X124786234Y-114900837D01*
X125234602Y-115105856D01*
X125781238Y-115271070D01*
X126351014Y-115310563D01*
X127045865Y-115228436D01*
X127967722Y-115028788D01*
X128302572Y-114946963D01*
X128358740Y-114930636D01*
X129865291Y-114930636D01*
X129870214Y-115157805D01*
X129958847Y-115237834D01*
X130346832Y-115358232D01*
X130909969Y-115396813D01*
X131534161Y-115341014D01*
X131707519Y-115298170D01*
X132241524Y-115107727D01*
X132925235Y-114815915D01*
X133653405Y-114466181D01*
X135163745Y-113697172D01*
X134740733Y-112492897D01*
X134726174Y-112451260D01*
X134519841Y-111816921D01*
X134373398Y-111286342D01*
X134317722Y-110970637D01*
X134317689Y-110963871D01*
X134284205Y-110823434D01*
X134193077Y-110763420D01*
X134913291Y-110763420D01*
X134941327Y-111129084D01*
X135001967Y-111377768D01*
X135264572Y-112231430D01*
X135583862Y-113030143D01*
X135918293Y-113678474D01*
X135932602Y-113697172D01*
X136226323Y-114080990D01*
X136258263Y-114108869D01*
X136590015Y-114365912D01*
X136800302Y-114474551D01*
X136915096Y-114407627D01*
X137240531Y-114142555D01*
X137712205Y-113722341D01*
X138272507Y-113196978D01*
X139610763Y-111913908D01*
X139307526Y-110630882D01*
X139126859Y-109877356D01*
X138956411Y-109343706D01*
X138749863Y-109080457D01*
X138440827Y-109053422D01*
X137962913Y-109228416D01*
X137249733Y-109571254D01*
X136956941Y-109712876D01*
X136267800Y-110039101D01*
X135686191Y-110305113D01*
X135314250Y-110463810D01*
X135106886Y-110554921D01*
X134913291Y-110763420D01*
X134193077Y-110763420D01*
X134146495Y-110732743D01*
X133843647Y-110681148D01*
X133314750Y-110658001D01*
X132498893Y-110652651D01*
X130680064Y-110652651D01*
X130607423Y-111124175D01*
X130579559Y-111305048D01*
X130559788Y-111424283D01*
X130453582Y-111978311D01*
X130300874Y-112705840D01*
X130127667Y-113481630D01*
X130055852Y-113805672D01*
X129931550Y-114451417D01*
X129865291Y-114930636D01*
X128358740Y-114930636D01*
X128808855Y-114799796D01*
X129103793Y-114641281D01*
X129274749Y-114412323D01*
X129409090Y-114053826D01*
X129547559Y-113567930D01*
X129698625Y-112905265D01*
X129827302Y-112216375D01*
X129918570Y-111592324D01*
X129957407Y-111124175D01*
X129928794Y-110902992D01*
X129780650Y-110884588D01*
X129379098Y-110944572D01*
X128834844Y-111080895D01*
X128747829Y-111105436D01*
X128048068Y-111273521D01*
X127194465Y-111444023D01*
X126352136Y-111583513D01*
X124854820Y-111799670D01*
X124780525Y-112089458D01*
X124656186Y-112574448D01*
X124612322Y-112734841D01*
X124399872Y-113369545D01*
X124171305Y-113900494D01*
X123885058Y-114451762D01*
X119452663Y-114451762D01*
X119190076Y-114400121D01*
X118806115Y-114241711D01*
X118363254Y-113951537D01*
X117807044Y-115081360D01*
X117567812Y-115525704D01*
X117225800Y-116034533D01*
X116774282Y-116574374D01*
X116159826Y-117208128D01*
X115329004Y-117998698D01*
X115138205Y-118178015D01*
X114039237Y-119280856D01*
X113033678Y-120403710D01*
X112218828Y-121438953D01*
X111815075Y-121993600D01*
X111191193Y-122800761D01*
X110621852Y-123441008D01*
X110023468Y-123996340D01*
X109312457Y-124548757D01*
X108405235Y-125180259D01*
X108056470Y-125415371D01*
X107493528Y-125780476D01*
X107089681Y-125996326D01*
X106757780Y-126094405D01*
X106410678Y-126106194D01*
X105961227Y-126063177D01*
X105050385Y-126042156D01*
X104212071Y-126230892D01*
X103746295Y-126356063D01*
X102842153Y-126418113D01*
X101941190Y-126288638D01*
X101149853Y-125987962D01*
X100574591Y-125536410D01*
X100527222Y-125472663D01*
X100439896Y-125226325D01*
X100453167Y-124843385D01*
X100566421Y-124225418D01*
X100786316Y-123189227D01*
X100223362Y-122548058D01*
X100184866Y-122503491D01*
X99831057Y-121948294D01*
X99762527Y-121500463D01*
X100297198Y-121500463D01*
X100336403Y-121730731D01*
X100479920Y-121949557D01*
X100713786Y-122217402D01*
X100800067Y-122319617D01*
X101166108Y-122949991D01*
X101262507Y-123651610D01*
X101104737Y-124515433D01*
X101047652Y-124881384D01*
X101180526Y-125265704D01*
X101589211Y-125550817D01*
X102309334Y-125773943D01*
X102572216Y-125835257D01*
X102955802Y-125914908D01*
X103231016Y-125921182D01*
X103545399Y-125846318D01*
X104046490Y-125682554D01*
X104717361Y-125534930D01*
X105714214Y-125518388D01*
X105726119Y-125519624D01*
X106226995Y-125548467D01*
X106633774Y-125488952D01*
X107073436Y-125304883D01*
X107672962Y-124960067D01*
X108339565Y-124534001D01*
X109262970Y-123841584D01*
X110123447Y-123044958D01*
X110993232Y-122074820D01*
X111944561Y-120861867D01*
X112250647Y-120461968D01*
X113064487Y-119476448D01*
X113849141Y-118629586D01*
X114531439Y-118002268D01*
X115526855Y-117122374D01*
X116390923Y-116198384D01*
X117048994Y-115308628D01*
X117468208Y-114497768D01*
X117615702Y-113810464D01*
X117613588Y-113721249D01*
X117475597Y-113208347D01*
X117074129Y-112721354D01*
X117018131Y-112669532D01*
X116557113Y-112303376D01*
X116124776Y-112125007D01*
X115640602Y-112134239D01*
X115024074Y-112330888D01*
X114194673Y-112714772D01*
X113858266Y-112878391D01*
X113232945Y-113164640D01*
X112749353Y-113362406D01*
X112491256Y-113436213D01*
X112276063Y-113326394D01*
X111913199Y-113012640D01*
X111493470Y-112566435D01*
X111087713Y-112116716D01*
X110756744Y-111841711D01*
X110431006Y-111722479D01*
X110003540Y-111696572D01*
X109882910Y-111698064D01*
X109505442Y-111742782D01*
X109160614Y-111886896D01*
X108756458Y-112180199D01*
X108201005Y-112672483D01*
X107811902Y-113025764D01*
X107400411Y-113364340D01*
X107093824Y-113534088D01*
X106805617Y-113577765D01*
X106449267Y-113538127D01*
X106219687Y-113507390D01*
X105903838Y-113515886D01*
X105590056Y-113632284D01*
X105189275Y-113895725D01*
X104612429Y-114345350D01*
X104508460Y-114427090D01*
X103848222Y-114894265D01*
X103192312Y-115286017D01*
X102668761Y-115524663D01*
X101871832Y-115786401D01*
X101920482Y-117090416D01*
X101928762Y-117334077D01*
X101926712Y-117958104D01*
X101853416Y-118421561D01*
X101674497Y-118867324D01*
X101355580Y-119438268D01*
X100945072Y-120136394D01*
X100587570Y-120763755D01*
X100376266Y-121198291D01*
X100297198Y-121500463D01*
X99762527Y-121500463D01*
X99744641Y-121383581D01*
X99929874Y-120743742D01*
X100391011Y-119963170D01*
X100452524Y-119873211D01*
X100941749Y-119082814D01*
X101224969Y-118413664D01*
X101337641Y-117751366D01*
X101315226Y-116981526D01*
X101302061Y-116823190D01*
X101298438Y-116067660D01*
X101446959Y-115562230D01*
X101783655Y-115238524D01*
X102344556Y-115028166D01*
X102850732Y-114823853D01*
X103550871Y-114411382D01*
X104307448Y-113858140D01*
X104801779Y-113467229D01*
X105245264Y-113151981D01*
X105577156Y-112991318D01*
X105883042Y-112946460D01*
X106248508Y-112978626D01*
X106578530Y-113011803D01*
X106930676Y-112970511D01*
X107271076Y-112781377D01*
X107727275Y-112393973D01*
X108482791Y-111710757D01*
X105337979Y-111696487D01*
X104709047Y-110944082D01*
X105786216Y-110944082D01*
X105786228Y-110945558D01*
X105861212Y-111038371D01*
X106111332Y-111103790D01*
X106579740Y-111145704D01*
X107309589Y-111168001D01*
X108344029Y-111174569D01*
X110901843Y-111174569D01*
X111447723Y-111703657D01*
X111993603Y-112232744D01*
X111849163Y-111176580D01*
X111789215Y-110685374D01*
X111746556Y-110191548D01*
X111746527Y-110059189D01*
X112397179Y-110059189D01*
X112404212Y-110478165D01*
X112453323Y-111179679D01*
X112471749Y-111406829D01*
X112533632Y-112039271D01*
X112559279Y-112232744D01*
X112594457Y-112498108D01*
X112643350Y-112696544D01*
X112667218Y-112701443D01*
X112922218Y-112625815D01*
X113384378Y-112430919D01*
X113974997Y-112149108D01*
X114006531Y-112133417D01*
X114715650Y-111820758D01*
X115361325Y-111603758D01*
X115825162Y-111522514D01*
X116178263Y-111572935D01*
X116877121Y-111867599D01*
X117641983Y-112386813D01*
X118399229Y-113085867D01*
X118513998Y-113203923D01*
X118929941Y-113583929D01*
X119241035Y-113810464D01*
X119269092Y-113830895D01*
X119479437Y-113896857D01*
X119996405Y-113984544D01*
X120704939Y-114062860D01*
X121516329Y-114120376D01*
X123415621Y-114219089D01*
X123735700Y-113495351D01*
X123803860Y-113335198D01*
X124020585Y-112748179D01*
X124158309Y-112258966D01*
X124189089Y-112089458D01*
X124174352Y-111845035D01*
X123978002Y-111717962D01*
X123518267Y-111627576D01*
X123029178Y-111511863D01*
X122333015Y-111287631D01*
X121631299Y-111013445D01*
X121071364Y-110793036D01*
X120409418Y-110607309D01*
X119646874Y-110485788D01*
X118660188Y-110403094D01*
X117778403Y-110344056D01*
X116619803Y-110256943D01*
X115502889Y-110163374D01*
X114488770Y-110069101D01*
X113638554Y-109979877D01*
X113013350Y-109901454D01*
X112674267Y-109839586D01*
X112551540Y-109812956D01*
X112442773Y-109858778D01*
X112397179Y-110059189D01*
X111746527Y-110059189D01*
X111746497Y-109924359D01*
X111682454Y-109835557D01*
X111358300Y-109632175D01*
X110820463Y-109369535D01*
X110135531Y-109082434D01*
X109733243Y-108923705D01*
X108928806Y-108598410D01*
X108212069Y-108299151D01*
X107701682Y-108075040D01*
X107534235Y-107998709D01*
X107126894Y-107841051D01*
X106904991Y-107835936D01*
X106775298Y-107973108D01*
X106758508Y-108004742D01*
X106603924Y-108367164D01*
X106400752Y-108917550D01*
X106183194Y-109553167D01*
X105985451Y-110171283D01*
X105841725Y-110669166D01*
X105786216Y-110944082D01*
X104709047Y-110944082D01*
X104689864Y-110921133D01*
X104236070Y-110454585D01*
X103607325Y-110058319D01*
X102833577Y-109846911D01*
X101822555Y-109783758D01*
X101000868Y-109697187D01*
X100018699Y-109334468D01*
X99133983Y-108886149D01*
X99216596Y-108263380D01*
X99763270Y-108263380D01*
X99832762Y-108518165D01*
X100170386Y-108788190D01*
X100703611Y-109024099D01*
X101354672Y-109192005D01*
X102045805Y-109258020D01*
X102285641Y-109265027D01*
X102979040Y-109330895D01*
X103562662Y-109442499D01*
X103588884Y-109450007D01*
X104183220Y-109702305D01*
X104714890Y-110047312D01*
X105220123Y-110472438D01*
X105776745Y-108953298D01*
X106333368Y-107434158D01*
X105680197Y-106912240D01*
X105603544Y-106850653D01*
X105113798Y-106449482D01*
X104498707Y-105937293D01*
X104486867Y-105927306D01*
X105438607Y-105927306D01*
X105495885Y-106025610D01*
X105801189Y-106283095D01*
X106310839Y-106626088D01*
X106957829Y-107013195D01*
X107675153Y-107403022D01*
X107739052Y-107434158D01*
X108395805Y-107754175D01*
X108434813Y-107771860D01*
X109216928Y-108114762D01*
X110020453Y-108449390D01*
X110677336Y-108705661D01*
X111654074Y-109064351D01*
X111692005Y-108701443D01*
X112311237Y-108701443D01*
X112330270Y-108989509D01*
X112368798Y-109061918D01*
X112486957Y-109162949D01*
X112709483Y-109249759D01*
X113076834Y-109328713D01*
X113629469Y-109406177D01*
X114407847Y-109488515D01*
X115452425Y-109582094D01*
X116803664Y-109693277D01*
X116843676Y-109696495D01*
X117868971Y-109778647D01*
X118767535Y-109850079D01*
X119484348Y-109906461D01*
X119964389Y-109943464D01*
X120152637Y-109956761D01*
X120168857Y-109917986D01*
X120198137Y-109617371D01*
X120218382Y-109083953D01*
X120225942Y-108395475D01*
X120225942Y-108269050D01*
X120747859Y-108269050D01*
X120752707Y-108395475D01*
X120778412Y-109065818D01*
X120913976Y-109661188D01*
X121213403Y-110085530D01*
X121735479Y-110420151D01*
X122538992Y-110746358D01*
X123074390Y-110915960D01*
X124266692Y-111126424D01*
X125574640Y-111130411D01*
X127051516Y-110925902D01*
X128750599Y-110510878D01*
X128852552Y-110481670D01*
X129425587Y-110299159D01*
X129766837Y-110121335D01*
X129969789Y-109880079D01*
X130127931Y-109507269D01*
X130131364Y-109497676D01*
X130268901Y-108861552D01*
X130342190Y-107973697D01*
X130352796Y-106922268D01*
X130302287Y-105795421D01*
X130192228Y-104681312D01*
X130024185Y-103668098D01*
X129707695Y-102164856D01*
X130401483Y-102164856D01*
X130448321Y-102659141D01*
X130544130Y-103348961D01*
X130680086Y-104161125D01*
X130916421Y-105936519D01*
X130932434Y-106922268D01*
X130946285Y-107774928D01*
X130730846Y-109565322D01*
X130624806Y-110130733D01*
X132514757Y-110127064D01*
X133216115Y-110113150D01*
X134262782Y-110021352D01*
X135217705Y-109819416D01*
X136170635Y-109479180D01*
X137211327Y-108972481D01*
X138022423Y-108505532D01*
X139226891Y-108505532D01*
X139296290Y-108748588D01*
X139455588Y-109160629D01*
X139583447Y-109514146D01*
X139778597Y-110183164D01*
X139943144Y-110883574D01*
X139962181Y-110977629D01*
X140087722Y-111526348D01*
X140216726Y-111826220D01*
X140340371Y-111913908D01*
X140405720Y-111960253D01*
X140711232Y-112011452D01*
X140870656Y-112021169D01*
X141130185Y-111978649D01*
X141382675Y-111810228D01*
X141695950Y-111462143D01*
X142137837Y-110880630D01*
X142358454Y-110567604D01*
X142865770Y-109746653D01*
X143329092Y-108869737D01*
X143708929Y-108021681D01*
X143965792Y-107287312D01*
X144060188Y-106751453D01*
X144040247Y-106582105D01*
X143826441Y-106203590D01*
X143336145Y-105781024D01*
X142984715Y-105533199D01*
X142691590Y-105378665D01*
X142488448Y-105395671D01*
X142269104Y-105562467D01*
X142049995Y-105788888D01*
X141670668Y-106236694D01*
X141262612Y-106761892D01*
X140931188Y-107164404D01*
X140862016Y-107233828D01*
X140409226Y-107688267D01*
X139937529Y-108053404D01*
X139750581Y-108165978D01*
X139393110Y-108381938D01*
X139230165Y-108481493D01*
X139226891Y-108505532D01*
X138022423Y-108505532D01*
X138429534Y-108271158D01*
X140145805Y-107233828D01*
X140087939Y-106116185D01*
X140026679Y-105408083D01*
X139785701Y-104014008D01*
X139406028Y-102610102D01*
X138918142Y-101285708D01*
X138352521Y-100130168D01*
X137739646Y-99232827D01*
X137276089Y-98686290D01*
X134796563Y-99771030D01*
X134405143Y-99942783D01*
X133005556Y-100568036D01*
X131917269Y-101075009D01*
X131129482Y-101469044D01*
X131045688Y-101517232D01*
X130631395Y-101755482D01*
X130412211Y-101939666D01*
X130401483Y-102164856D01*
X129707695Y-102164856D01*
X129707448Y-102163682D01*
X127723344Y-103269913D01*
X126955532Y-103678091D01*
X126258739Y-104012588D01*
X126100033Y-104088775D01*
X125360142Y-104398115D01*
X124826264Y-104565676D01*
X124659508Y-104605747D01*
X123850437Y-104901934D01*
X122937548Y-105360095D01*
X122038703Y-105915922D01*
X121271767Y-106505104D01*
X121144321Y-106620492D01*
X120925260Y-106869199D01*
X120806433Y-107158612D01*
X120757435Y-107591104D01*
X120747859Y-108269050D01*
X120225942Y-108269050D01*
X120225942Y-106834189D01*
X119670710Y-106547068D01*
X119047951Y-106263311D01*
X118208170Y-105951891D01*
X117340295Y-105686746D01*
X116558418Y-105502286D01*
X115976634Y-105432922D01*
X115398554Y-105481068D01*
X114695946Y-105617552D01*
X113981387Y-105814328D01*
X113522476Y-105979089D01*
X113343859Y-106043217D01*
X112872341Y-106276039D01*
X112655815Y-106484613D01*
X112655625Y-106485211D01*
X112536852Y-106964942D01*
X112429729Y-107572199D01*
X112349457Y-108190019D01*
X112311237Y-108701443D01*
X111692005Y-108701443D01*
X111761887Y-108032850D01*
X111821327Y-107595007D01*
X111955965Y-106928880D01*
X112108653Y-106429454D01*
X112141958Y-106348488D01*
X112250376Y-105979089D01*
X112190937Y-105672734D01*
X111939323Y-105261706D01*
X111466862Y-104644498D01*
X110894175Y-103999915D01*
X110320953Y-103433676D01*
X109845897Y-103050056D01*
X109589865Y-102905582D01*
X109323077Y-102895494D01*
X108961216Y-103091172D01*
X108698291Y-103271040D01*
X108203677Y-103635786D01*
X107615844Y-104088260D01*
X106996512Y-104578769D01*
X106407402Y-105057620D01*
X105910234Y-105475122D01*
X105566729Y-105781582D01*
X105438607Y-105927306D01*
X104486867Y-105927306D01*
X103872873Y-105409382D01*
X102718720Y-104428441D01*
X101399778Y-105717824D01*
X101031480Y-106091361D01*
X100513831Y-106669574D01*
X100140112Y-107156570D01*
X99967730Y-107481641D01*
X99873547Y-107858843D01*
X99763270Y-108263380D01*
X99216596Y-108263380D01*
X99250521Y-108007640D01*
X99275361Y-107811637D01*
X99305718Y-107390761D01*
X99252416Y-107220245D01*
X99102220Y-107230759D01*
X98896812Y-107271939D01*
X98586304Y-107118012D01*
X98394430Y-106683437D01*
X98332199Y-106058517D01*
X98827311Y-106058517D01*
X98858368Y-106320916D01*
X98975553Y-106548392D01*
X99191322Y-106564185D01*
X99622622Y-106388390D01*
X100167267Y-106035212D01*
X100757923Y-105549650D01*
X101327260Y-104976704D01*
X102209265Y-103987116D01*
X102213341Y-103618647D01*
X102828681Y-103618647D01*
X103747508Y-104526060D01*
X103809398Y-104586749D01*
X104274460Y-105015634D01*
X104651022Y-105318634D01*
X104862557Y-105433473D01*
X104948934Y-105401347D01*
X105274129Y-105193317D01*
X105755868Y-104834706D01*
X106325044Y-104375509D01*
X106552771Y-104186855D01*
X107224042Y-103645938D01*
X107854167Y-103157349D01*
X108331654Y-102808173D01*
X108885593Y-102427053D01*
X110129061Y-102427053D01*
X110312596Y-102643585D01*
X110732122Y-103023364D01*
X111040127Y-103313616D01*
X111632016Y-103945231D01*
X112139831Y-104568536D01*
X112232564Y-104693903D01*
X112571308Y-105103945D01*
X112886188Y-105328910D01*
X113265622Y-105387352D01*
X113798031Y-105297825D01*
X114571832Y-105078884D01*
X114674800Y-105050718D01*
X117233594Y-105050718D01*
X118164357Y-105323316D01*
X118489589Y-105426195D01*
X119196071Y-105687620D01*
X119784302Y-105949626D01*
X119979122Y-106047442D01*
X120369021Y-106227944D01*
X120567179Y-106296266D01*
X120621178Y-106271500D01*
X120883951Y-106083887D01*
X121263707Y-105773929D01*
X121666510Y-105471633D01*
X122296485Y-105066777D01*
X122959297Y-104693671D01*
X123002988Y-104670989D01*
X123533274Y-104379540D01*
X123909504Y-104143673D01*
X124052695Y-104012588D01*
X124019813Y-103966203D01*
X123755898Y-103810738D01*
X123313955Y-103625553D01*
X123013995Y-103515557D01*
X122319838Y-103260703D01*
X121631623Y-103007730D01*
X120688675Y-102660851D01*
X119543952Y-103505161D01*
X119457887Y-103568424D01*
X119051462Y-103860071D01*
X118828005Y-104020422D01*
X118241851Y-104424618D01*
X117816411Y-104700094D01*
X117233594Y-105050718D01*
X114674800Y-105050718D01*
X115062841Y-104944573D01*
X115680178Y-104809384D01*
X116122301Y-104751504D01*
X116169960Y-104748052D01*
X116524673Y-104659045D01*
X116974285Y-104482800D01*
X117435066Y-104262261D01*
X117823286Y-104040370D01*
X118055214Y-103860071D01*
X118047122Y-103764307D01*
X118021678Y-103758205D01*
X117721210Y-103691350D01*
X117195994Y-103577596D01*
X116541750Y-103437710D01*
X116136528Y-103340857D01*
X115187904Y-103023923D01*
X114454078Y-102644042D01*
X114258180Y-102514819D01*
X113881887Y-102310214D01*
X113491402Y-102195423D01*
X112975562Y-102145010D01*
X112223202Y-102133535D01*
X112010418Y-102134477D01*
X111294223Y-102152626D01*
X110704470Y-102189172D01*
X110351884Y-102237937D01*
X110351078Y-102238153D01*
X110188237Y-102298801D01*
X110151796Y-102312373D01*
X110129061Y-102427053D01*
X108885593Y-102427053D01*
X109072001Y-102298801D01*
X109002834Y-102061662D01*
X114914099Y-102061662D01*
X114973579Y-102338371D01*
X115092743Y-102405294D01*
X115505380Y-102555486D01*
X116122770Y-102739400D01*
X116862956Y-102931315D01*
X117356566Y-103048604D01*
X118022805Y-103199300D01*
X118513330Y-103300707D01*
X118747174Y-103335459D01*
X118864110Y-103292095D01*
X119208305Y-103086388D01*
X119653439Y-102770385D01*
X120385731Y-102214980D01*
X120392822Y-100463886D01*
X120394806Y-99974099D01*
X120929643Y-99974099D01*
X120954263Y-100994391D01*
X121008818Y-102209418D01*
X122487585Y-102744709D01*
X122735786Y-102835785D01*
X123468415Y-103117668D01*
X124102571Y-103379325D01*
X124523124Y-103573859D01*
X124580458Y-103603505D01*
X125008845Y-103790599D01*
X125306001Y-103866333D01*
X125418604Y-103838895D01*
X125798855Y-103674795D01*
X126351990Y-103396468D01*
X127009132Y-103043011D01*
X127701405Y-102653524D01*
X128359932Y-102267104D01*
X128915836Y-101922850D01*
X129300239Y-101659860D01*
X129444265Y-101517232D01*
X129439782Y-101490600D01*
X129312255Y-101219570D01*
X129044447Y-100763541D01*
X128684154Y-100205027D01*
X128241772Y-99519165D01*
X127796435Y-98784266D01*
X127453538Y-98173081D01*
X127250859Y-97820637D01*
X126969199Y-97457472D01*
X126766515Y-97361450D01*
X126532665Y-97391915D01*
X125995358Y-97321074D01*
X125409628Y-97160605D01*
X127543494Y-97160605D01*
X128045665Y-98050405D01*
X128367267Y-98601237D01*
X128815730Y-99338165D01*
X129258122Y-100039153D01*
X129314488Y-100126824D01*
X129646055Y-100663384D01*
X129879889Y-101077299D01*
X129968407Y-101285103D01*
X130009954Y-101401305D01*
X130238946Y-101369292D01*
X130682807Y-101082335D01*
X130939269Y-100929854D01*
X131476430Y-100655709D01*
X132218731Y-100300537D01*
X133105302Y-99893385D01*
X134075273Y-99463305D01*
X136942593Y-98214256D01*
X137828714Y-98214256D01*
X137868159Y-98328319D01*
X138063433Y-98654878D01*
X138372644Y-99109925D01*
X138620030Y-99469804D01*
X138989679Y-100047199D01*
X139251571Y-100504519D01*
X139423234Y-100874541D01*
X139785400Y-101836669D01*
X140116549Y-102931844D01*
X140375340Y-104015455D01*
X140520429Y-104942887D01*
X140522345Y-104963325D01*
X140594398Y-105567475D01*
X140676142Y-106016163D01*
X140750251Y-106213595D01*
X140931372Y-106176502D01*
X141225762Y-105896931D01*
X141570722Y-105434995D01*
X141918650Y-104862547D01*
X142221946Y-104251440D01*
X142433008Y-103673525D01*
X142547102Y-103168394D01*
X142680986Y-102180707D01*
X142753150Y-101061879D01*
X142763688Y-99906642D01*
X142712694Y-98809725D01*
X142600264Y-97865859D01*
X142426493Y-97169774D01*
X142296087Y-96839602D01*
X142088915Y-96369119D01*
X141941032Y-96099635D01*
X141936551Y-96094406D01*
X141749344Y-96073635D01*
X141354072Y-96215022D01*
X140724481Y-96530168D01*
X139834316Y-97030678D01*
X139705946Y-97105191D01*
X138988412Y-97523376D01*
X138397567Y-97870509D01*
X137991603Y-98112250D01*
X137878593Y-98183020D01*
X137828714Y-98214256D01*
X136942593Y-98214256D01*
X137014298Y-98183020D01*
X136994126Y-97502425D01*
X136880733Y-96763562D01*
X136594535Y-95857854D01*
X136186919Y-94943106D01*
X135708680Y-94151726D01*
X135560041Y-93963714D01*
X135070917Y-93533456D01*
X134419214Y-93215903D01*
X133826727Y-93060711D01*
X135671065Y-93060711D01*
X136043854Y-93584244D01*
X136235547Y-93884406D01*
X136559512Y-94467973D01*
X136870609Y-95099372D01*
X137063228Y-95546913D01*
X137332783Y-96257708D01*
X137518208Y-96850001D01*
X137711839Y-97609035D01*
X141408364Y-95468835D01*
X142341439Y-95468835D01*
X142752873Y-96493277D01*
X142930357Y-96986491D01*
X143278551Y-98522860D01*
X143380540Y-99906642D01*
X143403681Y-100220623D01*
X143303311Y-101999881D01*
X142975006Y-103780733D01*
X142755394Y-104650596D01*
X143496283Y-105216007D01*
X143790927Y-105434642D01*
X144155828Y-105684242D01*
X144341419Y-105781418D01*
X144349577Y-105777986D01*
X144384694Y-105564288D01*
X144381705Y-105041493D01*
X144342797Y-104241555D01*
X144270152Y-103196431D01*
X144165956Y-101938076D01*
X144032393Y-100498447D01*
X143871648Y-98909500D01*
X143871420Y-98907332D01*
X143730936Y-97569933D01*
X143618428Y-96543556D01*
X143523280Y-95793478D01*
X143434874Y-95284977D01*
X143342594Y-94983327D01*
X143235823Y-94853806D01*
X143103943Y-94861690D01*
X142936337Y-94972255D01*
X142722389Y-95150778D01*
X142341439Y-95468835D01*
X141408364Y-95468835D01*
X141537585Y-95394019D01*
X141588971Y-94031844D01*
X141588492Y-93277805D01*
X141533621Y-92611335D01*
X141433697Y-92170751D01*
X141391281Y-92094862D01*
X141117348Y-91775001D01*
X140683277Y-91361324D01*
X140170499Y-90921601D01*
X139660447Y-90523606D01*
X139234554Y-90235110D01*
X138974250Y-90123884D01*
X138973082Y-90123955D01*
X138811372Y-90241664D01*
X138476516Y-90540750D01*
X138039493Y-90957883D01*
X137611835Y-91366780D01*
X136980169Y-91946136D01*
X136429668Y-92426297D01*
X135671065Y-93060711D01*
X133826727Y-93060711D01*
X133543892Y-92986627D01*
X132383908Y-92821200D01*
X132336421Y-92816180D01*
X131816061Y-92779839D01*
X131388069Y-92815864D01*
X131003503Y-92959496D01*
X130613421Y-93245975D01*
X130168878Y-93710544D01*
X129620933Y-94388442D01*
X128920644Y-95314911D01*
X127543494Y-97160605D01*
X125409628Y-97160605D01*
X125327705Y-97138161D01*
X124635620Y-96874140D01*
X124025015Y-96559973D01*
X123206886Y-96056573D01*
X122162904Y-97172594D01*
X121888001Y-97473567D01*
X121430828Y-98048349D01*
X121138397Y-98594450D01*
X121107935Y-98712793D01*
X120981178Y-99205243D01*
X120929643Y-99974099D01*
X120394806Y-99974099D01*
X120399914Y-98712793D01*
X118290062Y-98985119D01*
X118282030Y-98986156D01*
X118004533Y-99022874D01*
X117399689Y-99102906D01*
X116793764Y-99199579D01*
X116396029Y-99299806D01*
X116138261Y-99427219D01*
X115952234Y-99605453D01*
X115769722Y-99858137D01*
X115480712Y-100346502D01*
X115197331Y-100973311D01*
X114998572Y-101575837D01*
X114914099Y-102061662D01*
X109002834Y-102061662D01*
X108806060Y-101387027D01*
X108715581Y-101093925D01*
X108417882Y-100338815D01*
X108114730Y-99859772D01*
X107826383Y-99691849D01*
X107788725Y-99692104D01*
X107315352Y-99722717D01*
X106651800Y-99795843D01*
X105874588Y-99899476D01*
X105060236Y-100021611D01*
X104285265Y-100150243D01*
X103626192Y-100273366D01*
X103159539Y-100378975D01*
X102961825Y-100455064D01*
X102940501Y-100508138D01*
X102885616Y-100860286D01*
X102846790Y-101433622D01*
X102832780Y-102068872D01*
X102831345Y-102133937D01*
X102828681Y-103618647D01*
X102213341Y-103618647D01*
X102228210Y-102274678D01*
X102229719Y-102068872D01*
X102212688Y-101239306D01*
X102155606Y-100734922D01*
X102059494Y-100566061D01*
X101812011Y-100613173D01*
X101337726Y-100805730D01*
X100791277Y-101100204D01*
X100249842Y-101446116D01*
X99790597Y-101792986D01*
X99490718Y-102090333D01*
X99427384Y-102287677D01*
X99436335Y-102371786D01*
X99399648Y-102741883D01*
X99305792Y-103324423D01*
X99166892Y-104037952D01*
X99090373Y-104413780D01*
X98955397Y-105135587D01*
X98862125Y-105717064D01*
X98827311Y-106058517D01*
X98332199Y-106058517D01*
X98326438Y-106000660D01*
X98387575Y-105102126D01*
X98583086Y-104020280D01*
X98597633Y-103955694D01*
X98717893Y-103357793D01*
X98782230Y-102913751D01*
X98776975Y-102715557D01*
X98764571Y-102710844D01*
X98546080Y-102788493D01*
X98130285Y-103012485D01*
X97594426Y-103341908D01*
X97511695Y-103394649D01*
X96955802Y-103712152D01*
X96501577Y-103912453D01*
X96240551Y-103954160D01*
X96233953Y-103951916D01*
X95968166Y-104039838D01*
X95524157Y-104392744D01*
X94924507Y-104992811D01*
X94882630Y-105037556D01*
X94263351Y-105653025D01*
X93774264Y-106004287D01*
X93347228Y-106109151D01*
X92914102Y-105985432D01*
X92406747Y-105650939D01*
X92361620Y-105616683D01*
X92058728Y-105412980D01*
X91741843Y-105276635D01*
X91327496Y-105189027D01*
X90732216Y-105131532D01*
X89872534Y-105085528D01*
X87963647Y-104998542D01*
X87577854Y-104309483D01*
X87500145Y-104182027D01*
X87048238Y-103624554D01*
X86529206Y-103171595D01*
X86154660Y-102890087D01*
X85873523Y-102553918D01*
X85835809Y-102298932D01*
X86301284Y-102298932D01*
X86330085Y-102361907D01*
X86578123Y-102575576D01*
X86997564Y-102824083D01*
X87497945Y-103162951D01*
X88000096Y-103827961D01*
X88306349Y-104476624D01*
X90069331Y-104476624D01*
X90414012Y-104476984D01*
X91108508Y-104487840D01*
X91578640Y-104529300D01*
X91913727Y-104621837D01*
X92203090Y-104785924D01*
X92536049Y-105042035D01*
X92802614Y-105247466D01*
X93182084Y-105506277D01*
X93398096Y-105607446D01*
X93454742Y-105582495D01*
X93722330Y-105367435D01*
X94133684Y-104979509D01*
X94625929Y-104476624D01*
X94766602Y-104329470D01*
X95357371Y-103762508D01*
X95799520Y-103444858D01*
X96134017Y-103345802D01*
X96604498Y-103226529D01*
X97304870Y-102864518D01*
X98209395Y-102269094D01*
X98245936Y-102097975D01*
X98052015Y-101788424D01*
X97775665Y-101306306D01*
X97771086Y-100845326D01*
X98345778Y-100845326D01*
X98380901Y-101187348D01*
X98534020Y-101490323D01*
X98822382Y-101570258D01*
X99276757Y-101404123D01*
X99932416Y-100987372D01*
X100270500Y-100766606D01*
X100985323Y-100372876D01*
X101647044Y-100084656D01*
X102015581Y-99945518D01*
X102337809Y-99765882D01*
X102596944Y-99500245D01*
X102614488Y-99472127D01*
X103344467Y-99472127D01*
X103351134Y-99634901D01*
X103472888Y-99669535D01*
X103541350Y-99663047D01*
X103941496Y-99612778D01*
X104549867Y-99527614D01*
X105264298Y-99421690D01*
X105443238Y-99395082D01*
X105815578Y-99345678D01*
X108601955Y-99345678D01*
X108918347Y-100000534D01*
X108951355Y-100070931D01*
X109192376Y-100698260D01*
X109356551Y-101304705D01*
X109408583Y-101568355D01*
X109519048Y-101861671D01*
X109726608Y-101901082D01*
X110135531Y-101745604D01*
X110475161Y-101663118D01*
X111087463Y-101595554D01*
X111836399Y-101557466D01*
X112610562Y-101551788D01*
X113298549Y-101581454D01*
X113788955Y-101649397D01*
X113949355Y-101677782D01*
X114138860Y-101635420D01*
X114323735Y-101444307D01*
X114552594Y-101048025D01*
X114874052Y-100390158D01*
X115524218Y-99022874D01*
X114445281Y-97878858D01*
X113820522Y-97263500D01*
X113323205Y-96871722D01*
X112992120Y-96734843D01*
X112683830Y-96792134D01*
X112100827Y-97012816D01*
X111392368Y-97355589D01*
X110646410Y-97773674D01*
X109950907Y-98220290D01*
X109393814Y-98648656D01*
X108601955Y-99345678D01*
X105815578Y-99345678D01*
X106220959Y-99291890D01*
X106922325Y-99216461D01*
X107413917Y-99183573D01*
X107475142Y-99181785D01*
X108029270Y-99069485D01*
X108418699Y-98745937D01*
X108545026Y-98603099D01*
X109074593Y-98143485D01*
X109792747Y-97636006D01*
X110601475Y-97142069D01*
X111402764Y-96723080D01*
X112098602Y-96440444D01*
X113088276Y-96125939D01*
X113094821Y-95343062D01*
X113095008Y-95334815D01*
X113660416Y-95334815D01*
X113819297Y-96025827D01*
X114218657Y-96717998D01*
X114886300Y-97502124D01*
X115000419Y-97623662D01*
X115403990Y-98049486D01*
X115729541Y-98341676D01*
X116047735Y-98516310D01*
X116429234Y-98589469D01*
X116944701Y-98577231D01*
X117664798Y-98495676D01*
X118660188Y-98360883D01*
X120486900Y-98114417D01*
X121639911Y-96859219D01*
X122792921Y-95604021D01*
X122200916Y-94425300D01*
X122046210Y-94131697D01*
X121278919Y-92988288D01*
X120389133Y-92090745D01*
X119424626Y-91489585D01*
X119312168Y-91442813D01*
X118429139Y-91236758D01*
X117503149Y-91252940D01*
X117328633Y-91298825D01*
X116647368Y-91477948D01*
X115974964Y-91898371D01*
X115877171Y-91987153D01*
X115325204Y-92417890D01*
X114745805Y-92790487D01*
X114718892Y-92805563D01*
X114277571Y-93108107D01*
X114167348Y-93261419D01*
X114015025Y-93473290D01*
X113827093Y-94043136D01*
X113714211Y-94554166D01*
X113660416Y-95334815D01*
X113095008Y-95334815D01*
X113097750Y-95213969D01*
X113155472Y-94510803D01*
X113261685Y-93868689D01*
X113297449Y-93701998D01*
X113333325Y-93261419D01*
X113214041Y-93047363D01*
X113052326Y-92970837D01*
X112523711Y-92809635D01*
X111780829Y-92643160D01*
X110910659Y-92487856D01*
X110000178Y-92360163D01*
X109136364Y-92276525D01*
X108614673Y-92243293D01*
X108042245Y-92228053D01*
X107663667Y-92267692D01*
X107386627Y-92375375D01*
X107118810Y-92564268D01*
X106674770Y-92965100D01*
X105955981Y-93813234D01*
X105363928Y-94755764D01*
X104988142Y-95662499D01*
X104922350Y-95874458D01*
X104662969Y-96567042D01*
X104448166Y-97067434D01*
X104315239Y-97377092D01*
X103935613Y-98170117D01*
X103738294Y-98561592D01*
X103468363Y-99131071D01*
X103344467Y-99472127D01*
X102614488Y-99472127D01*
X102863814Y-99072524D01*
X103209248Y-98406642D01*
X103369975Y-98083987D01*
X103647462Y-97460947D01*
X103726280Y-97067434D01*
X103586130Y-96850555D01*
X103206711Y-96757418D01*
X102567722Y-96735131D01*
X102285775Y-96729059D01*
X101725512Y-96692514D01*
X101344327Y-96635103D01*
X101321234Y-96629027D01*
X101108150Y-96615299D01*
X101033081Y-96780943D01*
X101054494Y-97208061D01*
X101056101Y-97225084D01*
X101062650Y-97396941D01*
X101068325Y-97545856D01*
X101004138Y-97810291D01*
X100816631Y-98089121D01*
X100458891Y-98453076D01*
X99884008Y-98972886D01*
X99190747Y-99609300D01*
X98714709Y-100109328D01*
X98445050Y-100503662D01*
X98345778Y-100845326D01*
X97771086Y-100845326D01*
X97769419Y-100677514D01*
X98086658Y-99976395D01*
X98721473Y-99215312D01*
X99667956Y-98406629D01*
X99897672Y-98227349D01*
X100404891Y-97747538D01*
X100597484Y-97396941D01*
X100484547Y-97182600D01*
X100075177Y-97111559D01*
X99378468Y-97190860D01*
X98403518Y-97427548D01*
X98203195Y-97481347D01*
X97382940Y-97661301D01*
X96434075Y-97825552D01*
X95523788Y-97944110D01*
X95458821Y-97950907D01*
X93988792Y-98190904D01*
X92837024Y-98563731D01*
X92294625Y-98767566D01*
X91436523Y-99008666D01*
X90621072Y-99162648D01*
X90208599Y-99221320D01*
X89591921Y-99369090D01*
X89068897Y-99620204D01*
X88472135Y-100043259D01*
X88450135Y-100060279D01*
X87836066Y-100570023D01*
X87254328Y-101110917D01*
X86764738Y-101620803D01*
X86427117Y-102037527D01*
X86301284Y-102298932D01*
X85835809Y-102298932D01*
X85820676Y-102196621D01*
X86007355Y-101769618D01*
X86444791Y-101224331D01*
X87144220Y-100512185D01*
X87294389Y-100366851D01*
X88047331Y-99678338D01*
X88680298Y-99201361D01*
X89280812Y-98888455D01*
X89936391Y-98692153D01*
X90734557Y-98564990D01*
X91150753Y-98494144D01*
X91944446Y-98280032D01*
X92623374Y-98009701D01*
X93098172Y-97807564D01*
X93988598Y-97570939D01*
X95149005Y-97403369D01*
X95400931Y-97374847D01*
X96362120Y-97239022D01*
X97327188Y-97068649D01*
X98120693Y-96893813D01*
X98211069Y-96870766D01*
X98873861Y-96713766D01*
X99423411Y-96602885D01*
X99748505Y-96560870D01*
X100010502Y-96457740D01*
X100427648Y-96159499D01*
X100590381Y-96010518D01*
X101369373Y-96010518D01*
X101968548Y-96103346D01*
X102109919Y-96124094D01*
X102728978Y-96201572D01*
X103377975Y-96268349D01*
X104188227Y-96340524D01*
X104405177Y-95537341D01*
X104559744Y-95105673D01*
X104975833Y-94301413D01*
X105528785Y-93462863D01*
X106138655Y-92706740D01*
X106725498Y-92149763D01*
X106774516Y-92114518D01*
X107218672Y-91860190D01*
X107690930Y-91632456D01*
X109083918Y-91632456D01*
X110610067Y-91856087D01*
X110789911Y-91883739D01*
X111624647Y-92039800D01*
X112413314Y-92225529D01*
X113006079Y-92406507D01*
X113350648Y-92535212D01*
X113728912Y-92674036D01*
X113875942Y-92724260D01*
X113875946Y-92724216D01*
X114004362Y-92634002D01*
X114310873Y-92431201D01*
X114369714Y-92392432D01*
X114831616Y-92076267D01*
X115327709Y-91723003D01*
X115909613Y-91298825D01*
X114892777Y-90957204D01*
X114425678Y-90785067D01*
X113909784Y-90555994D01*
X113601284Y-90369734D01*
X113527745Y-90304326D01*
X113381616Y-90200381D01*
X113207756Y-90160590D01*
X112946664Y-90196852D01*
X112538841Y-90321067D01*
X111924786Y-90545134D01*
X111044998Y-90880951D01*
X109083918Y-91632456D01*
X107690930Y-91632456D01*
X107893262Y-91534887D01*
X108715539Y-91176740D01*
X109602753Y-90823883D01*
X109816414Y-90743329D01*
X110863619Y-90352373D01*
X111611920Y-90057763D01*
X112077767Y-89821678D01*
X112277610Y-89606296D01*
X112256867Y-89509283D01*
X113614983Y-89509283D01*
X113641328Y-89606296D01*
X113643635Y-89614792D01*
X113925639Y-89892997D01*
X114452117Y-90177324D01*
X115152844Y-90434179D01*
X115957591Y-90629965D01*
X116231723Y-90680289D01*
X116759012Y-90766480D01*
X117124165Y-90790109D01*
X117456859Y-90752987D01*
X117886769Y-90656927D01*
X118005830Y-90610086D01*
X118008037Y-90608670D01*
X119182106Y-90608670D01*
X119234812Y-90681568D01*
X119517416Y-90888838D01*
X119962614Y-91147444D01*
X120468473Y-91465124D01*
X121347936Y-92230011D01*
X122156042Y-93184847D01*
X122804479Y-94233726D01*
X123036537Y-94667323D01*
X123519169Y-95376361D01*
X123761314Y-95604021D01*
X124083489Y-95906923D01*
X124833639Y-96368575D01*
X124854935Y-96379716D01*
X125594761Y-96652118D01*
X126330796Y-96734991D01*
X126966274Y-96629525D01*
X127404431Y-96336913D01*
X127571454Y-96122868D01*
X127925533Y-95662105D01*
X128386296Y-95058207D01*
X128896352Y-94386213D01*
X129313669Y-93843562D01*
X129781142Y-93256636D01*
X130152486Y-92813622D01*
X130372201Y-92582354D01*
X130374576Y-92580405D01*
X130517478Y-92425016D01*
X130537027Y-92228262D01*
X130416671Y-91903303D01*
X130139859Y-91363299D01*
X129867837Y-90912115D01*
X129319515Y-90161591D01*
X128679017Y-89408405D01*
X128034688Y-88754101D01*
X127474875Y-88300222D01*
X127320381Y-88217232D01*
X127039900Y-88143699D01*
X126625446Y-88120712D01*
X126006585Y-88145771D01*
X125112885Y-88216376D01*
X124898298Y-88235526D01*
X123558930Y-88376170D01*
X122503498Y-88536548D01*
X122206469Y-88607038D01*
X121675892Y-88732953D01*
X121020004Y-88981674D01*
X120479724Y-89299004D01*
X119998945Y-89701235D01*
X119602944Y-90096434D01*
X119298590Y-90433065D01*
X119182106Y-90608670D01*
X118008037Y-90608670D01*
X118374940Y-90373219D01*
X118834772Y-90007039D01*
X119311720Y-89579438D01*
X119732175Y-89158308D01*
X120022532Y-88811544D01*
X120109184Y-88607038D01*
X120103195Y-88597290D01*
X119925750Y-88426335D01*
X119556669Y-88108404D01*
X119065348Y-87703560D01*
X118051284Y-86883054D01*
X116784799Y-87457603D01*
X116497873Y-87590612D01*
X115602187Y-88043004D01*
X114812747Y-88495571D01*
X114182861Y-88913809D01*
X113765837Y-89263214D01*
X113614983Y-89509283D01*
X112256867Y-89509283D01*
X112227897Y-89373793D01*
X111945077Y-89086347D01*
X111445600Y-88706137D01*
X110745914Y-88195339D01*
X110199501Y-87799631D01*
X109399622Y-87264932D01*
X108805196Y-86932643D01*
X108442391Y-86818405D01*
X108231971Y-86858271D01*
X107743845Y-87088668D01*
X107197977Y-87470802D01*
X107080489Y-87566939D01*
X106483220Y-88070361D01*
X106104407Y-88440923D01*
X105894801Y-88747450D01*
X105805154Y-89058764D01*
X105786216Y-89443691D01*
X105767050Y-89798387D01*
X105614582Y-90225137D01*
X105236046Y-90618006D01*
X104984807Y-90829442D01*
X104338790Y-91379537D01*
X103911666Y-91767588D01*
X103666917Y-92040387D01*
X103568024Y-92244724D01*
X103578470Y-92427391D01*
X103661737Y-92635178D01*
X103665815Y-92644151D01*
X103820111Y-93074626D01*
X103824236Y-93445552D01*
X103646726Y-93824775D01*
X103256117Y-94280143D01*
X102620945Y-94879502D01*
X101369373Y-96010518D01*
X100590381Y-96010518D01*
X100891877Y-95734500D01*
X101270676Y-95358422D01*
X101929067Y-94735210D01*
X102531773Y-94195123D01*
X102974190Y-93799471D01*
X103205413Y-93522029D01*
X103258791Y-93287873D01*
X103182349Y-93009482D01*
X103055388Y-92628217D01*
X103002947Y-92165519D01*
X103144612Y-91758402D01*
X103514757Y-91328040D01*
X104147753Y-90795609D01*
X104623087Y-90416899D01*
X104991998Y-90088129D01*
X105174482Y-89838450D01*
X105220112Y-89595255D01*
X105178458Y-89285937D01*
X105160292Y-89183636D01*
X105142322Y-88918724D01*
X105213601Y-88676436D01*
X105416108Y-88392525D01*
X105791823Y-88002740D01*
X106382728Y-87442832D01*
X106552716Y-87282251D01*
X107200514Y-86623166D01*
X107578290Y-86137934D01*
X107670826Y-85888755D01*
X108270756Y-85888755D01*
X108279831Y-85945254D01*
X108493402Y-86134518D01*
X108902900Y-86337265D01*
X109236582Y-86503941D01*
X109816743Y-86856453D01*
X110510450Y-87322022D01*
X111230830Y-87844403D01*
X111861135Y-88310727D01*
X112426622Y-88710272D01*
X112838935Y-88980640D01*
X113036997Y-89080048D01*
X113042998Y-89079811D01*
X113276066Y-88954931D01*
X113591615Y-88669991D01*
X113814559Y-88485056D01*
X114312698Y-88151999D01*
X114975618Y-87755888D01*
X115721153Y-87347742D01*
X116353017Y-87011704D01*
X116916485Y-86699795D01*
X117089096Y-86597426D01*
X118665259Y-86597426D01*
X118667031Y-86605789D01*
X118825690Y-86783291D01*
X119190383Y-87092095D01*
X119689129Y-87470802D01*
X119872323Y-87602646D01*
X120365455Y-87925298D01*
X120788777Y-88104301D01*
X121244457Y-88155818D01*
X121834661Y-88096013D01*
X122661558Y-87941048D01*
X122928141Y-87892259D01*
X123724255Y-87776200D01*
X123732501Y-87775254D01*
X127866249Y-87775254D01*
X129051992Y-88993062D01*
X129269233Y-89223519D01*
X129863432Y-89919763D01*
X130390048Y-90622813D01*
X130755469Y-91210799D01*
X130828813Y-91351901D01*
X131099616Y-91834458D01*
X131322360Y-92091388D01*
X131583400Y-92194065D01*
X131969092Y-92213860D01*
X132207591Y-92228262D01*
X132326741Y-92235457D01*
X133009986Y-92328335D01*
X133708818Y-92469035D01*
X134197413Y-92581099D01*
X134712342Y-92684755D01*
X135013613Y-92727092D01*
X135014753Y-92727105D01*
X135239755Y-92614210D01*
X135655504Y-92306735D01*
X136203076Y-91851316D01*
X136823548Y-91294590D01*
X138372523Y-89856075D01*
X138153684Y-89192985D01*
X138069017Y-88994725D01*
X137705528Y-88426525D01*
X137174226Y-87778554D01*
X136555451Y-87136911D01*
X136525918Y-87110997D01*
X137409276Y-87110997D01*
X138025328Y-87918070D01*
X138284466Y-88272001D01*
X138587344Y-88729478D01*
X138748896Y-89033075D01*
X138812845Y-89132501D01*
X139120599Y-89437275D01*
X139612133Y-89840974D01*
X139632771Y-89856075D01*
X140216779Y-90283404D01*
X140526841Y-90503284D01*
X141113820Y-90948597D01*
X141568165Y-91331780D01*
X141810907Y-91588198D01*
X141845020Y-91654483D01*
X141963868Y-92072142D01*
X142068349Y-92697933D01*
X142139072Y-93423406D01*
X142178072Y-94031844D01*
X142233476Y-94896216D01*
X142805980Y-94380256D01*
X143378485Y-93864295D01*
X143111087Y-92475616D01*
X143077295Y-92306467D01*
X142643952Y-90795480D01*
X141986681Y-89451046D01*
X141064831Y-88205032D01*
X140763718Y-87906705D01*
X141641802Y-87906705D01*
X142296388Y-88884815D01*
X142507253Y-89211424D01*
X142959728Y-90034150D01*
X143309803Y-90905680D01*
X143579447Y-91900722D01*
X143790632Y-93093988D01*
X143882412Y-93864295D01*
X143965326Y-94560185D01*
X144012592Y-95006245D01*
X144094699Y-95708495D01*
X144167553Y-96256418D01*
X144196676Y-96430181D01*
X144305283Y-96745543D01*
X144518644Y-96873444D01*
X144910089Y-96834728D01*
X145552948Y-96650242D01*
X145979949Y-96544398D01*
X146671871Y-96409745D01*
X147518831Y-96267752D01*
X148423496Y-96135861D01*
X149908653Y-95881033D01*
X151251194Y-95506758D01*
X152388509Y-95005494D01*
X153390009Y-94352315D01*
X153633432Y-94176651D01*
X154258714Y-93779140D01*
X154897122Y-93425807D01*
X155556913Y-93052391D01*
X156035758Y-92635699D01*
X156322834Y-92121456D01*
X156462528Y-91427855D01*
X156499229Y-90473088D01*
X156497800Y-90179623D01*
X156463054Y-89474374D01*
X156345712Y-88943898D01*
X156098318Y-88525855D01*
X155673418Y-88157903D01*
X155023558Y-87777702D01*
X154101284Y-87322912D01*
X152497859Y-86557446D01*
X148179681Y-86502827D01*
X147840014Y-86498576D01*
X146571419Y-86484685D01*
X145592231Y-86480327D01*
X144854946Y-86488519D01*
X144312062Y-86512282D01*
X143916075Y-86554631D01*
X143619484Y-86618587D01*
X143374785Y-86707167D01*
X143134476Y-86823390D01*
X142953926Y-86920907D01*
X142422000Y-87250148D01*
X142024625Y-87552638D01*
X141641802Y-87906705D01*
X140763718Y-87906705D01*
X139837751Y-86989305D01*
X139817224Y-86971328D01*
X139245082Y-86532623D01*
X138784607Y-86362420D01*
X138341308Y-86451391D01*
X137820691Y-86790210D01*
X137409276Y-87110997D01*
X136525918Y-87110997D01*
X135929543Y-86587698D01*
X135376842Y-86217016D01*
X135000564Y-86061514D01*
X134033670Y-85858300D01*
X132779006Y-85789720D01*
X131259268Y-85857756D01*
X129838093Y-85976140D01*
X129725344Y-85985532D01*
X128795796Y-86880393D01*
X127866249Y-87775254D01*
X123732501Y-87775254D01*
X124652258Y-87669739D01*
X125561768Y-87591025D01*
X127331156Y-87468664D01*
X128084371Y-86697420D01*
X128185894Y-86593292D01*
X128545646Y-86207877D01*
X128696028Y-85976140D01*
X128667280Y-85821106D01*
X128489640Y-85665800D01*
X128381916Y-85593637D01*
X127961637Y-85349409D01*
X127362340Y-85027014D01*
X126676044Y-84676640D01*
X126351841Y-84520937D01*
X125265806Y-84108067D01*
X124288280Y-83947927D01*
X123323963Y-84033618D01*
X122277555Y-84358240D01*
X122231169Y-84376913D01*
X121695867Y-84626362D01*
X121054221Y-84969669D01*
X120375215Y-85364073D01*
X119727833Y-85766812D01*
X119181057Y-86135125D01*
X118859538Y-86383284D01*
X118803871Y-86426250D01*
X118665259Y-86597426D01*
X117089096Y-86597426D01*
X117288681Y-86479060D01*
X117410428Y-86383284D01*
X117324493Y-86336474D01*
X116968316Y-86176235D01*
X116403572Y-85935265D01*
X115700547Y-85642312D01*
X114929525Y-85326124D01*
X114160789Y-85015447D01*
X113464625Y-84739028D01*
X112911316Y-84525616D01*
X112571147Y-84403956D01*
X112523442Y-84389284D01*
X112230412Y-84326234D01*
X111921777Y-84334576D01*
X111521912Y-84431709D01*
X110955196Y-84635033D01*
X110146003Y-84961948D01*
X109498974Y-85239001D01*
X108878383Y-85527516D01*
X108446470Y-85755225D01*
X108270756Y-85888755D01*
X107670826Y-85888755D01*
X107700653Y-85808437D01*
X107700655Y-85805228D01*
X107745954Y-85605418D01*
X107908373Y-85408305D01*
X108229972Y-85189806D01*
X108752813Y-84925834D01*
X109518956Y-84592307D01*
X110570462Y-84165138D01*
X110813464Y-84065543D01*
X111295433Y-83830408D01*
X111525721Y-83625838D01*
X111565803Y-83404877D01*
X111563914Y-83387250D01*
X111600569Y-83257409D01*
X112241047Y-83257409D01*
X112266376Y-83575427D01*
X112527654Y-83794307D01*
X112543399Y-83799475D01*
X112846492Y-83911690D01*
X113391740Y-84123070D01*
X114106912Y-84405353D01*
X114919777Y-84730277D01*
X114953849Y-84743980D01*
X115803352Y-85086597D01*
X116587526Y-85404566D01*
X117220487Y-85662961D01*
X117616353Y-85826857D01*
X117679890Y-85853543D01*
X118011490Y-85968903D01*
X118281346Y-85962787D01*
X118604282Y-85808083D01*
X119095120Y-85477678D01*
X119330177Y-85318594D01*
X120241445Y-84768720D01*
X121224369Y-84259303D01*
X122190183Y-83830693D01*
X123050122Y-83523242D01*
X123715424Y-83377303D01*
X124019985Y-83339399D01*
X124419027Y-83253096D01*
X124575257Y-83162119D01*
X124479235Y-82950608D01*
X124242631Y-82618842D01*
X124162958Y-82524536D01*
X124014747Y-82394636D01*
X123808326Y-82305740D01*
X123747166Y-82295117D01*
X124793233Y-82295117D01*
X125075683Y-82860528D01*
X125193456Y-83054384D01*
X125295711Y-83162119D01*
X125450424Y-83325124D01*
X125859854Y-83618921D01*
X126477425Y-83974015D01*
X127358818Y-84428652D01*
X128425181Y-84935307D01*
X129250808Y-85257755D01*
X129874897Y-85404165D01*
X130340440Y-85384609D01*
X130603669Y-85252651D01*
X131552261Y-85252651D01*
X133027566Y-85252651D01*
X133934047Y-85285680D01*
X134835567Y-85434913D01*
X135601111Y-85733975D01*
X136340928Y-86214883D01*
X136470690Y-86312317D01*
X136800515Y-86543504D01*
X136959197Y-86628033D01*
X137000491Y-86608044D01*
X137264130Y-86460004D01*
X137675750Y-86219043D01*
X138337203Y-85826452D01*
X137936709Y-85564296D01*
X137564980Y-85336553D01*
X136560900Y-84812910D01*
X135382543Y-84293383D01*
X134143750Y-83830025D01*
X132664983Y-83328010D01*
X132275572Y-83811906D01*
X132274985Y-83812637D01*
X131951233Y-84294673D01*
X131719212Y-84774226D01*
X131552261Y-85252651D01*
X130603669Y-85252651D01*
X130690428Y-85209158D01*
X130740992Y-85160173D01*
X130976078Y-84856442D01*
X131273625Y-84409716D01*
X131567741Y-83926727D01*
X131792533Y-83514210D01*
X131882106Y-83278896D01*
X131847478Y-83245057D01*
X131549028Y-83147266D01*
X130996754Y-83025315D01*
X130253967Y-82888727D01*
X129383978Y-82747025D01*
X128450095Y-82609733D01*
X127515630Y-82486373D01*
X126643892Y-82386468D01*
X125898191Y-82319542D01*
X125341837Y-82295117D01*
X124793233Y-82295117D01*
X123747166Y-82295117D01*
X123485748Y-82249711D01*
X122989067Y-82218412D01*
X122260334Y-82203708D01*
X121241604Y-82197460D01*
X120890924Y-82194937D01*
X119857232Y-82175746D01*
X118883676Y-82141971D01*
X118066187Y-82097491D01*
X117500698Y-82046187D01*
X117360683Y-82027948D01*
X116831416Y-81970220D01*
X116545941Y-81985818D01*
X116420135Y-82094948D01*
X116369876Y-82317816D01*
X116365414Y-82348286D01*
X116315203Y-82529700D01*
X116186886Y-82644957D01*
X115913016Y-82712013D01*
X115426142Y-82748826D01*
X114658818Y-82773351D01*
X114280018Y-82785304D01*
X113545893Y-82820016D01*
X112956986Y-82862840D01*
X112614640Y-82907145D01*
X112437655Y-82983159D01*
X112241047Y-83257409D01*
X111600569Y-83257409D01*
X111664680Y-83030313D01*
X111950213Y-82654363D01*
X112129647Y-82501847D01*
X112382555Y-82366399D01*
X112732150Y-82289662D01*
X113262135Y-82255474D01*
X114056212Y-82247670D01*
X114138508Y-82247650D01*
X114886790Y-82241564D01*
X115364443Y-82213770D01*
X115642420Y-82148552D01*
X115791678Y-82030191D01*
X115883172Y-81842969D01*
X116037039Y-81438269D01*
X119566764Y-81540838D01*
X120828845Y-81571361D01*
X121819867Y-81580151D01*
X122490152Y-81565040D01*
X122853202Y-81525713D01*
X122922517Y-81461850D01*
X122713616Y-81289871D01*
X122194448Y-80981812D01*
X121566348Y-80687988D01*
X120962129Y-80467993D01*
X120514602Y-80381418D01*
X120096825Y-80292933D01*
X119482198Y-80040861D01*
X118781451Y-79666271D01*
X118492987Y-79499013D01*
X117773259Y-79142726D01*
X117083890Y-78926957D01*
X116248729Y-78790820D01*
X115806453Y-78731667D01*
X114175216Y-78385692D01*
X112790284Y-77854271D01*
X111599303Y-77113032D01*
X110549920Y-76137599D01*
X110272093Y-75823721D01*
X109813443Y-75226956D01*
X109627881Y-74783597D01*
X110135531Y-74783597D01*
X110173234Y-74859508D01*
X110410254Y-75145906D01*
X110816851Y-75572733D01*
X111336783Y-76079323D01*
X111657980Y-76372210D01*
X112602845Y-77094122D01*
X113582233Y-77600195D01*
X114697264Y-77934689D01*
X116049059Y-78141864D01*
X116783929Y-78235767D01*
X117440055Y-78384797D01*
X118041592Y-78625783D01*
X118745635Y-79009257D01*
X118835504Y-79060914D01*
X119518971Y-79410373D01*
X120170793Y-79679733D01*
X120660873Y-79814310D01*
X120930382Y-79858550D01*
X121610355Y-80059239D01*
X122330080Y-80419183D01*
X123189677Y-80984722D01*
X123344208Y-81092479D01*
X123647226Y-81279110D01*
X123967998Y-81419840D01*
X124372245Y-81530491D01*
X124925687Y-81626887D01*
X125694045Y-81724848D01*
X126743040Y-81840197D01*
X127087543Y-81878052D01*
X128224598Y-82015574D01*
X129361506Y-82169436D01*
X130382831Y-82323451D01*
X131173140Y-82461431D01*
X131595595Y-82546033D01*
X132299661Y-82695845D01*
X132846372Y-82823435D01*
X133143407Y-82907884D01*
X133205279Y-82928661D01*
X133415142Y-82883578D01*
X133436952Y-82620583D01*
X133279528Y-82196667D01*
X132951687Y-81668822D01*
X132830510Y-81510139D01*
X132241228Y-80835321D01*
X131467262Y-80047368D01*
X130585119Y-79216568D01*
X129671308Y-78413209D01*
X128802335Y-77707579D01*
X128054709Y-77169966D01*
X127332212Y-76709315D01*
X125903013Y-75868134D01*
X124631170Y-75231603D01*
X123456077Y-74771075D01*
X122317131Y-74457903D01*
X122009009Y-74387271D01*
X121215902Y-74177817D01*
X120519192Y-73958000D01*
X120041648Y-73765194D01*
X119916107Y-73704342D01*
X119588728Y-73582921D01*
X119191236Y-73501831D01*
X118654213Y-73453612D01*
X117908240Y-73430808D01*
X116883900Y-73425960D01*
X116736829Y-73426458D01*
X115708119Y-73444239D01*
X114700750Y-73483365D01*
X113823576Y-73538579D01*
X113185449Y-73604620D01*
X112727621Y-73688380D01*
X112006023Y-73875018D01*
X111306682Y-74108525D01*
X110708931Y-74358236D01*
X110292103Y-74593482D01*
X110135531Y-74783597D01*
X109627881Y-74783597D01*
X109625149Y-74777070D01*
X109711222Y-74418714D01*
X110075670Y-74096535D01*
X110722503Y-73755184D01*
X111312199Y-73503352D01*
X112094975Y-73249806D01*
X112964942Y-73066386D01*
X113986949Y-72943217D01*
X115225848Y-72870430D01*
X116746490Y-72838149D01*
X117419100Y-72833831D01*
X118310688Y-72839463D01*
X118953843Y-72866031D01*
X119410862Y-72919026D01*
X119744044Y-73003939D01*
X120015687Y-73126259D01*
X120226334Y-73223070D01*
X120792596Y-73428157D01*
X121530932Y-73655519D01*
X122336002Y-73871332D01*
X123583949Y-74242454D01*
X125591602Y-75082135D01*
X127606864Y-76207762D01*
X129577897Y-77589062D01*
X131452863Y-79195759D01*
X131755875Y-79486405D01*
X132703768Y-80471308D01*
X133397911Y-81327549D01*
X133824512Y-82036585D01*
X133969777Y-82579869D01*
X133971809Y-82620583D01*
X133979090Y-82766446D01*
X134043722Y-82938760D01*
X134216926Y-83101509D01*
X134531462Y-83278896D01*
X134551903Y-83290424D01*
X135101854Y-83541236D01*
G37*
G36*
X154591923Y-89620785D02*
G01*
X154726121Y-89825181D01*
X154747283Y-90179983D01*
X154713293Y-90248633D01*
X154438516Y-90444305D01*
X154098115Y-90428322D01*
X153860390Y-90197380D01*
X153855893Y-89969437D01*
X154039823Y-89638183D01*
X154145212Y-89537971D01*
X154356837Y-89446550D01*
X154591923Y-89620785D01*
G37*
G36*
X149582031Y-89586969D02*
G01*
X149627311Y-90176129D01*
X149635237Y-90590056D01*
X149707390Y-91018933D01*
X149910584Y-91353311D01*
X150310888Y-91744803D01*
X150378705Y-91804258D01*
X151073922Y-92274641D01*
X151843908Y-92605800D01*
X152541353Y-92732503D01*
X152641935Y-92762734D01*
X152758818Y-92994432D01*
X152626621Y-93201422D01*
X152271213Y-93244811D01*
X151761114Y-93146952D01*
X151164850Y-92932527D01*
X150550951Y-92626218D01*
X149987944Y-92252707D01*
X149544357Y-91836675D01*
X149176331Y-91310200D01*
X148979571Y-90666276D01*
X149057865Y-89945473D01*
X149122502Y-89723519D01*
X149302166Y-89349541D01*
X149464495Y-89307732D01*
X149582031Y-89586969D01*
G37*
G36*
X151634389Y-87359141D02*
G01*
X151768587Y-87563537D01*
X151789748Y-87918339D01*
X151755758Y-87986990D01*
X151480982Y-88182662D01*
X151140581Y-88166678D01*
X150902856Y-87935736D01*
X150898359Y-87707793D01*
X151082289Y-87376539D01*
X151187677Y-87276327D01*
X151399302Y-87184906D01*
X151634389Y-87359141D01*
G37*
%TO.C,RGB3*%
X173127811Y-102988439D02*
X165827811Y-102988439D01*
X173127811Y-97488439D02*
X165827811Y-97488439D01*
X165827811Y-102988439D02*
X165827811Y-101838439D01*
%TO.C,RGB2*%
X134077811Y-102988439D02*
X134077811Y-101838439D01*
X141377811Y-102988439D02*
X134077811Y-102988439D01*
X141377811Y-97488439D02*
X134077811Y-97488439D01*
%TO.C,G\u002A\u002A\u002A*%
G36*
X166756959Y-109718132D02*
G01*
X166759975Y-109722830D01*
X166762429Y-109733073D01*
X166764380Y-109750467D01*
X166765884Y-109776618D01*
X166766999Y-109813133D01*
X166767783Y-109861616D01*
X166768292Y-109923676D01*
X166768585Y-110000917D01*
X166768719Y-110094946D01*
X166768750Y-110207369D01*
X166768750Y-110703439D01*
X166058750Y-110703439D01*
X166058750Y-110036682D01*
X166396250Y-109880663D01*
X166399820Y-109879013D01*
X166476752Y-109843490D01*
X166548328Y-109810510D01*
X166612416Y-109781052D01*
X166666885Y-109756092D01*
X166709601Y-109736607D01*
X166738434Y-109723575D01*
X166751250Y-109717972D01*
X166753324Y-109717373D01*
X166756959Y-109718132D01*
G37*
G36*
X166768750Y-111763439D02*
G01*
X166768743Y-111785110D01*
X166768537Y-111881746D01*
X166768065Y-111971614D01*
X166767356Y-112052826D01*
X166766439Y-112123489D01*
X166765341Y-112181714D01*
X166764091Y-112225611D01*
X166762718Y-112253288D01*
X166761250Y-112262856D01*
X166760736Y-112262723D01*
X166747573Y-112257164D01*
X166718677Y-112244126D01*
X166676065Y-112224543D01*
X166621751Y-112199348D01*
X166557750Y-112169477D01*
X166486079Y-112135863D01*
X166408750Y-112099441D01*
X166063750Y-111936609D01*
X166058484Y-111263439D01*
X166768750Y-111263439D01*
X166768750Y-111763439D01*
G37*
G36*
X170701999Y-106482288D02*
G01*
X170676128Y-106538041D01*
X170637659Y-106593627D01*
X170613070Y-106622274D01*
X170545771Y-106681355D01*
X170471064Y-106724036D01*
X170391371Y-106750597D01*
X170309114Y-106761316D01*
X170226714Y-106756470D01*
X170146593Y-106736339D01*
X170071171Y-106701200D01*
X170002871Y-106651332D01*
X169944115Y-106587014D01*
X169897322Y-106508524D01*
X169866865Y-106443439D01*
X168708651Y-106443439D01*
X168711201Y-107410765D01*
X168713750Y-108378092D01*
X169315509Y-108733265D01*
X169376827Y-108769493D01*
X169476937Y-108828795D01*
X169572400Y-108885535D01*
X169661642Y-108938764D01*
X169743089Y-108987539D01*
X169815165Y-109030912D01*
X169876296Y-109067938D01*
X169924907Y-109097670D01*
X169959424Y-109119162D01*
X169978272Y-109131469D01*
X170063995Y-109196934D01*
X170158085Y-109284936D01*
X170234694Y-109378401D01*
X170295155Y-109479008D01*
X170340800Y-109588439D01*
X170367849Y-109668439D01*
X171968751Y-109673557D01*
X171968751Y-109094441D01*
X171968750Y-108515324D01*
X171904017Y-108485031D01*
X171874239Y-108469590D01*
X171802502Y-108417977D01*
X171743026Y-108353423D01*
X171697350Y-108278813D01*
X171667009Y-108197035D01*
X171653539Y-108110978D01*
X171655684Y-108072986D01*
X171814707Y-108072986D01*
X171818967Y-108140565D01*
X171840001Y-108204007D01*
X171876625Y-108260380D01*
X171927656Y-108306748D01*
X171991910Y-108340178D01*
X172005840Y-108344126D01*
X172040854Y-108349720D01*
X172078750Y-108351917D01*
X172081617Y-108351903D01*
X172152059Y-108342283D01*
X172213907Y-108316591D01*
X172265560Y-108277414D01*
X172305420Y-108227341D01*
X172331886Y-108168958D01*
X172343359Y-108104854D01*
X172338239Y-108037616D01*
X172314928Y-107969833D01*
X172310669Y-107961491D01*
X172269262Y-107903562D01*
X172215500Y-107860696D01*
X172151343Y-107834094D01*
X172078750Y-107824960D01*
X172069168Y-107825109D01*
X171997535Y-107836520D01*
X171934584Y-107865246D01*
X171882277Y-107910084D01*
X171842573Y-107969833D01*
X171828402Y-108004206D01*
X171814707Y-108072986D01*
X171655684Y-108072986D01*
X171658477Y-108023527D01*
X171663198Y-107999359D01*
X171692012Y-107912483D01*
X171736208Y-107835833D01*
X171793639Y-107770806D01*
X171862156Y-107718797D01*
X171939614Y-107681203D01*
X172023863Y-107659419D01*
X172112758Y-107654840D01*
X172204150Y-107668862D01*
X172252541Y-107684546D01*
X172331467Y-107725674D01*
X172399498Y-107782002D01*
X172454880Y-107851567D01*
X172495854Y-107932406D01*
X172520667Y-108022557D01*
X172526507Y-108104854D01*
X172526659Y-108106999D01*
X172514949Y-108193949D01*
X172485915Y-108275623D01*
X172440923Y-108349797D01*
X172381341Y-108414248D01*
X172308538Y-108466751D01*
X172223881Y-108505084D01*
X172173750Y-108522051D01*
X172163750Y-109802995D01*
X172136026Y-109830717D01*
X172108301Y-109858439D01*
X171253526Y-109861103D01*
X170398751Y-109863768D01*
X170398751Y-110283674D01*
X170398750Y-110703579D01*
X171069442Y-110701009D01*
X171740133Y-110698439D01*
X171757103Y-110648308D01*
X171757198Y-110648028D01*
X171795533Y-110563305D01*
X171847266Y-110491536D01*
X171910077Y-110433343D01*
X171981647Y-110389349D01*
X172059659Y-110360174D01*
X172141793Y-110346442D01*
X172225730Y-110348773D01*
X172309152Y-110367791D01*
X172389740Y-110404116D01*
X172465175Y-110458372D01*
X172466067Y-110459159D01*
X172525399Y-110524043D01*
X172568379Y-110597278D01*
X172595364Y-110676269D01*
X172606714Y-110758419D01*
X172604035Y-110814854D01*
X172602787Y-110841134D01*
X172583942Y-110921818D01*
X172550537Y-110997876D01*
X172502930Y-111066711D01*
X172441480Y-111125728D01*
X172366547Y-111172332D01*
X172303337Y-111197438D01*
X172215261Y-111215627D01*
X172127615Y-111215877D01*
X172042861Y-111199011D01*
X171963460Y-111165851D01*
X171891874Y-111117221D01*
X171830562Y-111053944D01*
X171781988Y-110976844D01*
X171745709Y-110903439D01*
X170398750Y-110903439D01*
X170398751Y-111293274D01*
X170398751Y-111683109D01*
X172108301Y-111688439D01*
X172136026Y-111716161D01*
X172163750Y-111743883D01*
X172173750Y-113054825D01*
X172223881Y-113071793D01*
X172224173Y-113071892D01*
X172308892Y-113110225D01*
X172380658Y-113161956D01*
X172438848Y-113224766D01*
X172482841Y-113296336D01*
X172512014Y-113374348D01*
X172525746Y-113456482D01*
X172525108Y-113479446D01*
X172523414Y-113540419D01*
X172504397Y-113623841D01*
X172468072Y-113704429D01*
X172413817Y-113779863D01*
X172413030Y-113780755D01*
X172348146Y-113840087D01*
X172274911Y-113883067D01*
X172195920Y-113910052D01*
X172113770Y-113921402D01*
X172031055Y-113917475D01*
X171950371Y-113898630D01*
X171874313Y-113865225D01*
X171805478Y-113817618D01*
X171746461Y-113756168D01*
X171699857Y-113681235D01*
X171674751Y-113618025D01*
X171656562Y-113529949D01*
X171656429Y-113483439D01*
X171810272Y-113483439D01*
X171810460Y-113493958D01*
X171822014Y-113564475D01*
X171850330Y-113627026D01*
X171893784Y-113678906D01*
X171950751Y-113717409D01*
X171973727Y-113727321D01*
X172016488Y-113741173D01*
X172054356Y-113748579D01*
X172091638Y-113749282D01*
X172157206Y-113736576D01*
X172216361Y-113707746D01*
X172266560Y-113665206D01*
X172305260Y-113611366D01*
X172329918Y-113548642D01*
X172337990Y-113479446D01*
X172328255Y-113410266D01*
X172302362Y-113348478D01*
X172262953Y-113296867D01*
X172212656Y-113257028D01*
X172154099Y-113230555D01*
X172089909Y-113219040D01*
X172022715Y-113224077D01*
X171955145Y-113247261D01*
X171946803Y-113251520D01*
X171888874Y-113292927D01*
X171846008Y-113346689D01*
X171819406Y-113410846D01*
X171810272Y-113483439D01*
X171656429Y-113483439D01*
X171656312Y-113442303D01*
X171673178Y-113357549D01*
X171706338Y-113278148D01*
X171754968Y-113206562D01*
X171818245Y-113145250D01*
X171895345Y-113096676D01*
X171968750Y-113060397D01*
X171968750Y-111883439D01*
X170396372Y-111883439D01*
X170403125Y-111975939D01*
X170405299Y-112018624D01*
X170400844Y-112148509D01*
X170380583Y-112277004D01*
X170345475Y-112400449D01*
X170296484Y-112515184D01*
X170234569Y-112617551D01*
X170204682Y-112655733D01*
X170153957Y-112711908D01*
X170096560Y-112768352D01*
X170038348Y-112819388D01*
X169985181Y-112859335D01*
X169975839Y-112865208D01*
X169947398Y-112882099D01*
X169904018Y-112907239D01*
X169847283Y-112939731D01*
X169778778Y-112978678D01*
X169700088Y-113023180D01*
X169612798Y-113072342D01*
X169518494Y-113125264D01*
X169418760Y-113181050D01*
X169315181Y-113238801D01*
X168703750Y-113579164D01*
X168701193Y-114411301D01*
X168698636Y-115243439D01*
X169885709Y-115243439D01*
X169921988Y-115170033D01*
X169948582Y-115123593D01*
X170004012Y-115055680D01*
X170070188Y-115001847D01*
X170144550Y-114962519D01*
X170224536Y-114938118D01*
X170307586Y-114929067D01*
X170391138Y-114935790D01*
X170472631Y-114958711D01*
X170549504Y-114998251D01*
X170619194Y-115054835D01*
X170640511Y-115077597D01*
X170692581Y-115150504D01*
X170727324Y-115228547D01*
X170745459Y-115309504D01*
X170746983Y-115364854D01*
X170747707Y-115391152D01*
X170734788Y-115471270D01*
X170707422Y-115547638D01*
X170666330Y-115618032D01*
X170612231Y-115680231D01*
X170545847Y-115732015D01*
X170467896Y-115771160D01*
X170379100Y-115795446D01*
X170294658Y-115801387D01*
X170207885Y-115789590D01*
X170126336Y-115760488D01*
X170052247Y-115715456D01*
X169987854Y-115655874D01*
X169935394Y-115583119D01*
X169897105Y-115498569D01*
X169880137Y-115448439D01*
X168569195Y-115438439D01*
X168541473Y-115410715D01*
X168513750Y-115382991D01*
X168513454Y-115332986D01*
X170044707Y-115332986D01*
X170048967Y-115400565D01*
X170070001Y-115464007D01*
X170106625Y-115520380D01*
X170157656Y-115566748D01*
X170221910Y-115600178D01*
X170235840Y-115604126D01*
X170270854Y-115609720D01*
X170308750Y-115611917D01*
X170311617Y-115611903D01*
X170382059Y-115602283D01*
X170443907Y-115576591D01*
X170495560Y-115537414D01*
X170535420Y-115487341D01*
X170561886Y-115428958D01*
X170573359Y-115364854D01*
X170568239Y-115297616D01*
X170544928Y-115229833D01*
X170540669Y-115221491D01*
X170499262Y-115163562D01*
X170445500Y-115120696D01*
X170381343Y-115094094D01*
X170308750Y-115084960D01*
X170299168Y-115085109D01*
X170227535Y-115096520D01*
X170164584Y-115125246D01*
X170112277Y-115170084D01*
X170072573Y-115229833D01*
X170058402Y-115264206D01*
X170044707Y-115332986D01*
X168513454Y-115332986D01*
X168503750Y-113694341D01*
X168453750Y-113725476D01*
X168436986Y-113735222D01*
X168398057Y-113755568D01*
X168351389Y-113778072D01*
X168303750Y-113799398D01*
X168227629Y-113829023D01*
X168140076Y-113856781D01*
X168053029Y-113878397D01*
X167969941Y-113893266D01*
X167894266Y-113900783D01*
X167829459Y-113900342D01*
X167778973Y-113891338D01*
X167728750Y-113875277D01*
X167728750Y-114449672D01*
X167728752Y-114484230D01*
X167728801Y-114600999D01*
X167728953Y-114699707D01*
X167729253Y-114781882D01*
X167729748Y-114849053D01*
X167730484Y-114902749D01*
X167731507Y-114944499D01*
X167732862Y-114975831D01*
X167734597Y-114998275D01*
X167736757Y-115013359D01*
X167739389Y-115022612D01*
X167742538Y-115027562D01*
X167746250Y-115029739D01*
X167781455Y-115042608D01*
X167865346Y-115086845D01*
X167936792Y-115145173D01*
X167994214Y-115215799D01*
X168036029Y-115296926D01*
X168060658Y-115386759D01*
X168064215Y-115429482D01*
X168066288Y-115454382D01*
X168057303Y-115540959D01*
X168031150Y-115622743D01*
X167989425Y-115697541D01*
X167933726Y-115763166D01*
X167865650Y-115817426D01*
X167786792Y-115858131D01*
X167698750Y-115883093D01*
X167678829Y-115886568D01*
X167649741Y-115890685D01*
X167625670Y-115891451D01*
X167598375Y-115888854D01*
X167559612Y-115882881D01*
X167498167Y-115868229D01*
X167417259Y-115833103D01*
X167346089Y-115783355D01*
X167286362Y-115721274D01*
X167239788Y-115649150D01*
X167208072Y-115569270D01*
X167192922Y-115483925D01*
X167195452Y-115412205D01*
X167360414Y-115412205D01*
X167361456Y-115477154D01*
X167379155Y-115539948D01*
X167412166Y-115597312D01*
X167459146Y-115645972D01*
X167518750Y-115682653D01*
X167562790Y-115696761D01*
X167618750Y-115702999D01*
X167641802Y-115701989D01*
X167707855Y-115687129D01*
X167765745Y-115656557D01*
X167813583Y-115612890D01*
X167849480Y-115558744D01*
X167871548Y-115496736D01*
X167877898Y-115429482D01*
X167866641Y-115359599D01*
X167866419Y-115358854D01*
X167848184Y-115322056D01*
X167817368Y-115282010D01*
X167779286Y-115244033D01*
X167739255Y-115213440D01*
X167702590Y-115195548D01*
X167667258Y-115187509D01*
X167596128Y-115185287D01*
X167528923Y-115201081D01*
X167468510Y-115233580D01*
X167417759Y-115281470D01*
X167379536Y-115343439D01*
X167377372Y-115348376D01*
X167360414Y-115412205D01*
X167195452Y-115412205D01*
X167196045Y-115395404D01*
X167204688Y-115350927D01*
X167235850Y-115264290D01*
X167283575Y-115187126D01*
X167346375Y-115121163D01*
X167422763Y-115068125D01*
X167511250Y-115029739D01*
X167512775Y-115029117D01*
X167516229Y-115026049D01*
X167519148Y-115019629D01*
X167521577Y-115008342D01*
X167523560Y-114990676D01*
X167525142Y-114965117D01*
X167526368Y-114930151D01*
X167527282Y-114884266D01*
X167527930Y-114825948D01*
X167528356Y-114753684D01*
X167528605Y-114665960D01*
X167528722Y-114561262D01*
X167528750Y-114438078D01*
X167528750Y-113852091D01*
X167506250Y-113859309D01*
X167479797Y-113866829D01*
X167391194Y-113881189D01*
X167292375Y-113883526D01*
X167187159Y-113874481D01*
X167079367Y-113854696D01*
X166972821Y-113824811D01*
X166871342Y-113785467D01*
X166778750Y-113737305D01*
X166693750Y-113686077D01*
X166683857Y-115364854D01*
X166683750Y-115382991D01*
X166656029Y-115410715D01*
X166628307Y-115438439D01*
X165983011Y-115443439D01*
X165337716Y-115448439D01*
X165314678Y-115505131D01*
X165274899Y-115581813D01*
X165217072Y-115653480D01*
X165145619Y-115711036D01*
X165061879Y-115753170D01*
X164981667Y-115774912D01*
X164894708Y-115780324D01*
X164809544Y-115768213D01*
X164728645Y-115739750D01*
X164654483Y-115696105D01*
X164589529Y-115638446D01*
X164536251Y-115567944D01*
X164497122Y-115485769D01*
X164494900Y-115479256D01*
X164480544Y-115413232D01*
X164476678Y-115348439D01*
X164643843Y-115348439D01*
X164647862Y-115394277D01*
X164669018Y-115460803D01*
X164706473Y-115519268D01*
X164758135Y-115566713D01*
X164821910Y-115600178D01*
X164835840Y-115604126D01*
X164870854Y-115609720D01*
X164908750Y-115611917D01*
X164911617Y-115611903D01*
X164982059Y-115602283D01*
X165043907Y-115576591D01*
X165095560Y-115537414D01*
X165135420Y-115487341D01*
X165161886Y-115428958D01*
X165173359Y-115364854D01*
X165168239Y-115297616D01*
X165144928Y-115229833D01*
X165140669Y-115221491D01*
X165099262Y-115163562D01*
X165045500Y-115120696D01*
X164981343Y-115094094D01*
X164908750Y-115084960D01*
X164907723Y-115084962D01*
X164836665Y-115094405D01*
X164773374Y-115120683D01*
X164720150Y-115161510D01*
X164679289Y-115214601D01*
X164653087Y-115277672D01*
X164643843Y-115348439D01*
X164476678Y-115348439D01*
X164476129Y-115339238D01*
X164481655Y-115265717D01*
X164497122Y-115201108D01*
X164507615Y-115174329D01*
X164550955Y-115095936D01*
X164606866Y-115030358D01*
X164672944Y-114978150D01*
X164746786Y-114939872D01*
X164825988Y-114916080D01*
X164908146Y-114907331D01*
X164990858Y-114914183D01*
X165071719Y-114937193D01*
X165148325Y-114976918D01*
X165218274Y-115033915D01*
X165244357Y-115064064D01*
X165279297Y-115115272D01*
X165310253Y-115171907D01*
X165332450Y-115225939D01*
X165332866Y-115227032D01*
X165335661Y-115230580D01*
X165341653Y-115233579D01*
X165352370Y-115236073D01*
X165369341Y-115238110D01*
X165394091Y-115239734D01*
X165428149Y-115240993D01*
X165473041Y-115241932D01*
X165530297Y-115242597D01*
X165601442Y-115243034D01*
X165688005Y-115243289D01*
X165791513Y-115243409D01*
X165913494Y-115243439D01*
X166488865Y-115243439D01*
X166486308Y-114406041D01*
X166483750Y-113568644D01*
X165882758Y-113218541D01*
X165823127Y-113183782D01*
X165722972Y-113125299D01*
X165627500Y-113069428D01*
X165538289Y-113017099D01*
X165456914Y-112969239D01*
X165384952Y-112926779D01*
X165323979Y-112890647D01*
X165275572Y-112861773D01*
X165241306Y-112841086D01*
X165222758Y-112829514D01*
X165222075Y-112829062D01*
X165165279Y-112785916D01*
X165104966Y-112730753D01*
X165046352Y-112669061D01*
X164994659Y-112606328D01*
X164955104Y-112548042D01*
X164924206Y-112490512D01*
X164882945Y-112391021D01*
X164852629Y-112282405D01*
X164832499Y-112161700D01*
X164821798Y-112025939D01*
X164815637Y-111883439D01*
X163268750Y-111883439D01*
X163268750Y-113060397D01*
X163342156Y-113096676D01*
X163388596Y-113123270D01*
X163456509Y-113178700D01*
X163510342Y-113244876D01*
X163549670Y-113319238D01*
X163574071Y-113399224D01*
X163581728Y-113469482D01*
X163583122Y-113482274D01*
X163576399Y-113565826D01*
X163553478Y-113647319D01*
X163513938Y-113724192D01*
X163457354Y-113793882D01*
X163434447Y-113815317D01*
X163361651Y-113867183D01*
X163283678Y-113901753D01*
X163202756Y-113919749D01*
X163121116Y-113921894D01*
X163040985Y-113908911D01*
X162964593Y-113881522D01*
X162894170Y-113840451D01*
X162831945Y-113786419D01*
X162780145Y-113720149D01*
X162741002Y-113642365D01*
X162716743Y-113553788D01*
X162710867Y-113473150D01*
X162713570Y-113452205D01*
X162900414Y-113452205D01*
X162901456Y-113517154D01*
X162919155Y-113579948D01*
X162952166Y-113637312D01*
X162999146Y-113685972D01*
X163058750Y-113722653D01*
X163102790Y-113736761D01*
X163158750Y-113742999D01*
X163181802Y-113741989D01*
X163247855Y-113727129D01*
X163305745Y-113696557D01*
X163353583Y-113652890D01*
X163389480Y-113598744D01*
X163411548Y-113536736D01*
X163417898Y-113469482D01*
X163406641Y-113399599D01*
X163406419Y-113398854D01*
X163388184Y-113362056D01*
X163357368Y-113322010D01*
X163319286Y-113284033D01*
X163279255Y-113253440D01*
X163242590Y-113235548D01*
X163207258Y-113227509D01*
X163136128Y-113225287D01*
X163068923Y-113241081D01*
X163008510Y-113273580D01*
X162957759Y-113321470D01*
X162919536Y-113383439D01*
X162917372Y-113388376D01*
X162900414Y-113452205D01*
X162713570Y-113452205D01*
X162722074Y-113386325D01*
X162750396Y-113304315D01*
X162794318Y-113229642D01*
X162852325Y-113164826D01*
X162922903Y-113112388D01*
X163004537Y-113074848D01*
X163063750Y-113054861D01*
X163073750Y-111743883D01*
X163129200Y-111688439D01*
X164818750Y-111683105D01*
X164818720Y-111465772D01*
X164818419Y-111394024D01*
X164817496Y-111308623D01*
X164816065Y-111222547D01*
X164814243Y-111142689D01*
X164812146Y-111075939D01*
X164805602Y-110903439D01*
X164148119Y-110903439D01*
X163490636Y-110903438D01*
X163460343Y-110968172D01*
X163444902Y-110997950D01*
X163393289Y-111069687D01*
X163328735Y-111129163D01*
X163254125Y-111174839D01*
X163172347Y-111205180D01*
X163086290Y-111218650D01*
X162998839Y-111213712D01*
X162974671Y-111208991D01*
X162887795Y-111180177D01*
X162811145Y-111135981D01*
X162746118Y-111078550D01*
X162694109Y-111010033D01*
X162656515Y-110932575D01*
X162634731Y-110848326D01*
X162632161Y-110798439D01*
X162803843Y-110798439D01*
X162807862Y-110844277D01*
X162829018Y-110910803D01*
X162866473Y-110969268D01*
X162918135Y-111016713D01*
X162981910Y-111050178D01*
X162995840Y-111054126D01*
X163030854Y-111059720D01*
X163068750Y-111061917D01*
X163071617Y-111061903D01*
X163142059Y-111052283D01*
X163203907Y-111026591D01*
X163255560Y-110987414D01*
X163295420Y-110937341D01*
X163321886Y-110878958D01*
X163333359Y-110814854D01*
X163328239Y-110747616D01*
X163304928Y-110679833D01*
X163300669Y-110671491D01*
X163259262Y-110613562D01*
X163205500Y-110570696D01*
X163141343Y-110544094D01*
X163068750Y-110534960D01*
X163067723Y-110534962D01*
X162996665Y-110544405D01*
X162933374Y-110570683D01*
X162880150Y-110611510D01*
X162839289Y-110664601D01*
X162813087Y-110727672D01*
X162803843Y-110798439D01*
X162632161Y-110798439D01*
X162630152Y-110759431D01*
X162644174Y-110668039D01*
X162659858Y-110619648D01*
X162700986Y-110540722D01*
X162757314Y-110472691D01*
X162826879Y-110417309D01*
X162907718Y-110376335D01*
X162997869Y-110351522D01*
X163082300Y-110345529D01*
X163169251Y-110357237D01*
X163250926Y-110386270D01*
X163325102Y-110431261D01*
X163389554Y-110490842D01*
X163442061Y-110563647D01*
X163480398Y-110648308D01*
X163497368Y-110698439D01*
X164153579Y-110701011D01*
X164809791Y-110703583D01*
X164806879Y-110298754D01*
X165430562Y-110298754D01*
X165430714Y-110398510D01*
X165431089Y-110510930D01*
X165431674Y-110633550D01*
X165432456Y-110763908D01*
X165432819Y-110814854D01*
X165433422Y-110899540D01*
X165434558Y-111037981D01*
X165435850Y-111176769D01*
X165437287Y-111313439D01*
X165437617Y-111343152D01*
X165439267Y-111493351D01*
X165440763Y-111625117D01*
X165442234Y-111739771D01*
X165443811Y-111838636D01*
X165445622Y-111923033D01*
X165447797Y-111994285D01*
X165450466Y-112053712D01*
X165453757Y-112102636D01*
X165457801Y-112142380D01*
X165462726Y-112174266D01*
X165468662Y-112199613D01*
X165475739Y-112219746D01*
X165484085Y-112235985D01*
X165493831Y-112249652D01*
X165505106Y-112262068D01*
X165518039Y-112274557D01*
X165532760Y-112288439D01*
X165543920Y-112297990D01*
X165564198Y-112312955D01*
X165593050Y-112332459D01*
X165631359Y-112357034D01*
X165680009Y-112387210D01*
X165739883Y-112423518D01*
X165811866Y-112466488D01*
X165896840Y-112516651D01*
X165995689Y-112574537D01*
X166109296Y-112640678D01*
X166238544Y-112715603D01*
X166384318Y-112799843D01*
X166400049Y-112808922D01*
X166516055Y-112875851D01*
X166627214Y-112939946D01*
X166732278Y-113000489D01*
X166830002Y-113056764D01*
X166919136Y-113108052D01*
X166998435Y-113153638D01*
X167066652Y-113192804D01*
X167122539Y-113224834D01*
X167164849Y-113249010D01*
X167192335Y-113264616D01*
X167203750Y-113270935D01*
X167242365Y-113284113D01*
X167295599Y-113286696D01*
X167346091Y-113273072D01*
X167389437Y-113244622D01*
X167421235Y-113202728D01*
X167421453Y-113202293D01*
X167423409Y-113197500D01*
X167425212Y-113190859D01*
X167426869Y-113181582D01*
X167428384Y-113168879D01*
X167429766Y-113151961D01*
X167431019Y-113130039D01*
X167432150Y-113102323D01*
X167433165Y-113068024D01*
X167434071Y-113026353D01*
X167434873Y-112976520D01*
X167435579Y-112917737D01*
X167436193Y-112849215D01*
X167436723Y-112770163D01*
X167437174Y-112679793D01*
X167437553Y-112577315D01*
X167437865Y-112461940D01*
X167438118Y-112332880D01*
X167438318Y-112189344D01*
X167438470Y-112030543D01*
X167438580Y-111855689D01*
X167438656Y-111663992D01*
X167438703Y-111454663D01*
X167438727Y-111226912D01*
X167438735Y-110979950D01*
X167438735Y-110910201D01*
X167438723Y-110673439D01*
X167768750Y-110673439D01*
X168448750Y-110673439D01*
X168448750Y-110257942D01*
X168448755Y-110221047D01*
X168448887Y-110119456D01*
X168449338Y-110035473D01*
X168450291Y-109967290D01*
X168451933Y-109913101D01*
X168454448Y-109871096D01*
X168458020Y-109839470D01*
X168462833Y-109816413D01*
X168469073Y-109800119D01*
X168476924Y-109788779D01*
X168486570Y-109780587D01*
X168498197Y-109773735D01*
X168499328Y-109773150D01*
X168530824Y-109765143D01*
X168572715Y-109764532D01*
X168617386Y-109770843D01*
X168657224Y-109783605D01*
X168672930Y-109791303D01*
X168705683Y-109808280D01*
X168750643Y-109832133D01*
X168804906Y-109861307D01*
X168865567Y-109894249D01*
X168929724Y-109929405D01*
X169158750Y-110055478D01*
X169158750Y-111911007D01*
X168921250Y-112039633D01*
X168862258Y-112071225D01*
X168798326Y-112104673D01*
X168739788Y-112134495D01*
X168689672Y-112159179D01*
X168651001Y-112177207D01*
X168626804Y-112187065D01*
X168608262Y-112192633D01*
X168555254Y-112200396D01*
X168512342Y-112192087D01*
X168477850Y-112167489D01*
X168453750Y-112141845D01*
X168450942Y-111712642D01*
X168448133Y-111283439D01*
X167768750Y-111283439D01*
X167768806Y-112200939D01*
X167768852Y-112306576D01*
X167769112Y-112475408D01*
X167769600Y-112626183D01*
X167770315Y-112758659D01*
X167771252Y-112872592D01*
X167772409Y-112967741D01*
X167773785Y-113043861D01*
X167775375Y-113100711D01*
X167777178Y-113138048D01*
X167779191Y-113155628D01*
X167780346Y-113159562D01*
X167802393Y-113205011D01*
X167836004Y-113244015D01*
X167875462Y-113269798D01*
X167899098Y-113276723D01*
X167938661Y-113281840D01*
X167978419Y-113281762D01*
X168008750Y-113276039D01*
X168008835Y-113276006D01*
X168023173Y-113268917D01*
X168052446Y-113253344D01*
X168094223Y-113230645D01*
X168146073Y-113202180D01*
X168205565Y-113169304D01*
X168270267Y-113133377D01*
X168337749Y-113095756D01*
X168405580Y-113057798D01*
X168471328Y-113020862D01*
X168532564Y-112986306D01*
X168586854Y-112955486D01*
X168631770Y-112929762D01*
X168664879Y-112910490D01*
X168683750Y-112899029D01*
X168685007Y-112898222D01*
X168705381Y-112885795D01*
X168741000Y-112864679D01*
X168789959Y-112835980D01*
X168850354Y-112800807D01*
X168920278Y-112760265D01*
X168997827Y-112715463D01*
X169081096Y-112667508D01*
X169168179Y-112617506D01*
X169177518Y-112612150D01*
X169285906Y-112549780D01*
X169378366Y-112495992D01*
X169456340Y-112449740D01*
X169521270Y-112409979D01*
X169574600Y-112375664D01*
X169617770Y-112345751D01*
X169652224Y-112319195D01*
X169679405Y-112294950D01*
X169700754Y-112271973D01*
X169717713Y-112249217D01*
X169731726Y-112225638D01*
X169744234Y-112200191D01*
X169746847Y-112194488D01*
X169755047Y-112176334D01*
X169762328Y-112158948D01*
X169768744Y-112141109D01*
X169774351Y-112121596D01*
X169779203Y-112099187D01*
X169783354Y-112072660D01*
X169786859Y-112040793D01*
X169789773Y-112002365D01*
X169792150Y-111956154D01*
X169794045Y-111900938D01*
X169795512Y-111835496D01*
X169796607Y-111758606D01*
X169797383Y-111669045D01*
X169797896Y-111565594D01*
X169798200Y-111447029D01*
X169798349Y-111312129D01*
X169798399Y-111159673D01*
X169798403Y-110988439D01*
X169798406Y-110873929D01*
X169798399Y-110782986D01*
X171904707Y-110782986D01*
X171908967Y-110850565D01*
X171916713Y-110873929D01*
X171930001Y-110914007D01*
X171966625Y-110970380D01*
X172017656Y-111016748D01*
X172081910Y-111050178D01*
X172095840Y-111054126D01*
X172130854Y-111059720D01*
X172168750Y-111061917D01*
X172171617Y-111061903D01*
X172242059Y-111052283D01*
X172303907Y-111026591D01*
X172355560Y-110987414D01*
X172395420Y-110937341D01*
X172421886Y-110878958D01*
X172433359Y-110814854D01*
X172428239Y-110747616D01*
X172404928Y-110679833D01*
X172400669Y-110671491D01*
X172359262Y-110613562D01*
X172305500Y-110570696D01*
X172241343Y-110544094D01*
X172168750Y-110534960D01*
X172159168Y-110535109D01*
X172087535Y-110546520D01*
X172024584Y-110575246D01*
X171972277Y-110620084D01*
X171932573Y-110679833D01*
X171918402Y-110714206D01*
X171904707Y-110782986D01*
X169798399Y-110782986D01*
X169798394Y-110714672D01*
X169798304Y-110573389D01*
X169798073Y-110448854D01*
X169797636Y-110339843D01*
X169796931Y-110245130D01*
X169795893Y-110163492D01*
X169794457Y-110093702D01*
X169792561Y-110034535D01*
X169790141Y-109984768D01*
X169787131Y-109943175D01*
X169783470Y-109908530D01*
X169779092Y-109879610D01*
X169773933Y-109855188D01*
X169767931Y-109834041D01*
X169761020Y-109814942D01*
X169753137Y-109796668D01*
X169744219Y-109777993D01*
X169734201Y-109757692D01*
X169724471Y-109738516D01*
X169709681Y-109712496D01*
X169693078Y-109688357D01*
X169673097Y-109664938D01*
X169648172Y-109641075D01*
X169616738Y-109615608D01*
X169577228Y-109587373D01*
X169528077Y-109555211D01*
X169467719Y-109517957D01*
X169394589Y-109474452D01*
X169307122Y-109423532D01*
X169203750Y-109364036D01*
X169159355Y-109338544D01*
X169073536Y-109289157D01*
X168989948Y-109240921D01*
X168911114Y-109195299D01*
X168839556Y-109153753D01*
X168777795Y-109117746D01*
X168728352Y-109088741D01*
X168693750Y-109068200D01*
X168671740Y-109055036D01*
X168594612Y-109009657D01*
X168513743Y-108963100D01*
X168431235Y-108916491D01*
X168349188Y-108870956D01*
X168269702Y-108827623D01*
X168194880Y-108787618D01*
X168126821Y-108752068D01*
X168067628Y-108722100D01*
X168019400Y-108698841D01*
X167984240Y-108683418D01*
X167964247Y-108676956D01*
X167937048Y-108675673D01*
X167885351Y-108686924D01*
X167839668Y-108714542D01*
X167803346Y-108756127D01*
X167779735Y-108809277D01*
X167777766Y-108823768D01*
X167775853Y-108855751D01*
X167774179Y-108904963D01*
X167772740Y-108971750D01*
X167771531Y-109056458D01*
X167770549Y-109159434D01*
X167769789Y-109281024D01*
X167769248Y-109421573D01*
X167768922Y-109581430D01*
X167768806Y-109760939D01*
X167768750Y-110673439D01*
X167438723Y-110673439D01*
X167438723Y-110667798D01*
X167438687Y-110444399D01*
X167438623Y-110239221D01*
X167438525Y-110051482D01*
X167438386Y-109880399D01*
X167438202Y-109725190D01*
X167437965Y-109585073D01*
X167437672Y-109459266D01*
X167437316Y-109346985D01*
X167436891Y-109247448D01*
X167436391Y-109159874D01*
X167435812Y-109083480D01*
X167435147Y-109017483D01*
X167434390Y-108961101D01*
X167433536Y-108913552D01*
X167432579Y-108874054D01*
X167431513Y-108841823D01*
X167430333Y-108816078D01*
X167429033Y-108796036D01*
X167427607Y-108780915D01*
X167426050Y-108769932D01*
X167424355Y-108762306D01*
X167422518Y-108757253D01*
X167418348Y-108749024D01*
X167386980Y-108709573D01*
X167343975Y-108686174D01*
X167288750Y-108678484D01*
X167284145Y-108678521D01*
X167274539Y-108679029D01*
X167264097Y-108680596D01*
X167251712Y-108683802D01*
X167236274Y-108689228D01*
X167216675Y-108697452D01*
X167191808Y-108709055D01*
X167160565Y-108724617D01*
X167121836Y-108744718D01*
X167074514Y-108769937D01*
X167017491Y-108800853D01*
X166949658Y-108838048D01*
X166869907Y-108882101D01*
X166777131Y-108933591D01*
X166670220Y-108993098D01*
X166548067Y-109061202D01*
X166409564Y-109138484D01*
X166363517Y-109164183D01*
X166223723Y-109242248D01*
X166100025Y-109311466D01*
X165991367Y-109372515D01*
X165896695Y-109426072D01*
X165814951Y-109472813D01*
X165745082Y-109513415D01*
X165686031Y-109548555D01*
X165636742Y-109578909D01*
X165596161Y-109605155D01*
X165563231Y-109627970D01*
X165536897Y-109648029D01*
X165516104Y-109666011D01*
X165499796Y-109682592D01*
X165486917Y-109698448D01*
X165476412Y-109714256D01*
X165467226Y-109730694D01*
X165458302Y-109748439D01*
X165456844Y-109751413D01*
X165450601Y-109764737D01*
X165445578Y-109777970D01*
X165441621Y-109793345D01*
X165438578Y-109813094D01*
X165436297Y-109839448D01*
X165434624Y-109874641D01*
X165433408Y-109920904D01*
X165432496Y-109980470D01*
X165431735Y-110055571D01*
X165430973Y-110148439D01*
X165430648Y-110214127D01*
X165430562Y-110298754D01*
X164806879Y-110298754D01*
X164806771Y-110283686D01*
X164803750Y-109863789D01*
X163129200Y-109858439D01*
X163073750Y-109802995D01*
X163068750Y-109162505D01*
X163063750Y-108522016D01*
X163004537Y-108502029D01*
X162959689Y-108484054D01*
X162884086Y-108438650D01*
X162820847Y-108380229D01*
X162770983Y-108311278D01*
X162735508Y-108234284D01*
X162715432Y-108151732D01*
X162712937Y-108093439D01*
X162900272Y-108093439D01*
X162900460Y-108103958D01*
X162912014Y-108174475D01*
X162940330Y-108237026D01*
X162983784Y-108288906D01*
X163040751Y-108327409D01*
X163063727Y-108337321D01*
X163106488Y-108351173D01*
X163144356Y-108358579D01*
X163181638Y-108359282D01*
X163247206Y-108346576D01*
X163306361Y-108317746D01*
X163356560Y-108275206D01*
X163395260Y-108221366D01*
X163419918Y-108158642D01*
X163427990Y-108089446D01*
X163418255Y-108020266D01*
X163392362Y-107958478D01*
X163352953Y-107906867D01*
X163302656Y-107867028D01*
X163244099Y-107840555D01*
X163179909Y-107829040D01*
X163112715Y-107834077D01*
X163045145Y-107857261D01*
X163036803Y-107861520D01*
X162978874Y-107902927D01*
X162936008Y-107956689D01*
X162909406Y-108020846D01*
X162900272Y-108093439D01*
X162712937Y-108093439D01*
X162711768Y-108066110D01*
X162725528Y-107979905D01*
X162757723Y-107895602D01*
X162773169Y-107867397D01*
X162825806Y-107795386D01*
X162887938Y-107738615D01*
X162957401Y-107696747D01*
X163032029Y-107669443D01*
X163109659Y-107656368D01*
X163188126Y-107657184D01*
X163265266Y-107671554D01*
X163338914Y-107699141D01*
X163406906Y-107739607D01*
X163467077Y-107792616D01*
X163517264Y-107857831D01*
X163555301Y-107934913D01*
X163579024Y-108023527D01*
X163583133Y-108056332D01*
X163582316Y-108089446D01*
X163580981Y-108143597D01*
X163560999Y-108228387D01*
X163524722Y-108307813D01*
X163473686Y-108378987D01*
X163409428Y-108439022D01*
X163333484Y-108485031D01*
X163268750Y-108515324D01*
X163268750Y-109673559D01*
X164059691Y-109670999D01*
X164850631Y-109668439D01*
X164883250Y-109587579D01*
X164897154Y-109554602D01*
X164964483Y-109425241D01*
X165046936Y-109308160D01*
X165143647Y-109204464D01*
X165253750Y-109115254D01*
X165260769Y-109110582D01*
X165287379Y-109093938D01*
X165328934Y-109068692D01*
X165383831Y-109035790D01*
X165450469Y-108996181D01*
X165527249Y-108950811D01*
X165612567Y-108900628D01*
X165704825Y-108846579D01*
X165802419Y-108789611D01*
X165903750Y-108730672D01*
X166493750Y-108388110D01*
X166496300Y-107415774D01*
X166498849Y-106443439D01*
X165340636Y-106443439D01*
X165310179Y-106508524D01*
X165288053Y-106550145D01*
X165234954Y-106621356D01*
X165171153Y-106678280D01*
X165099074Y-106720659D01*
X165021142Y-106748231D01*
X164939782Y-106760739D01*
X164857418Y-106757920D01*
X164776475Y-106739517D01*
X164699378Y-106705269D01*
X164628551Y-106654916D01*
X164566418Y-106588200D01*
X164551072Y-106567189D01*
X164519040Y-106513787D01*
X164498439Y-106459396D01*
X164487384Y-106397964D01*
X164483991Y-106323439D01*
X164483977Y-106312205D01*
X164660414Y-106312205D01*
X164661456Y-106377154D01*
X164679155Y-106439948D01*
X164712166Y-106497312D01*
X164759146Y-106545972D01*
X164818750Y-106582653D01*
X164837442Y-106590245D01*
X164901389Y-106604028D01*
X164963582Y-106600457D01*
X165021841Y-106581554D01*
X165073983Y-106549347D01*
X165117830Y-106505858D01*
X165151199Y-106453115D01*
X165171912Y-106393140D01*
X165177786Y-106327960D01*
X165166641Y-106259599D01*
X165166419Y-106258854D01*
X165148184Y-106222056D01*
X165117368Y-106182010D01*
X165079286Y-106144033D01*
X165039255Y-106113440D01*
X165002590Y-106095548D01*
X164967258Y-106087509D01*
X164896128Y-106085287D01*
X164828923Y-106101081D01*
X164768510Y-106133580D01*
X164717759Y-106181470D01*
X164679536Y-106243439D01*
X164677372Y-106248376D01*
X164660414Y-106312205D01*
X164483977Y-106312205D01*
X164483974Y-106309471D01*
X164484567Y-106265242D01*
X164487172Y-106232910D01*
X164493072Y-106206025D01*
X164503548Y-106178133D01*
X164519881Y-106142784D01*
X164529083Y-106124473D01*
X164581527Y-106045419D01*
X164647472Y-105980839D01*
X164726184Y-105931481D01*
X164748111Y-105920961D01*
X164773509Y-105910333D01*
X164797422Y-105903711D01*
X164825221Y-105900152D01*
X164862277Y-105898709D01*
X164913961Y-105898439D01*
X164950155Y-105898540D01*
X164991630Y-105899500D01*
X165021936Y-105902244D01*
X165046385Y-105907687D01*
X165070289Y-105916746D01*
X165098961Y-105930336D01*
X165175519Y-105976041D01*
X165242485Y-106036009D01*
X165293369Y-106107467D01*
X165328740Y-106191058D01*
X165346491Y-106248439D01*
X165985121Y-106253439D01*
X166084488Y-106254266D01*
X166209299Y-106255490D01*
X166315956Y-106256800D01*
X166405542Y-106258223D01*
X166479139Y-106259788D01*
X166537830Y-106261522D01*
X166582699Y-106263455D01*
X166614828Y-106265615D01*
X166635300Y-106268029D01*
X166645199Y-106270727D01*
X166645209Y-106270733D01*
X166663598Y-106288726D01*
X166677699Y-106314720D01*
X166679128Y-106322299D01*
X166679587Y-106327960D01*
X166681036Y-106345806D01*
X166682719Y-106384499D01*
X166684181Y-106438914D01*
X166685429Y-106509585D01*
X166686469Y-106597046D01*
X166687306Y-106701833D01*
X166687947Y-106824481D01*
X166688397Y-106965523D01*
X166688663Y-107125494D01*
X166688750Y-107304931D01*
X166688757Y-107356791D01*
X166688832Y-107491352D01*
X166688988Y-107619588D01*
X166689218Y-107740130D01*
X166689516Y-107851613D01*
X166689877Y-107952668D01*
X166690294Y-108041928D01*
X166690761Y-108118025D01*
X166691272Y-108179592D01*
X166691821Y-108225262D01*
X166692402Y-108253666D01*
X166693009Y-108263439D01*
X166693747Y-108263243D01*
X166707089Y-108257353D01*
X166734129Y-108244488D01*
X166771418Y-108226307D01*
X166815509Y-108204470D01*
X166848711Y-108188308D01*
X166977669Y-108133817D01*
X167098683Y-108096802D01*
X167212926Y-108077127D01*
X167321571Y-108074652D01*
X167425793Y-108089239D01*
X167526765Y-108120751D01*
X167590466Y-108146252D01*
X167676169Y-108119682D01*
X167747312Y-108099168D01*
X167814416Y-108084409D01*
X167876080Y-108077146D01*
X167938836Y-108076641D01*
X168009221Y-108082159D01*
X168036928Y-108085441D01*
X168162240Y-108108354D01*
X168281161Y-108144830D01*
X168401250Y-108197085D01*
X168508750Y-108250214D01*
X168508750Y-107296330D01*
X168508743Y-107144017D01*
X168508754Y-106998566D01*
X168508846Y-106870821D01*
X168509080Y-106759592D01*
X168509516Y-106663693D01*
X168510216Y-106581935D01*
X168511239Y-106513128D01*
X168512649Y-106456086D01*
X168514504Y-106409619D01*
X168516867Y-106372539D01*
X168519799Y-106343658D01*
X168523164Y-106322986D01*
X170024707Y-106322986D01*
X170028967Y-106390565D01*
X170050001Y-106454007D01*
X170086625Y-106510380D01*
X170137656Y-106556748D01*
X170201910Y-106590178D01*
X170215840Y-106594126D01*
X170250854Y-106599720D01*
X170288750Y-106601917D01*
X170291617Y-106601903D01*
X170362059Y-106592283D01*
X170423907Y-106566591D01*
X170475560Y-106527414D01*
X170515420Y-106477341D01*
X170541886Y-106418958D01*
X170553359Y-106354854D01*
X170548239Y-106287616D01*
X170524928Y-106219833D01*
X170520669Y-106211491D01*
X170479262Y-106153562D01*
X170425500Y-106110696D01*
X170361343Y-106084094D01*
X170288750Y-106074960D01*
X170279168Y-106075109D01*
X170207535Y-106086520D01*
X170144584Y-106115246D01*
X170092277Y-106160084D01*
X170052573Y-106219833D01*
X170038402Y-106254206D01*
X170024707Y-106322986D01*
X168523164Y-106322986D01*
X168523359Y-106321787D01*
X168527610Y-106305739D01*
X168532613Y-106294324D01*
X168538427Y-106286355D01*
X168545115Y-106280642D01*
X168552737Y-106275998D01*
X168561354Y-106271235D01*
X168562061Y-106270869D01*
X168572354Y-106268148D01*
X168591810Y-106265731D01*
X168621632Y-106263586D01*
X168663025Y-106261679D01*
X168717192Y-106259979D01*
X168785339Y-106258452D01*
X168868668Y-106257068D01*
X168968385Y-106255792D01*
X169085694Y-106254593D01*
X169221799Y-106253439D01*
X169859847Y-106248439D01*
X169882128Y-106182222D01*
X169890461Y-106159793D01*
X169931147Y-106083327D01*
X169986169Y-106015855D01*
X170051737Y-105962292D01*
X170063009Y-105955149D01*
X170121429Y-105923833D01*
X170178990Y-105904520D01*
X170242213Y-105895565D01*
X170317621Y-105895327D01*
X170333145Y-105896046D01*
X170378424Y-105899470D01*
X170413244Y-105905487D01*
X170445057Y-105915766D01*
X170481317Y-105931978D01*
X170500014Y-105941537D01*
X170575487Y-105993596D01*
X170638237Y-106060898D01*
X170687620Y-106142784D01*
X170692415Y-106152869D01*
X170707132Y-106185702D01*
X170716318Y-106212724D01*
X170721256Y-106240386D01*
X170723225Y-106275140D01*
X170723510Y-106323439D01*
X170723167Y-106347552D01*
X170722559Y-106354854D01*
X170717076Y-106420686D01*
X170701999Y-106482288D01*
G37*
%TO.C,RGB1*%
X122327811Y-97488439D02*
X115027811Y-97488439D01*
X115027811Y-102988439D02*
X115027811Y-101838439D01*
X122327811Y-102988439D02*
X115027811Y-102988439D01*
%TD*%
D14*
%TO.C,U1*%
X145982811Y-87855939D03*
D15*
X145982811Y-90395939D03*
X145982811Y-92935939D03*
X145982811Y-95475939D03*
X145982811Y-98015939D03*
X145982811Y-100555939D03*
X145982811Y-103095939D03*
X145982811Y-105635939D03*
X145982811Y-108175939D03*
X145982811Y-110715939D03*
X145982811Y-113255939D03*
X145982811Y-115795939D03*
X161222811Y-115795939D03*
X161222811Y-113255939D03*
X161222811Y-110715939D03*
X161222811Y-108175939D03*
X161222811Y-105635939D03*
X161222811Y-103095939D03*
X161222811Y-100555939D03*
X161222811Y-98015939D03*
X161222811Y-95475939D03*
X161222811Y-92935939D03*
X161222811Y-90395939D03*
X161222811Y-87855939D03*
%TD*%
%LPC*%
D16*
%TO.C,MX8*%
X192972811Y-109763439D03*
D17*
X198052811Y-109763439D03*
D16*
X203132811Y-109763439D03*
D18*
X194242811Y-107223439D03*
X200592811Y-104683439D03*
%TD*%
D16*
%TO.C,MX5*%
X104072811Y-109763439D03*
X114232811Y-109763439D03*
D17*
X109152811Y-109763439D03*
D18*
X105342811Y-107223439D03*
X111692811Y-104683439D03*
%TD*%
D16*
%TO.C,MX6*%
X123122811Y-109763439D03*
X133282811Y-109763439D03*
D17*
X128202811Y-109763439D03*
D18*
X124392811Y-107223439D03*
X130742811Y-104683439D03*
%TD*%
D19*
%TO.C,SW1*%
X206876250Y-103728439D03*
D20*
X210576250Y-100218439D03*
D19*
X206876250Y-96718439D03*
D16*
X209366250Y-97718439D03*
X209366250Y-102718439D03*
%TD*%
D17*
%TO.C,MX3*%
X179002811Y-90713439D03*
D16*
X184082811Y-90713439D03*
X173922811Y-90713439D03*
D18*
X175192811Y-88173439D03*
X181542811Y-85633439D03*
%TD*%
D17*
%TO.C,MX7*%
X179002811Y-109763439D03*
D16*
X173922811Y-109763439D03*
X184082811Y-109763439D03*
D18*
X175192811Y-107223439D03*
X181542811Y-104683439D03*
%TD*%
D21*
%TO.C,OL1*%
X157518750Y-109243439D03*
D22*
X154978750Y-109243439D03*
X152438750Y-109243439D03*
X149898750Y-109243439D03*
%TD*%
D16*
%TO.C,MX2*%
X133282811Y-90713439D03*
D17*
X128202811Y-90713439D03*
D16*
X123122811Y-90713439D03*
D18*
X124392811Y-88173439D03*
X130742811Y-85633439D03*
%TD*%
D17*
%TO.C,MX1*%
X109152811Y-90713439D03*
D16*
X114232811Y-90713439D03*
X104072811Y-90713439D03*
D18*
X105342811Y-88173439D03*
X111692811Y-85633439D03*
%TD*%
D14*
%TO.C,U1*%
X145982811Y-87855939D03*
D15*
X145982811Y-90395939D03*
X145982811Y-92935939D03*
X145982811Y-95475939D03*
X145982811Y-98015939D03*
X145982811Y-100555939D03*
X145982811Y-103095939D03*
X145982811Y-105635939D03*
X145982811Y-108175939D03*
X145982811Y-110715939D03*
X145982811Y-113255939D03*
X145982811Y-115795939D03*
X161222811Y-115795939D03*
X161222811Y-113255939D03*
X161222811Y-110715939D03*
X161222811Y-108175939D03*
X161222811Y-105635939D03*
X161222811Y-103095939D03*
X161222811Y-100555939D03*
X161222811Y-98015939D03*
X161222811Y-95475939D03*
X161222811Y-92935939D03*
X161222811Y-90395939D03*
X161222811Y-87855939D03*
%TD*%
D16*
%TO.C,MX4*%
X192972811Y-90713439D03*
X203132811Y-90713439D03*
D17*
X198052811Y-90713439D03*
D18*
X194242811Y-88173439D03*
X200592811Y-85633439D03*
%TD*%
D23*
%TO.C,RGB4*%
X190977811Y-98638439D03*
X190977811Y-101838439D03*
X186077811Y-101838439D03*
X186077811Y-98638439D03*
%TD*%
%TO.C,RGB3*%
X171927811Y-98638439D03*
X171927811Y-101838439D03*
X167027811Y-101838439D03*
X167027811Y-98638439D03*
%TD*%
%TO.C,RGB2*%
X140177811Y-98638439D03*
X140177811Y-101838439D03*
X135277811Y-101838439D03*
X135277811Y-98638439D03*
%TD*%
%TO.C,RGB1*%
X121127811Y-98638439D03*
X121127811Y-101838439D03*
X116227811Y-101838439D03*
X116227811Y-98638439D03*
%TD*%
M02*
