%TF.GenerationSoftware,KiCad,Pcbnew,(6.0.4)*%
%TF.CreationDate,2022-04-15T23:45:21+02:00*%
%TF.ProjectId,TutelPad,54757465-6c50-4616-942e-6b696361645f,rev1.0*%
%TF.SameCoordinates,Original*%
%TF.FileFunction,Paste,Bot*%
%TF.FilePolarity,Positive*%
%FSLAX46Y46*%
G04 Gerber Fmt 4.6, Leading zero omitted, Abs format (unit mm)*
G04 Created by KiCad (PCBNEW (6.0.4)) date 2022-04-15 23:45:21*
%MOMM*%
%LPD*%
G01*
G04 APERTURE LIST*
%TA.AperFunction,Profile*%
%ADD10C,0.250000*%
%TD*%
%ADD11R,1.500000X1.000000*%
G04 APERTURE END LIST*
D10*
X98598750Y-79243440D02*
G75*
G03*
X93598750Y-84243439I0J-5000000D01*
G01*
X208598750Y-79243439D02*
X98598750Y-79243439D01*
X98598750Y-121243439D02*
X208598750Y-121243439D01*
X208598750Y-121243350D02*
G75*
G03*
X213598750Y-116243439I50J4999950D01*
G01*
X213598761Y-84243439D02*
G75*
G03*
X208598750Y-79243439I-4999961J39D01*
G01*
X100848750Y-116743439D02*
G75*
G03*
X100848750Y-116743439I-2750000J0D01*
G01*
X211848750Y-83743439D02*
G75*
G03*
X211848750Y-83743439I-2750000J0D01*
G01*
X211848750Y-116743439D02*
G75*
G03*
X211848750Y-116743439I-2750000J0D01*
G01*
X93598661Y-116243439D02*
G75*
G03*
X98598750Y-121243439I5000039J39D01*
G01*
X93598750Y-84243439D02*
X93598750Y-116243439D01*
X100848750Y-83743439D02*
G75*
G03*
X100848750Y-83743439I-2750000J0D01*
G01*
X213598750Y-116243439D02*
X213598750Y-84243439D01*
D11*
%TO.C,RGB4*%
X190977811Y-98638439D03*
X190977811Y-101838439D03*
X186077811Y-101838439D03*
X186077811Y-98638439D03*
%TD*%
%TO.C,RGB3*%
X171927811Y-98638439D03*
X171927811Y-101838439D03*
X167027811Y-101838439D03*
X167027811Y-98638439D03*
%TD*%
%TO.C,RGB2*%
X140177811Y-98638439D03*
X140177811Y-101838439D03*
X135277811Y-101838439D03*
X135277811Y-98638439D03*
%TD*%
%TO.C,RGB1*%
X121127811Y-98638439D03*
X121127811Y-101838439D03*
X116227811Y-101838439D03*
X116227811Y-98638439D03*
%TD*%
M02*
