M48
; DRILL file {KiCad (6.0.4)} date Fri 15 Apr 2022 11:45:26 PM CEST
; FORMAT={-:-/ absolute / metric / decimal}
; #@! TF.CreationDate,2022-04-15T23:45:26+02:00
; #@! TF.GenerationSoftware,Kicad,Pcbnew,(6.0.4)
; #@! TF.FileFunction,MixedPlating,1,2
FMAT,2
METRIC
; #@! TA.AperFunction,Plated,PTH,ViaDrill
T1C0.400
; #@! TA.AperFunction,Plated,PTH,ComponentDrill
T2C0.990
; #@! TA.AperFunction,Plated,PTH,ComponentDrill
T3C1.000
; #@! TA.AperFunction,Plated,PTH,ComponentDrill
T4C1.092
; #@! TA.AperFunction,Plated,PTH,ComponentDrill
T5C1.300
; #@! TA.AperFunction,Plated,PTH,ComponentDrill
T6C1.500
; #@! TA.AperFunction,NonPlated,NPTH,ComponentDrill
T7C1.200
; #@! TA.AperFunction,NonPlated,NPTH,ComponentDrill
T8C1.750
; #@! TA.AperFunction,NonPlated,NPTH,ComponentDrill
T9C4.000
%
G90
G05
T1
X127.019Y-96.423
X127.019Y-97.703
X141.697Y-92.803
X142.159Y-109.303
X142.967Y-101.508
X143.069Y-97.713
X144.209Y-91.723
X148.959Y-104.573
X151.029Y-110.903
X152.359Y-103.153
X154.979Y-96.753
X162.569Y-109.413
X162.879Y-99.283
X162.889Y-91.723
X164.306Y-104.063
X171.979Y-97.703
X188.789Y-98.633
T2
X209.366Y-97.718
X209.366Y-102.718
T3
X149.899Y-109.243
X152.439Y-109.243
X154.979Y-109.243
X157.519Y-109.243
T4
X145.983Y-87.856
X145.983Y-90.396
X145.983Y-92.936
X145.983Y-95.476
X145.983Y-98.016
X145.983Y-100.556
X145.983Y-103.096
X145.983Y-105.636
X145.983Y-108.176
X145.983Y-110.716
X145.983Y-113.256
X145.983Y-115.796
X161.223Y-87.856
X161.223Y-90.396
X161.223Y-92.936
X161.223Y-95.476
X161.223Y-98.016
X161.223Y-100.556
X161.223Y-103.096
X161.223Y-105.636
X161.223Y-108.176
X161.223Y-110.716
X161.223Y-113.256
X161.223Y-115.796
T5
X206.876Y-96.718
X206.876Y-103.728
T6
X105.343Y-88.173
X105.343Y-107.223
X111.693Y-85.633
X111.693Y-104.683
X124.393Y-88.173
X124.393Y-107.223
X130.743Y-85.633
X130.743Y-104.683
X175.193Y-88.173
X175.193Y-107.223
X181.543Y-85.633
X181.543Y-104.683
X194.243Y-88.173
X194.243Y-107.223
X200.593Y-85.633
X200.593Y-104.683
T7
X210.576Y-100.218
T8
X104.073Y-90.713
X104.073Y-109.763
X114.233Y-90.713
X114.233Y-109.763
X123.123Y-90.713
X123.123Y-109.763
X133.283Y-90.713
X133.283Y-109.763
X173.923Y-90.713
X173.923Y-109.763
X184.083Y-90.713
X184.083Y-109.763
X192.973Y-90.713
X192.973Y-109.763
X203.133Y-90.713
X203.133Y-109.763
T9
X109.153Y-90.713
X109.153Y-109.763
X128.203Y-90.713
X128.203Y-109.763
X179.003Y-90.713
X179.003Y-109.763
X198.053Y-90.713
X198.053Y-109.763
T0
M30
