%TF.GenerationSoftware,KiCad,Pcbnew,(6.0.4)*%
%TF.CreationDate,2022-05-04T20:00:02+02:00*%
%TF.ProjectId,TutelPad,54757465-6c50-4616-942e-6b696361645f,rev1.0*%
%TF.SameCoordinates,Original*%
%TF.FileFunction,Soldermask,Bot*%
%TF.FilePolarity,Negative*%
%FSLAX46Y46*%
G04 Gerber Fmt 4.6, Leading zero omitted, Abs format (unit mm)*
G04 Created by KiCad (PCBNEW (6.0.4)) date 2022-05-04 20:00:02*
%MOMM*%
%LPD*%
G01*
G04 APERTURE LIST*
%ADD10C,1.750000*%
%ADD11C,4.000000*%
%ADD12C,2.500000*%
%ADD13C,2.100000*%
%ADD14C,1.200000*%
%ADD15R,1.600000X2.000000*%
%ADD16O,1.600000X2.000000*%
%ADD17R,1.752600X1.752600*%
%ADD18C,1.752600*%
%ADD19R,1.500000X1.000000*%
G04 APERTURE END LIST*
D10*
%TO.C,MX8*%
X192972811Y-109763439D03*
D11*
X198052811Y-109763439D03*
D10*
X203132811Y-109763439D03*
D12*
X194242811Y-107223439D03*
X200592811Y-104683439D03*
%TD*%
D10*
%TO.C,MX5*%
X104072811Y-109763439D03*
X114232811Y-109763439D03*
D11*
X109152811Y-109763439D03*
D12*
X105342811Y-107223439D03*
X111692811Y-104683439D03*
%TD*%
D10*
%TO.C,MX6*%
X123122811Y-109763439D03*
X133282811Y-109763439D03*
D11*
X128202811Y-109763439D03*
D12*
X124392811Y-107223439D03*
X130742811Y-104683439D03*
%TD*%
D13*
%TO.C,SW1*%
X206876250Y-103728439D03*
D14*
X210576250Y-100218439D03*
D13*
X206876250Y-96718439D03*
D10*
X209366250Y-97718439D03*
X209366250Y-102718439D03*
%TD*%
D11*
%TO.C,MX3*%
X179002811Y-90713439D03*
D10*
X184082811Y-90713439D03*
X173922811Y-90713439D03*
D12*
X175192811Y-88173439D03*
X181542811Y-85633439D03*
%TD*%
D11*
%TO.C,MX7*%
X179002811Y-109763439D03*
D10*
X173922811Y-109763439D03*
X184082811Y-109763439D03*
D12*
X175192811Y-107223439D03*
X181542811Y-104683439D03*
%TD*%
D15*
%TO.C,OL1*%
X157518750Y-109243439D03*
D16*
X154978750Y-109243439D03*
X152438750Y-109243439D03*
X149898750Y-109243439D03*
%TD*%
D10*
%TO.C,MX2*%
X133282811Y-90713439D03*
D11*
X128202811Y-90713439D03*
D10*
X123122811Y-90713439D03*
D12*
X124392811Y-88173439D03*
X130742811Y-85633439D03*
%TD*%
D11*
%TO.C,MX1*%
X109152811Y-90713439D03*
D10*
X114232811Y-90713439D03*
X104072811Y-90713439D03*
D12*
X105342811Y-88173439D03*
X111692811Y-85633439D03*
%TD*%
D17*
%TO.C,U1*%
X145982811Y-87855939D03*
D18*
X145982811Y-90395939D03*
X145982811Y-92935939D03*
X145982811Y-95475939D03*
X145982811Y-98015939D03*
X145982811Y-100555939D03*
X145982811Y-103095939D03*
X145982811Y-105635939D03*
X145982811Y-108175939D03*
X145982811Y-110715939D03*
X145982811Y-113255939D03*
X145982811Y-115795939D03*
X161222811Y-115795939D03*
X161222811Y-113255939D03*
X161222811Y-110715939D03*
X161222811Y-108175939D03*
X161222811Y-105635939D03*
X161222811Y-103095939D03*
X161222811Y-100555939D03*
X161222811Y-98015939D03*
X161222811Y-95475939D03*
X161222811Y-92935939D03*
X161222811Y-90395939D03*
X161222811Y-87855939D03*
%TD*%
D10*
%TO.C,MX4*%
X192972811Y-90713439D03*
X203132811Y-90713439D03*
D11*
X198052811Y-90713439D03*
D12*
X194242811Y-88173439D03*
X200592811Y-85633439D03*
%TD*%
D19*
%TO.C,RGB4*%
X190977811Y-98638439D03*
X190977811Y-101838439D03*
X186077811Y-101838439D03*
X186077811Y-98638439D03*
%TD*%
%TO.C,RGB3*%
X171927811Y-98638439D03*
X171927811Y-101838439D03*
X167027811Y-101838439D03*
X167027811Y-98638439D03*
%TD*%
%TO.C,RGB2*%
X140177811Y-98638439D03*
X140177811Y-101838439D03*
X135277811Y-101838439D03*
X135277811Y-98638439D03*
%TD*%
%TO.C,RGB1*%
X121127811Y-98638439D03*
X121127811Y-101838439D03*
X116227811Y-101838439D03*
X116227811Y-98638439D03*
%TD*%
M02*
