%TF.GenerationSoftware,KiCad,Pcbnew,(6.0.4)*%
%TF.CreationDate,2022-04-30T20:49:41+02:00*%
%TF.ProjectId,switchplate,73776974-6368-4706-9c61-74652e6b6963,rev?*%
%TF.SameCoordinates,Original*%
%TF.FileFunction,Profile,NP*%
%FSLAX46Y46*%
G04 Gerber Fmt 4.6, Leading zero omitted, Abs format (unit mm)*
G04 Created by KiCad (PCBNEW (6.0.4)) date 2022-04-30 20:49:41*
%MOMM*%
%LPD*%
G01*
G04 APERTURE LIST*
%TA.AperFunction,Profile*%
%ADD10C,0.250000*%
%TD*%
G04 APERTURE END LIST*
D10*
X136010000Y-79765000D02*
X136010000Y-108765000D01*
X205510000Y-76805000D02*
X95510000Y-76805000D01*
X187960000Y-81280000D02*
X187960000Y-95280000D01*
X90510000Y-113805000D02*
G75*
G03*
X95510000Y-118805000I5000000J0D01*
G01*
X210510000Y-81805000D02*
G75*
G03*
X205510000Y-76805000I-5000000J0D01*
G01*
X168910000Y-95280000D02*
X182910000Y-95280000D01*
X201960000Y-114330000D02*
X201960000Y-100330000D01*
X168910000Y-114330000D02*
X182910000Y-114330000D01*
X187960000Y-114330000D02*
X201960000Y-114330000D01*
X201960000Y-95280000D02*
X201960000Y-81280000D01*
X182910000Y-95280000D02*
X182910000Y-81280000D01*
X118110000Y-100330000D02*
X118110000Y-114330000D01*
X132110000Y-81280000D02*
X118110000Y-81280000D01*
X90510000Y-81805000D02*
X90510000Y-113805000D01*
X187960000Y-95280000D02*
X201960000Y-95280000D01*
X168910000Y-100330000D02*
X168910000Y-114330000D01*
X99060000Y-81280000D02*
X99060000Y-95280000D01*
X99060000Y-114330000D02*
X113060000Y-114330000D01*
X132110000Y-114330000D02*
X132110000Y-100330000D01*
X205510000Y-118805000D02*
G75*
G03*
X210510000Y-113805000I0J5000000D01*
G01*
X182910000Y-100330000D02*
X168910000Y-100330000D01*
X165010000Y-79765000D02*
X136010000Y-79765000D01*
X118110000Y-81280000D02*
X118110000Y-95280000D01*
X165010000Y-108765000D02*
X165010000Y-79765000D01*
X113060000Y-100330000D02*
X99060000Y-100330000D01*
X210510000Y-113805000D02*
X210510000Y-81805000D01*
X201960000Y-81280000D02*
X187960000Y-81280000D01*
X118110000Y-114330000D02*
X132110000Y-114330000D01*
X118110000Y-95280000D02*
X132110000Y-95280000D01*
X99060000Y-95280000D02*
X113060000Y-95280000D01*
X187960000Y-100330000D02*
X187960000Y-114330000D01*
X182910000Y-81280000D02*
X168910000Y-81280000D01*
X95510000Y-76805000D02*
G75*
G03*
X90510000Y-81805000I0J-5000000D01*
G01*
X132110000Y-95280000D02*
X132110000Y-81280000D01*
X99060000Y-100330000D02*
X99060000Y-114330000D01*
X136010000Y-108765000D02*
X165010000Y-108765000D01*
X168910000Y-81280000D02*
X168910000Y-95280000D01*
X113060000Y-114330000D02*
X113060000Y-100330000D01*
X201960000Y-100330000D02*
X187960000Y-100330000D01*
X132110000Y-100330000D02*
X118110000Y-100330000D01*
X95510000Y-118805000D02*
X205510000Y-118805000D01*
X113060000Y-95280000D02*
X113060000Y-81280000D01*
X182910000Y-114330000D02*
X182910000Y-100330000D01*
X113060000Y-81280000D02*
X99060000Y-81280000D01*
M02*
