%TF.GenerationSoftware,KiCad,Pcbnew,(6.0.4)*%
%TF.CreationDate,2022-04-30T20:49:41+02:00*%
%TF.ProjectId,switchplate,73776974-6368-4706-9c61-74652e6b6963,rev?*%
%TF.SameCoordinates,Original*%
%TF.FileFunction,Legend,Top*%
%TF.FilePolarity,Positive*%
%FSLAX46Y46*%
G04 Gerber Fmt 4.6, Leading zero omitted, Abs format (unit mm)*
G04 Created by KiCad (PCBNEW (6.0.4)) date 2022-04-30 20:49:41*
%MOMM*%
%LPD*%
G01*
G04 APERTURE LIST*
%ADD10C,1.000000*%
%ADD11C,0.132499*%
%ADD12C,3.800000*%
%ADD13C,2.600000*%
G04 APERTURE END LIST*
D10*
X135890000Y-79630000D02*
X135880000Y-108890000D01*
D11*
G36*
X155406502Y-111779127D02*
G01*
X153168915Y-111779127D01*
X153168915Y-112939260D01*
X155264390Y-112939260D01*
X155264390Y-113383672D01*
X153168915Y-113383672D01*
X153168915Y-114672994D01*
X155494347Y-114672994D01*
X155494347Y-115119993D01*
X152667656Y-115120000D01*
X152667656Y-111332128D01*
X155406502Y-111332128D01*
X155406502Y-111779127D01*
G37*
X155406502Y-111779127D02*
X153168915Y-111779127D01*
X153168915Y-112939260D01*
X155264390Y-112939260D01*
X155264390Y-113383672D01*
X153168915Y-113383672D01*
X153168915Y-114672994D01*
X155494347Y-114672994D01*
X155494347Y-115119993D01*
X152667656Y-115120000D01*
X152667656Y-111332128D01*
X155406502Y-111332128D01*
X155406502Y-111779127D01*
D10*
X165140000Y-79640000D02*
X135890000Y-79630000D01*
X135880000Y-108890000D02*
X165140000Y-108900000D01*
D11*
G36*
X156667405Y-114672994D02*
G01*
X158532920Y-114672994D01*
X158532920Y-115119993D01*
X156166146Y-115120000D01*
X156166146Y-111332128D01*
X156667405Y-111332128D01*
X156667405Y-114672994D01*
G37*
X156667405Y-114672994D02*
X158532920Y-114672994D01*
X158532920Y-115119993D01*
X156166146Y-115120000D01*
X156166146Y-111332128D01*
X156667405Y-111332128D01*
X156667405Y-114672994D01*
G36*
X146112527Y-113518033D02*
G01*
X146113940Y-113637372D01*
X146118179Y-113748638D01*
X146125244Y-113851829D01*
X146135135Y-113946946D01*
X146147852Y-114033988D01*
X146163394Y-114112957D01*
X146172226Y-114149413D01*
X146181763Y-114183851D01*
X146192007Y-114216271D01*
X146202958Y-114246671D01*
X146215090Y-114275325D01*
X146228231Y-114303152D01*
X146242381Y-114330151D01*
X146257541Y-114356323D01*
X146273710Y-114381666D01*
X146290888Y-114406183D01*
X146309075Y-114429871D01*
X146328272Y-114452733D01*
X146348478Y-114474766D01*
X146369693Y-114495972D01*
X146391918Y-114516350D01*
X146415152Y-114535900D01*
X146439395Y-114554623D01*
X146464648Y-114572518D01*
X146490910Y-114589585D01*
X146518182Y-114605825D01*
X146546665Y-114621156D01*
X146575915Y-114635498D01*
X146605932Y-114648851D01*
X146636716Y-114661214D01*
X146668266Y-114672589D01*
X146700584Y-114682974D01*
X146733669Y-114692370D01*
X146767521Y-114700777D01*
X146802140Y-114708195D01*
X146837526Y-114714624D01*
X146873679Y-114720064D01*
X146910599Y-114724515D01*
X146948286Y-114727976D01*
X146986740Y-114730449D01*
X147025961Y-114731933D01*
X147065949Y-114732427D01*
X147133825Y-114731448D01*
X147199217Y-114728511D01*
X147262126Y-114723616D01*
X147322553Y-114716763D01*
X147380497Y-114707952D01*
X147435958Y-114697182D01*
X147488936Y-114684455D01*
X147539432Y-114669770D01*
X147587444Y-114653126D01*
X147632974Y-114634525D01*
X147676021Y-114613965D01*
X147716585Y-114591447D01*
X147754666Y-114566971D01*
X147790264Y-114540537D01*
X147823380Y-114512144D01*
X147854012Y-114481794D01*
X147882485Y-114448658D01*
X147909121Y-114411908D01*
X147933920Y-114371546D01*
X147956882Y-114327570D01*
X147978007Y-114279982D01*
X147997295Y-114228780D01*
X148014746Y-114173964D01*
X148030360Y-114115536D01*
X148044137Y-114053495D01*
X148056078Y-113987840D01*
X148066181Y-113918572D01*
X148074447Y-113845691D01*
X148080876Y-113769196D01*
X148085469Y-113689089D01*
X148088224Y-113605368D01*
X148089143Y-113518033D01*
X148089143Y-111332128D01*
X148590402Y-111332128D01*
X148590402Y-113520620D01*
X148588383Y-113659702D01*
X148582328Y-113791436D01*
X148572235Y-113915822D01*
X148558105Y-114032859D01*
X148539938Y-114142549D01*
X148529341Y-114194639D01*
X148517734Y-114244891D01*
X148505118Y-114293307D01*
X148491492Y-114339886D01*
X148476857Y-114384628D01*
X148461213Y-114427534D01*
X148444247Y-114469036D01*
X148425645Y-114509570D01*
X148405409Y-114549135D01*
X148383538Y-114587731D01*
X148360031Y-114625358D01*
X148334890Y-114662016D01*
X148308114Y-114697705D01*
X148279702Y-114732425D01*
X148249656Y-114766176D01*
X148217974Y-114798959D01*
X148184657Y-114830772D01*
X148149706Y-114861616D01*
X148113119Y-114891491D01*
X148074896Y-114920397D01*
X148035039Y-114948334D01*
X147993546Y-114975301D01*
X147950732Y-115000645D01*
X147906262Y-115024353D01*
X147860137Y-115046427D01*
X147812356Y-115066865D01*
X147762921Y-115085669D01*
X147711830Y-115102837D01*
X147659084Y-115118370D01*
X147604682Y-115132268D01*
X147548625Y-115144531D01*
X147490913Y-115155159D01*
X147431546Y-115164152D01*
X147370523Y-115171510D01*
X147307845Y-115177233D01*
X147243512Y-115181321D01*
X147177523Y-115183773D01*
X147109879Y-115184591D01*
X147044103Y-115183874D01*
X146979841Y-115181724D01*
X146917093Y-115178141D01*
X146855859Y-115173125D01*
X146796139Y-115166676D01*
X146737933Y-115158793D01*
X146681241Y-115149478D01*
X146626062Y-115138729D01*
X146572398Y-115126546D01*
X146520248Y-115112931D01*
X146469611Y-115097883D01*
X146420488Y-115081401D01*
X146372880Y-115063486D01*
X146326785Y-115044138D01*
X146282204Y-115023356D01*
X146239137Y-115001142D01*
X146197583Y-114977575D01*
X146157544Y-114952736D01*
X146119019Y-114926626D01*
X146082008Y-114899244D01*
X146046511Y-114870590D01*
X146012527Y-114840664D01*
X145980058Y-114809466D01*
X145949103Y-114776997D01*
X145919661Y-114743256D01*
X145891734Y-114708243D01*
X145865320Y-114671958D01*
X145840420Y-114634401D01*
X145817034Y-114595573D01*
X145795162Y-114555472D01*
X145774804Y-114514100D01*
X145755960Y-114471456D01*
X145738439Y-114426865D01*
X145722048Y-114380296D01*
X145706788Y-114331748D01*
X145692658Y-114281222D01*
X145679659Y-114228719D01*
X145667789Y-114174237D01*
X145657051Y-114117776D01*
X145647442Y-114059338D01*
X145638964Y-113998922D01*
X145631616Y-113936527D01*
X145625399Y-113872154D01*
X145620312Y-113805804D01*
X145616355Y-113737475D01*
X145613529Y-113667168D01*
X145611834Y-113594883D01*
X145611268Y-113520620D01*
X145611268Y-111332128D01*
X146112527Y-111332128D01*
X146112527Y-113518033D01*
G37*
X146112527Y-113518033D02*
X146113940Y-113637372D01*
X146118179Y-113748638D01*
X146125244Y-113851829D01*
X146135135Y-113946946D01*
X146147852Y-114033988D01*
X146163394Y-114112957D01*
X146172226Y-114149413D01*
X146181763Y-114183851D01*
X146192007Y-114216271D01*
X146202958Y-114246671D01*
X146215090Y-114275325D01*
X146228231Y-114303152D01*
X146242381Y-114330151D01*
X146257541Y-114356323D01*
X146273710Y-114381666D01*
X146290888Y-114406183D01*
X146309075Y-114429871D01*
X146328272Y-114452733D01*
X146348478Y-114474766D01*
X146369693Y-114495972D01*
X146391918Y-114516350D01*
X146415152Y-114535900D01*
X146439395Y-114554623D01*
X146464648Y-114572518D01*
X146490910Y-114589585D01*
X146518182Y-114605825D01*
X146546665Y-114621156D01*
X146575915Y-114635498D01*
X146605932Y-114648851D01*
X146636716Y-114661214D01*
X146668266Y-114672589D01*
X146700584Y-114682974D01*
X146733669Y-114692370D01*
X146767521Y-114700777D01*
X146802140Y-114708195D01*
X146837526Y-114714624D01*
X146873679Y-114720064D01*
X146910599Y-114724515D01*
X146948286Y-114727976D01*
X146986740Y-114730449D01*
X147025961Y-114731933D01*
X147065949Y-114732427D01*
X147133825Y-114731448D01*
X147199217Y-114728511D01*
X147262126Y-114723616D01*
X147322553Y-114716763D01*
X147380497Y-114707952D01*
X147435958Y-114697182D01*
X147488936Y-114684455D01*
X147539432Y-114669770D01*
X147587444Y-114653126D01*
X147632974Y-114634525D01*
X147676021Y-114613965D01*
X147716585Y-114591447D01*
X147754666Y-114566971D01*
X147790264Y-114540537D01*
X147823380Y-114512144D01*
X147854012Y-114481794D01*
X147882485Y-114448658D01*
X147909121Y-114411908D01*
X147933920Y-114371546D01*
X147956882Y-114327570D01*
X147978007Y-114279982D01*
X147997295Y-114228780D01*
X148014746Y-114173964D01*
X148030360Y-114115536D01*
X148044137Y-114053495D01*
X148056078Y-113987840D01*
X148066181Y-113918572D01*
X148074447Y-113845691D01*
X148080876Y-113769196D01*
X148085469Y-113689089D01*
X148088224Y-113605368D01*
X148089143Y-113518033D01*
X148089143Y-111332128D01*
X148590402Y-111332128D01*
X148590402Y-113520620D01*
X148588383Y-113659702D01*
X148582328Y-113791436D01*
X148572235Y-113915822D01*
X148558105Y-114032859D01*
X148539938Y-114142549D01*
X148529341Y-114194639D01*
X148517734Y-114244891D01*
X148505118Y-114293307D01*
X148491492Y-114339886D01*
X148476857Y-114384628D01*
X148461213Y-114427534D01*
X148444247Y-114469036D01*
X148425645Y-114509570D01*
X148405409Y-114549135D01*
X148383538Y-114587731D01*
X148360031Y-114625358D01*
X148334890Y-114662016D01*
X148308114Y-114697705D01*
X148279702Y-114732425D01*
X148249656Y-114766176D01*
X148217974Y-114798959D01*
X148184657Y-114830772D01*
X148149706Y-114861616D01*
X148113119Y-114891491D01*
X148074896Y-114920397D01*
X148035039Y-114948334D01*
X147993546Y-114975301D01*
X147950732Y-115000645D01*
X147906262Y-115024353D01*
X147860137Y-115046427D01*
X147812356Y-115066865D01*
X147762921Y-115085669D01*
X147711830Y-115102837D01*
X147659084Y-115118370D01*
X147604682Y-115132268D01*
X147548625Y-115144531D01*
X147490913Y-115155159D01*
X147431546Y-115164152D01*
X147370523Y-115171510D01*
X147307845Y-115177233D01*
X147243512Y-115181321D01*
X147177523Y-115183773D01*
X147109879Y-115184591D01*
X147044103Y-115183874D01*
X146979841Y-115181724D01*
X146917093Y-115178141D01*
X146855859Y-115173125D01*
X146796139Y-115166676D01*
X146737933Y-115158793D01*
X146681241Y-115149478D01*
X146626062Y-115138729D01*
X146572398Y-115126546D01*
X146520248Y-115112931D01*
X146469611Y-115097883D01*
X146420488Y-115081401D01*
X146372880Y-115063486D01*
X146326785Y-115044138D01*
X146282204Y-115023356D01*
X146239137Y-115001142D01*
X146197583Y-114977575D01*
X146157544Y-114952736D01*
X146119019Y-114926626D01*
X146082008Y-114899244D01*
X146046511Y-114870590D01*
X146012527Y-114840664D01*
X145980058Y-114809466D01*
X145949103Y-114776997D01*
X145919661Y-114743256D01*
X145891734Y-114708243D01*
X145865320Y-114671958D01*
X145840420Y-114634401D01*
X145817034Y-114595573D01*
X145795162Y-114555472D01*
X145774804Y-114514100D01*
X145755960Y-114471456D01*
X145738439Y-114426865D01*
X145722048Y-114380296D01*
X145706788Y-114331748D01*
X145692658Y-114281222D01*
X145679659Y-114228719D01*
X145667789Y-114174237D01*
X145657051Y-114117776D01*
X145647442Y-114059338D01*
X145638964Y-113998922D01*
X145631616Y-113936527D01*
X145625399Y-113872154D01*
X145620312Y-113805804D01*
X145616355Y-113737475D01*
X145613529Y-113667168D01*
X145611834Y-113594883D01*
X145611268Y-113520620D01*
X145611268Y-111332128D01*
X146112527Y-111332128D01*
X146112527Y-113518033D01*
G36*
X145089334Y-111779134D02*
G01*
X143836191Y-111779134D01*
X143836191Y-115120000D01*
X143334932Y-115120000D01*
X143334932Y-111779134D01*
X142086946Y-111779134D01*
X142086946Y-111332136D01*
X145089334Y-111332136D01*
X145089334Y-111779134D01*
G37*
X145089334Y-111779134D02*
X143836191Y-111779134D01*
X143836191Y-115120000D01*
X143334932Y-115120000D01*
X143334932Y-111779134D01*
X142086946Y-111779134D01*
X142086946Y-111332136D01*
X145089334Y-111332136D01*
X145089334Y-111779134D01*
D10*
X165150000Y-108900000D02*
X165140000Y-79640000D01*
D11*
G36*
X152143151Y-111779134D02*
G01*
X150890000Y-111779134D01*
X150890000Y-115120000D01*
X150388741Y-115120000D01*
X150388741Y-111779134D01*
X149140756Y-111779134D01*
X149140756Y-111332136D01*
X152143151Y-111332136D01*
X152143151Y-111779134D01*
G37*
X152143151Y-111779134D02*
X150890000Y-111779134D01*
X150890000Y-115120000D01*
X150388741Y-115120000D01*
X150388741Y-111779134D01*
X149140756Y-111779134D01*
X149140756Y-111332136D01*
X152143151Y-111332136D01*
X152143151Y-111779134D01*
%LPC*%
D12*
%TO.C,REF\u002A\u002A*%
X206010000Y-81300000D03*
D13*
X206010000Y-81300000D03*
%TD*%
D12*
%TO.C,REF\u002A\u002A*%
X206010000Y-114300000D03*
D13*
X206010000Y-114300000D03*
%TD*%
%TO.C,REF\u002A\u002A*%
X95010000Y-81310000D03*
D12*
X95010000Y-81310000D03*
%TD*%
D13*
%TO.C,REF\u002A\u002A*%
X95010000Y-114300000D03*
D12*
X95010000Y-114300000D03*
%TD*%
M02*
