%TF.GenerationSoftware,KiCad,Pcbnew,(6.0.0)*%
%TF.CreationDate,2022-03-13T18:47:54+01:00*%
%TF.ProjectId,TurtlePad,54757274-6c65-4506-9164-2e6b69636164,rev?*%
%TF.SameCoordinates,Original*%
%TF.FileFunction,Legend,Top*%
%TF.FilePolarity,Positive*%
%FSLAX46Y46*%
G04 Gerber Fmt 4.6, Leading zero omitted, Abs format (unit mm)*
G04 Created by KiCad (PCBNEW (6.0.0)) date 2022-03-13 18:47:54*
%MOMM*%
%LPD*%
G01*
G04 APERTURE LIST*
%TA.AperFunction,Profile*%
%ADD10C,0.250000*%
%TD*%
%ADD11C,0.150000*%
%ADD12R,1.752600X1.752600*%
%ADD13C,1.752600*%
%ADD14C,1.750000*%
%ADD15C,4.000000*%
%ADD16C,2.500000*%
%ADD17O,1.600000X2.000000*%
%ADD18C,2.100000*%
G04 APERTURE END LIST*
D10*
X98598750Y-79243439D02*
G75*
G03*
X93598750Y-84243439I0J-5000000D01*
G01*
X208598750Y-79243439D02*
X98598750Y-79243439D01*
X98598750Y-121243439D02*
X208598750Y-121243439D01*
X208598750Y-121243439D02*
G75*
G03*
X213598750Y-116243439I0J5000000D01*
G01*
X213598750Y-84243439D02*
G75*
G03*
X208598750Y-79243439I-5000000J0D01*
G01*
X100848750Y-116743439D02*
G75*
G03*
X100848750Y-116743439I-2750000J0D01*
G01*
X211848750Y-83743439D02*
G75*
G03*
X211848750Y-83743439I-2750000J0D01*
G01*
X211848750Y-116743439D02*
G75*
G03*
X211848750Y-116743439I-2750000J0D01*
G01*
X93598750Y-116243439D02*
G75*
G03*
X98598750Y-121243439I5000000J0D01*
G01*
X93598750Y-84243439D02*
X93598750Y-116243439D01*
X100848750Y-83743439D02*
G75*
G03*
X100848750Y-83743439I-2750000J0D01*
G01*
X213598750Y-116243439D02*
X213598750Y-84243439D01*
D11*
X151589702Y-99455819D02*
X151589702Y-98455819D01*
X152065892Y-98789153D02*
X152065892Y-99455819D01*
X152065892Y-98884391D02*
X152113511Y-98836772D01*
X152208750Y-98789153D01*
X152351607Y-98789153D01*
X152446845Y-98836772D01*
X152494464Y-98932010D01*
X152494464Y-99455819D01*
X152923035Y-99408200D02*
X153018273Y-99455819D01*
X153208750Y-99455819D01*
X153303988Y-99408200D01*
X153351607Y-99312962D01*
X153351607Y-99265343D01*
X153303988Y-99170105D01*
X153208750Y-99122486D01*
X153065892Y-99122486D01*
X152970654Y-99074867D01*
X152923035Y-98979629D01*
X152923035Y-98932010D01*
X152970654Y-98836772D01*
X153065892Y-98789153D01*
X153208750Y-98789153D01*
X153303988Y-98836772D01*
X153637321Y-98789153D02*
X154018273Y-98789153D01*
X153780178Y-98455819D02*
X153780178Y-99312962D01*
X153827797Y-99408200D01*
X153923035Y-99455819D01*
X154018273Y-99455819D01*
X154780178Y-99455819D02*
X154780178Y-98932010D01*
X154732559Y-98836772D01*
X154637321Y-98789153D01*
X154446845Y-98789153D01*
X154351607Y-98836772D01*
X154780178Y-99408200D02*
X154684940Y-99455819D01*
X154446845Y-99455819D01*
X154351607Y-99408200D01*
X154303988Y-99312962D01*
X154303988Y-99217724D01*
X154351607Y-99122486D01*
X154446845Y-99074867D01*
X154684940Y-99074867D01*
X154780178Y-99027248D01*
X155399226Y-99455819D02*
X155303988Y-99408200D01*
X155256369Y-99312962D01*
X155256369Y-98455819D01*
X155923035Y-99455819D02*
X155827797Y-99408200D01*
X155780178Y-99312962D01*
X155780178Y-98455819D01*
X152256369Y-100065819D02*
X152446845Y-100065819D01*
X152542083Y-100113439D01*
X152637321Y-100208677D01*
X152684940Y-100399153D01*
X152684940Y-100732486D01*
X152637321Y-100922962D01*
X152542083Y-101018200D01*
X152446845Y-101065819D01*
X152256369Y-101065819D01*
X152161130Y-101018200D01*
X152065892Y-100922962D01*
X152018273Y-100732486D01*
X152018273Y-100399153D01*
X152065892Y-100208677D01*
X152161130Y-100113439D01*
X152256369Y-100065819D01*
X153589702Y-101065819D02*
X153113511Y-101065819D01*
X153113511Y-100065819D01*
X153923035Y-100542010D02*
X154256369Y-100542010D01*
X154399226Y-101065819D02*
X153923035Y-101065819D01*
X153923035Y-100065819D01*
X154399226Y-100065819D01*
X154827797Y-101065819D02*
X154827797Y-100065819D01*
X155065892Y-100065819D01*
X155208750Y-100113439D01*
X155303988Y-100208677D01*
X155351607Y-100303915D01*
X155399226Y-100494391D01*
X155399226Y-100637248D01*
X155351607Y-100827724D01*
X155303988Y-100922962D01*
X155208750Y-101018200D01*
X155065892Y-101065819D01*
X154827797Y-101065819D01*
X149518273Y-102675819D02*
X149423035Y-102628200D01*
X149375416Y-102580581D01*
X149327797Y-102485343D01*
X149327797Y-102199629D01*
X149375416Y-102104391D01*
X149423035Y-102056772D01*
X149518273Y-102009153D01*
X149661130Y-102009153D01*
X149756369Y-102056772D01*
X149803988Y-102104391D01*
X149851607Y-102199629D01*
X149851607Y-102485343D01*
X149803988Y-102580581D01*
X149756369Y-102628200D01*
X149661130Y-102675819D01*
X149518273Y-102675819D01*
X150280178Y-102009153D02*
X150280178Y-102675819D01*
X150280178Y-102104391D02*
X150327797Y-102056772D01*
X150423035Y-102009153D01*
X150565892Y-102009153D01*
X150661130Y-102056772D01*
X150708750Y-102152010D01*
X150708750Y-102675819D01*
X151803988Y-102009153D02*
X152184940Y-102009153D01*
X151946845Y-101675819D02*
X151946845Y-102532962D01*
X151994464Y-102628200D01*
X152089702Y-102675819D01*
X152184940Y-102675819D01*
X152518273Y-102675819D02*
X152518273Y-101675819D01*
X152946845Y-102675819D02*
X152946845Y-102152010D01*
X152899226Y-102056772D01*
X152803988Y-102009153D01*
X152661130Y-102009153D01*
X152565892Y-102056772D01*
X152518273Y-102104391D01*
X153423035Y-102675819D02*
X153423035Y-102009153D01*
X153423035Y-101675819D02*
X153375416Y-101723439D01*
X153423035Y-101771058D01*
X153470654Y-101723439D01*
X153423035Y-101675819D01*
X153423035Y-101771058D01*
X153851607Y-102628200D02*
X153946845Y-102675819D01*
X154137321Y-102675819D01*
X154232559Y-102628200D01*
X154280178Y-102532962D01*
X154280178Y-102485343D01*
X154232559Y-102390105D01*
X154137321Y-102342486D01*
X153994464Y-102342486D01*
X153899226Y-102294867D01*
X153851607Y-102199629D01*
X153851607Y-102152010D01*
X153899226Y-102056772D01*
X153994464Y-102009153D01*
X154137321Y-102009153D01*
X154232559Y-102056772D01*
X155423035Y-102628200D02*
X155518273Y-102675819D01*
X155708750Y-102675819D01*
X155803988Y-102628200D01*
X155851607Y-102532962D01*
X155851607Y-102485343D01*
X155803988Y-102390105D01*
X155708750Y-102342486D01*
X155565892Y-102342486D01*
X155470654Y-102294867D01*
X155423035Y-102199629D01*
X155423035Y-102152010D01*
X155470654Y-102056772D01*
X155565892Y-102009153D01*
X155708750Y-102009153D01*
X155803988Y-102056772D01*
X156280178Y-102675819D02*
X156280178Y-102009153D01*
X156280178Y-101675819D02*
X156232559Y-101723439D01*
X156280178Y-101771058D01*
X156327797Y-101723439D01*
X156280178Y-101675819D01*
X156280178Y-101771058D01*
X157184940Y-102675819D02*
X157184940Y-101675819D01*
X157184940Y-102628200D02*
X157089702Y-102675819D01*
X156899226Y-102675819D01*
X156803988Y-102628200D01*
X156756369Y-102580581D01*
X156708750Y-102485343D01*
X156708750Y-102199629D01*
X156756369Y-102104391D01*
X156803988Y-102056772D01*
X156899226Y-102009153D01*
X157089702Y-102009153D01*
X157184940Y-102056772D01*
X158042083Y-102628200D02*
X157946845Y-102675819D01*
X157756369Y-102675819D01*
X157661130Y-102628200D01*
X157613511Y-102532962D01*
X157613511Y-102152010D01*
X157661130Y-102056772D01*
X157756369Y-102009153D01*
X157946845Y-102009153D01*
X158042083Y-102056772D01*
X158089702Y-102152010D01*
X158089702Y-102247248D01*
X157613511Y-102342486D01*
D12*
%TO.C,U1*%
X145982811Y-87855939D03*
D13*
X145982811Y-90395939D03*
X145982811Y-92935939D03*
X145982811Y-95475939D03*
X145982811Y-98015939D03*
X145982811Y-100555939D03*
X145982811Y-103095939D03*
X145982811Y-105635939D03*
X145982811Y-108175939D03*
X145982811Y-110715939D03*
X145982811Y-113255939D03*
X145982811Y-115795939D03*
X161222811Y-115795939D03*
X161222811Y-113255939D03*
X161222811Y-110715939D03*
X161222811Y-108175939D03*
X161222811Y-105635939D03*
X161222811Y-103095939D03*
X161222811Y-100555939D03*
X161222811Y-98015939D03*
X161222811Y-95475939D03*
X161222811Y-92935939D03*
X161222811Y-90395939D03*
X161222811Y-87855939D03*
%TD*%
%LPC*%
D14*
%TO.C,MX8*%
X192972811Y-109763439D03*
D15*
X198052811Y-109763439D03*
D14*
X203132811Y-109763439D03*
D16*
X194242811Y-107223439D03*
X200592811Y-104683439D03*
%TD*%
D17*
%TO.C,OL1*%
X157522811Y-109250939D03*
X154982811Y-109250939D03*
X152442811Y-109250939D03*
X149902811Y-109250939D03*
%TD*%
D14*
%TO.C,MX5*%
X104072811Y-109763439D03*
X114232811Y-109763439D03*
D15*
X109152811Y-109763439D03*
D16*
X105342811Y-107223439D03*
X111692811Y-104683439D03*
%TD*%
D14*
%TO.C,MX6*%
X123122811Y-109763439D03*
X133282811Y-109763439D03*
D15*
X128202811Y-109763439D03*
D16*
X124392811Y-107223439D03*
X130742811Y-104683439D03*
%TD*%
D18*
%TO.C,SW1*%
X206876250Y-103728439D03*
X206876250Y-96718439D03*
D14*
X209366250Y-97718439D03*
X209366250Y-102718439D03*
%TD*%
D15*
%TO.C,MX3*%
X179002811Y-90713439D03*
D14*
X184082811Y-90713439D03*
X173922811Y-90713439D03*
D16*
X175192811Y-88173439D03*
X181542811Y-85633439D03*
%TD*%
D15*
%TO.C,MX7*%
X179002811Y-109763439D03*
D14*
X173922811Y-109763439D03*
X184082811Y-109763439D03*
D16*
X175192811Y-107223439D03*
X181542811Y-104683439D03*
%TD*%
D14*
%TO.C,MX2*%
X133282811Y-90713439D03*
D15*
X128202811Y-90713439D03*
D14*
X123122811Y-90713439D03*
D16*
X124392811Y-88173439D03*
X130742811Y-85633439D03*
%TD*%
D15*
%TO.C,MX1*%
X109152811Y-90713439D03*
D14*
X114232811Y-90713439D03*
X104072811Y-90713439D03*
D16*
X105342811Y-88173439D03*
X111692811Y-85633439D03*
%TD*%
D12*
%TO.C,U1*%
X145982811Y-87855939D03*
D13*
X145982811Y-90395939D03*
X145982811Y-92935939D03*
X145982811Y-95475939D03*
X145982811Y-98015939D03*
X145982811Y-100555939D03*
X145982811Y-103095939D03*
X145982811Y-105635939D03*
X145982811Y-108175939D03*
X145982811Y-110715939D03*
X145982811Y-113255939D03*
X145982811Y-115795939D03*
X161222811Y-115795939D03*
X161222811Y-113255939D03*
X161222811Y-110715939D03*
X161222811Y-108175939D03*
X161222811Y-105635939D03*
X161222811Y-103095939D03*
X161222811Y-100555939D03*
X161222811Y-98015939D03*
X161222811Y-95475939D03*
X161222811Y-92935939D03*
X161222811Y-90395939D03*
X161222811Y-87855939D03*
%TD*%
D14*
%TO.C,MX4*%
X192972811Y-90713439D03*
X203132811Y-90713439D03*
D15*
X198052811Y-90713439D03*
D16*
X194242811Y-88173439D03*
X200592811Y-85633439D03*
%TD*%
M02*
