%TF.GenerationSoftware,KiCad,Pcbnew,(6.0.0)*%
%TF.CreationDate,2022-03-13T18:56:33+01:00*%
%TF.ProjectId,switchplate,73776974-6368-4706-9c61-74652e6b6963,rev?*%
%TF.SameCoordinates,Original*%
%TF.FileFunction,Copper,L1,Top*%
%TF.FilePolarity,Positive*%
%FSLAX46Y46*%
G04 Gerber Fmt 4.6, Leading zero omitted, Abs format (unit mm)*
G04 Created by KiCad (PCBNEW (6.0.0)) date 2022-03-13 18:56:33*
%MOMM*%
%LPD*%
G01*
G04 APERTURE LIST*
%TA.AperFunction,ConnectorPad*%
%ADD10C,3.800000*%
%TD*%
%TA.AperFunction,ComponentPad*%
%ADD11C,2.600000*%
%TD*%
G04 APERTURE END LIST*
D10*
%TO.P,REF\u002A\u002A,1*%
%TO.N,N/C*%
X206010000Y-81300000D03*
D11*
X206010000Y-81300000D03*
%TD*%
D10*
%TO.P,REF\u002A\u002A,1*%
%TO.N,N/C*%
X206010000Y-114300000D03*
D11*
X206010000Y-114300000D03*
%TD*%
D10*
%TO.P,REF\u002A\u002A,1*%
%TO.N,N/C*%
X95010000Y-114300000D03*
D11*
X95010000Y-114300000D03*
%TD*%
%TO.P,REF\u002A\u002A,1*%
%TO.N,N/C*%
X95010000Y-81310000D03*
D10*
X95010000Y-81310000D03*
%TD*%
%TA.AperFunction,NonConductor*%
G36*
X205480057Y-77314500D02*
G01*
X205494858Y-77316805D01*
X205494861Y-77316805D01*
X205503730Y-77318186D01*
X205524158Y-77315515D01*
X205545983Y-77314571D01*
X205896007Y-77329853D01*
X205906958Y-77330811D01*
X206284579Y-77380527D01*
X206295403Y-77382436D01*
X206667243Y-77464870D01*
X206677860Y-77467715D01*
X207041110Y-77582248D01*
X207051425Y-77586001D01*
X207403334Y-77731766D01*
X207413269Y-77736399D01*
X207751128Y-77912278D01*
X207760637Y-77917768D01*
X208081860Y-78122410D01*
X208090864Y-78128714D01*
X208393043Y-78360583D01*
X208401463Y-78367649D01*
X208682268Y-78624959D01*
X208690037Y-78632728D01*
X208947351Y-78913537D01*
X208954414Y-78921954D01*
X209019138Y-79006304D01*
X209186286Y-79224136D01*
X209192590Y-79233140D01*
X209397232Y-79554363D01*
X209402722Y-79563872D01*
X209578601Y-79901731D01*
X209583234Y-79911666D01*
X209682364Y-80150988D01*
X209728996Y-80263568D01*
X209732752Y-80273890D01*
X209780521Y-80425392D01*
X209847285Y-80637139D01*
X209850130Y-80647757D01*
X209932564Y-81019597D01*
X209934473Y-81030421D01*
X209984189Y-81408042D01*
X209985147Y-81418993D01*
X210000104Y-81761583D01*
X209998724Y-81786461D01*
X209996814Y-81798730D01*
X209998638Y-81812678D01*
X210000936Y-81830251D01*
X210002000Y-81846589D01*
X210002000Y-113755672D01*
X210000500Y-113775056D01*
X209996814Y-113798730D01*
X209999485Y-113819158D01*
X210000429Y-113840983D01*
X209993764Y-113993640D01*
X209985147Y-114191007D01*
X209984189Y-114201958D01*
X209934473Y-114579579D01*
X209932564Y-114590403D01*
X209850130Y-114962243D01*
X209847285Y-114972860D01*
X209778200Y-115191971D01*
X209732755Y-115336103D01*
X209728999Y-115346425D01*
X209680879Y-115462598D01*
X209583238Y-115698325D01*
X209578601Y-115708269D01*
X209402722Y-116046128D01*
X209397233Y-116055635D01*
X209393082Y-116062151D01*
X209192590Y-116376860D01*
X209186286Y-116385864D01*
X208967485Y-116671013D01*
X208954417Y-116688043D01*
X208947353Y-116696460D01*
X208936777Y-116708003D01*
X208690041Y-116977268D01*
X208682268Y-116985041D01*
X208401463Y-117242351D01*
X208393043Y-117249417D01*
X208090864Y-117481286D01*
X208081860Y-117487590D01*
X207760637Y-117692232D01*
X207751128Y-117697722D01*
X207413269Y-117873601D01*
X207403334Y-117878234D01*
X207051425Y-118023999D01*
X207041110Y-118027752D01*
X206677861Y-118142285D01*
X206667243Y-118145130D01*
X206295403Y-118227564D01*
X206284579Y-118229473D01*
X205906958Y-118279189D01*
X205896007Y-118280147D01*
X205553417Y-118295104D01*
X205528539Y-118293724D01*
X205528160Y-118293665D01*
X205516270Y-118291814D01*
X205484749Y-118295936D01*
X205468411Y-118297000D01*
X95559328Y-118297000D01*
X95539943Y-118295500D01*
X95525142Y-118293195D01*
X95525139Y-118293195D01*
X95516270Y-118291814D01*
X95495842Y-118294485D01*
X95474017Y-118295429D01*
X95123993Y-118280147D01*
X95113042Y-118279189D01*
X94735421Y-118229473D01*
X94724597Y-118227564D01*
X94352757Y-118145130D01*
X94342139Y-118142285D01*
X93978890Y-118027752D01*
X93968575Y-118023999D01*
X93616666Y-117878234D01*
X93606731Y-117873601D01*
X93268872Y-117697722D01*
X93259363Y-117692232D01*
X92938140Y-117487590D01*
X92929136Y-117481286D01*
X92626957Y-117249417D01*
X92618537Y-117242351D01*
X92337732Y-116985041D01*
X92329959Y-116977268D01*
X92083224Y-116708003D01*
X92072647Y-116696460D01*
X92065583Y-116688043D01*
X92052516Y-116671013D01*
X91833714Y-116385864D01*
X91827410Y-116376860D01*
X91626918Y-116062151D01*
X91622767Y-116055635D01*
X91617278Y-116046128D01*
X91441399Y-115708269D01*
X91436762Y-115698325D01*
X91339122Y-115462598D01*
X91291001Y-115346425D01*
X91287245Y-115336103D01*
X91241801Y-115191971D01*
X91172715Y-114972860D01*
X91169870Y-114962243D01*
X91087436Y-114590403D01*
X91085527Y-114579579D01*
X91048719Y-114300000D01*
X92596738Y-114300000D01*
X92615767Y-114602462D01*
X92672555Y-114900154D01*
X92766206Y-115188381D01*
X92895242Y-115462598D01*
X93057630Y-115718480D01*
X93250808Y-115951992D01*
X93471729Y-116159450D01*
X93474931Y-116161777D01*
X93474933Y-116161778D01*
X93511354Y-116188239D01*
X93716910Y-116337584D01*
X93720379Y-116339491D01*
X93720382Y-116339493D01*
X93979014Y-116481678D01*
X93982483Y-116483585D01*
X93986152Y-116485038D01*
X93986157Y-116485040D01*
X94260591Y-116593696D01*
X94264261Y-116595149D01*
X94557800Y-116670516D01*
X94858470Y-116708500D01*
X95161530Y-116708500D01*
X95462200Y-116670516D01*
X95755739Y-116595149D01*
X95759409Y-116593696D01*
X96033843Y-116485040D01*
X96033848Y-116485038D01*
X96037517Y-116483585D01*
X96040986Y-116481678D01*
X96299618Y-116339493D01*
X96299621Y-116339491D01*
X96303090Y-116337584D01*
X96508646Y-116188239D01*
X96545067Y-116161778D01*
X96545069Y-116161777D01*
X96548271Y-116159450D01*
X96769192Y-115951992D01*
X96800082Y-115914652D01*
X135501524Y-115914652D01*
X135503990Y-115923281D01*
X135503991Y-115923286D01*
X135509639Y-115943048D01*
X135513217Y-115959809D01*
X135516130Y-115980152D01*
X135516133Y-115980162D01*
X135517405Y-115989045D01*
X135528021Y-116012395D01*
X135534464Y-116029907D01*
X135541512Y-116054565D01*
X135557274Y-116079548D01*
X135565404Y-116094614D01*
X135577633Y-116121510D01*
X135594374Y-116140939D01*
X135605479Y-116155947D01*
X135619160Y-116177631D01*
X135625888Y-116183573D01*
X135641296Y-116197181D01*
X135653340Y-116209373D01*
X135672619Y-116231747D01*
X135680147Y-116236626D01*
X135680150Y-116236629D01*
X135694139Y-116245696D01*
X135709013Y-116256986D01*
X135728228Y-116273956D01*
X135736354Y-116277771D01*
X135736355Y-116277772D01*
X135742021Y-116280432D01*
X135754966Y-116286510D01*
X135769935Y-116294824D01*
X135794727Y-116310893D01*
X135811650Y-116315954D01*
X135819290Y-116318239D01*
X135836736Y-116324901D01*
X135859948Y-116335799D01*
X135889130Y-116340343D01*
X135905849Y-116344126D01*
X135925536Y-116350014D01*
X135925539Y-116350015D01*
X135934141Y-116352587D01*
X135943116Y-116352642D01*
X135943117Y-116352642D01*
X135949810Y-116352683D01*
X135968556Y-116352797D01*
X135969328Y-116352830D01*
X135970423Y-116353000D01*
X136001298Y-116353000D01*
X136002068Y-116353002D01*
X136075716Y-116353452D01*
X136075717Y-116353452D01*
X136079652Y-116353476D01*
X136080996Y-116353092D01*
X136082341Y-116353000D01*
X165001298Y-116353000D01*
X165002069Y-116353002D01*
X165079652Y-116353476D01*
X165088281Y-116351010D01*
X165088286Y-116351009D01*
X165108048Y-116345361D01*
X165124809Y-116341783D01*
X165145152Y-116338870D01*
X165145162Y-116338867D01*
X165154045Y-116337595D01*
X165177395Y-116326979D01*
X165194907Y-116320536D01*
X165210937Y-116315954D01*
X165219565Y-116313488D01*
X165244548Y-116297726D01*
X165259614Y-116289596D01*
X165286510Y-116277367D01*
X165305939Y-116260626D01*
X165320947Y-116249521D01*
X165335039Y-116240630D01*
X165342631Y-116235840D01*
X165362182Y-116213703D01*
X165374374Y-116201659D01*
X165389949Y-116188239D01*
X165389950Y-116188237D01*
X165396747Y-116182381D01*
X165401626Y-116174853D01*
X165401629Y-116174850D01*
X165410696Y-116160861D01*
X165421986Y-116145987D01*
X165433012Y-116133502D01*
X165438956Y-116126772D01*
X165451510Y-116100034D01*
X165459824Y-116085065D01*
X165475893Y-116060273D01*
X165483239Y-116035709D01*
X165489901Y-116018264D01*
X165496983Y-116003179D01*
X165500799Y-115995052D01*
X165505343Y-115965870D01*
X165509126Y-115949151D01*
X165515014Y-115929464D01*
X165515015Y-115929461D01*
X165517587Y-115920859D01*
X165517797Y-115886444D01*
X165517830Y-115885672D01*
X165518000Y-115884577D01*
X165518000Y-115853702D01*
X165518002Y-115852932D01*
X165518452Y-115779284D01*
X165518452Y-115779283D01*
X165518476Y-115775348D01*
X165518092Y-115774004D01*
X165518000Y-115772659D01*
X165518000Y-114399652D01*
X168401524Y-114399652D01*
X168403990Y-114408281D01*
X168403991Y-114408286D01*
X168409639Y-114428048D01*
X168413217Y-114444809D01*
X168416130Y-114465152D01*
X168416133Y-114465162D01*
X168417405Y-114474045D01*
X168428021Y-114497395D01*
X168434464Y-114514907D01*
X168441512Y-114539565D01*
X168457274Y-114564548D01*
X168465404Y-114579614D01*
X168477633Y-114606510D01*
X168494374Y-114625939D01*
X168505479Y-114640947D01*
X168519160Y-114662631D01*
X168525888Y-114668573D01*
X168541296Y-114682181D01*
X168553340Y-114694373D01*
X168572619Y-114716747D01*
X168580147Y-114721626D01*
X168580150Y-114721629D01*
X168594139Y-114730696D01*
X168609013Y-114741986D01*
X168628228Y-114758956D01*
X168636354Y-114762771D01*
X168636355Y-114762772D01*
X168642021Y-114765432D01*
X168654966Y-114771510D01*
X168669935Y-114779824D01*
X168694727Y-114795893D01*
X168711650Y-114800954D01*
X168719290Y-114803239D01*
X168736736Y-114809901D01*
X168759948Y-114820799D01*
X168789130Y-114825343D01*
X168805849Y-114829126D01*
X168825536Y-114835014D01*
X168825539Y-114835015D01*
X168834141Y-114837587D01*
X168843116Y-114837642D01*
X168843117Y-114837642D01*
X168849810Y-114837683D01*
X168868556Y-114837797D01*
X168869328Y-114837830D01*
X168870423Y-114838000D01*
X168901298Y-114838000D01*
X168902068Y-114838002D01*
X168975716Y-114838452D01*
X168975717Y-114838452D01*
X168979652Y-114838476D01*
X168980996Y-114838092D01*
X168982341Y-114838000D01*
X182901298Y-114838000D01*
X182902069Y-114838002D01*
X182979652Y-114838476D01*
X182988281Y-114836010D01*
X182988286Y-114836009D01*
X183008048Y-114830361D01*
X183024809Y-114826783D01*
X183045152Y-114823870D01*
X183045162Y-114823867D01*
X183054045Y-114822595D01*
X183077395Y-114811979D01*
X183094907Y-114805536D01*
X183110937Y-114800954D01*
X183119565Y-114798488D01*
X183144548Y-114782726D01*
X183159614Y-114774596D01*
X183186510Y-114762367D01*
X183205939Y-114745626D01*
X183220947Y-114734521D01*
X183235039Y-114725630D01*
X183242631Y-114720840D01*
X183262182Y-114698703D01*
X183274374Y-114686659D01*
X183289949Y-114673239D01*
X183289950Y-114673237D01*
X183296747Y-114667381D01*
X183301626Y-114659853D01*
X183301629Y-114659850D01*
X183310696Y-114645861D01*
X183321986Y-114630987D01*
X183333012Y-114618502D01*
X183338956Y-114611772D01*
X183351513Y-114585028D01*
X183359824Y-114570065D01*
X183375893Y-114545273D01*
X183383239Y-114520709D01*
X183389901Y-114503264D01*
X183396983Y-114488179D01*
X183400799Y-114480052D01*
X183405343Y-114450870D01*
X183409126Y-114434151D01*
X183415014Y-114414464D01*
X183415015Y-114414461D01*
X183417587Y-114405859D01*
X183417625Y-114399652D01*
X187451524Y-114399652D01*
X187453990Y-114408281D01*
X187453991Y-114408286D01*
X187459639Y-114428048D01*
X187463217Y-114444809D01*
X187466130Y-114465152D01*
X187466133Y-114465162D01*
X187467405Y-114474045D01*
X187478021Y-114497395D01*
X187484464Y-114514907D01*
X187491512Y-114539565D01*
X187507274Y-114564548D01*
X187515404Y-114579614D01*
X187527633Y-114606510D01*
X187544374Y-114625939D01*
X187555479Y-114640947D01*
X187569160Y-114662631D01*
X187575888Y-114668573D01*
X187591296Y-114682181D01*
X187603340Y-114694373D01*
X187622619Y-114716747D01*
X187630147Y-114721626D01*
X187630150Y-114721629D01*
X187644139Y-114730696D01*
X187659013Y-114741986D01*
X187678228Y-114758956D01*
X187686354Y-114762771D01*
X187686355Y-114762772D01*
X187692021Y-114765432D01*
X187704966Y-114771510D01*
X187719935Y-114779824D01*
X187744727Y-114795893D01*
X187761650Y-114800954D01*
X187769290Y-114803239D01*
X187786736Y-114809901D01*
X187809948Y-114820799D01*
X187839130Y-114825343D01*
X187855849Y-114829126D01*
X187875536Y-114835014D01*
X187875539Y-114835015D01*
X187884141Y-114837587D01*
X187893116Y-114837642D01*
X187893117Y-114837642D01*
X187899810Y-114837683D01*
X187918556Y-114837797D01*
X187919328Y-114837830D01*
X187920423Y-114838000D01*
X187951298Y-114838000D01*
X187952068Y-114838002D01*
X188025716Y-114838452D01*
X188025717Y-114838452D01*
X188029652Y-114838476D01*
X188030996Y-114838092D01*
X188032341Y-114838000D01*
X201951298Y-114838000D01*
X201952069Y-114838002D01*
X202029652Y-114838476D01*
X202038281Y-114836010D01*
X202038286Y-114836009D01*
X202058048Y-114830361D01*
X202074809Y-114826783D01*
X202095152Y-114823870D01*
X202095162Y-114823867D01*
X202104045Y-114822595D01*
X202127395Y-114811979D01*
X202144907Y-114805536D01*
X202160937Y-114800954D01*
X202169565Y-114798488D01*
X202194548Y-114782726D01*
X202209614Y-114774596D01*
X202236510Y-114762367D01*
X202255939Y-114745626D01*
X202270947Y-114734521D01*
X202285039Y-114725630D01*
X202292631Y-114720840D01*
X202312182Y-114698703D01*
X202324374Y-114686659D01*
X202339949Y-114673239D01*
X202339950Y-114673237D01*
X202346747Y-114667381D01*
X202351626Y-114659853D01*
X202351629Y-114659850D01*
X202360696Y-114645861D01*
X202371986Y-114630987D01*
X202383012Y-114618502D01*
X202388956Y-114611772D01*
X202401513Y-114585028D01*
X202409824Y-114570065D01*
X202425893Y-114545273D01*
X202433239Y-114520709D01*
X202439901Y-114503264D01*
X202446983Y-114488179D01*
X202450799Y-114480052D01*
X202455343Y-114450870D01*
X202459126Y-114434151D01*
X202465014Y-114414464D01*
X202465015Y-114414461D01*
X202467587Y-114405859D01*
X202467797Y-114371444D01*
X202467830Y-114370672D01*
X202468000Y-114369577D01*
X202468000Y-114338702D01*
X202468002Y-114337932D01*
X202468234Y-114300000D01*
X203596738Y-114300000D01*
X203615767Y-114602462D01*
X203672555Y-114900154D01*
X203766206Y-115188381D01*
X203895242Y-115462598D01*
X204057630Y-115718480D01*
X204250808Y-115951992D01*
X204471729Y-116159450D01*
X204474931Y-116161777D01*
X204474933Y-116161778D01*
X204511354Y-116188239D01*
X204716910Y-116337584D01*
X204720379Y-116339491D01*
X204720382Y-116339493D01*
X204979014Y-116481678D01*
X204982483Y-116483585D01*
X204986152Y-116485038D01*
X204986157Y-116485040D01*
X205260591Y-116593696D01*
X205264261Y-116595149D01*
X205557800Y-116670516D01*
X205858470Y-116708500D01*
X206161530Y-116708500D01*
X206462200Y-116670516D01*
X206755739Y-116595149D01*
X206759409Y-116593696D01*
X207033843Y-116485040D01*
X207033848Y-116485038D01*
X207037517Y-116483585D01*
X207040986Y-116481678D01*
X207299618Y-116339493D01*
X207299621Y-116339491D01*
X207303090Y-116337584D01*
X207508646Y-116188239D01*
X207545067Y-116161778D01*
X207545069Y-116161777D01*
X207548271Y-116159450D01*
X207769192Y-115951992D01*
X207962370Y-115718480D01*
X208124758Y-115462598D01*
X208253794Y-115188381D01*
X208347445Y-114900154D01*
X208404233Y-114602462D01*
X208423262Y-114300000D01*
X208404233Y-113997538D01*
X208347445Y-113699846D01*
X208253794Y-113411619D01*
X208124758Y-113137402D01*
X207962370Y-112881520D01*
X207769192Y-112648008D01*
X207548271Y-112440550D01*
X207303090Y-112262416D01*
X207037517Y-112116415D01*
X207033848Y-112114962D01*
X207033843Y-112114960D01*
X206759409Y-112006304D01*
X206759408Y-112006304D01*
X206755739Y-112004851D01*
X206462200Y-111929484D01*
X206161530Y-111891500D01*
X205858470Y-111891500D01*
X205557800Y-111929484D01*
X205264261Y-112004851D01*
X205260592Y-112006304D01*
X205260591Y-112006304D01*
X204986157Y-112114960D01*
X204986152Y-112114962D01*
X204982483Y-112116415D01*
X204716910Y-112262416D01*
X204471729Y-112440550D01*
X204250808Y-112648008D01*
X204057630Y-112881520D01*
X203895242Y-113137402D01*
X203766206Y-113411619D01*
X203672555Y-113699846D01*
X203615767Y-113997538D01*
X203596738Y-114300000D01*
X202468234Y-114300000D01*
X202468452Y-114264284D01*
X202468452Y-114264283D01*
X202468476Y-114260348D01*
X202468092Y-114259004D01*
X202468000Y-114257659D01*
X202468000Y-100338702D01*
X202468002Y-100337932D01*
X202468421Y-100269322D01*
X202468476Y-100260348D01*
X202466010Y-100251719D01*
X202466009Y-100251714D01*
X202460361Y-100231952D01*
X202456783Y-100215191D01*
X202453870Y-100194848D01*
X202453867Y-100194838D01*
X202452595Y-100185955D01*
X202441979Y-100162605D01*
X202435536Y-100145093D01*
X202430954Y-100129063D01*
X202428488Y-100120435D01*
X202412726Y-100095452D01*
X202404596Y-100080386D01*
X202392367Y-100053490D01*
X202375626Y-100034061D01*
X202364521Y-100019053D01*
X202355630Y-100004961D01*
X202350840Y-99997369D01*
X202328703Y-99977818D01*
X202316659Y-99965626D01*
X202303239Y-99950051D01*
X202303237Y-99950050D01*
X202297381Y-99943253D01*
X202289853Y-99938374D01*
X202289850Y-99938371D01*
X202275861Y-99929304D01*
X202260987Y-99918014D01*
X202248502Y-99906988D01*
X202241772Y-99901044D01*
X202233646Y-99897229D01*
X202233645Y-99897228D01*
X202227979Y-99894568D01*
X202215034Y-99888490D01*
X202200065Y-99880176D01*
X202175273Y-99864107D01*
X202150709Y-99856761D01*
X202133264Y-99850099D01*
X202128827Y-99848016D01*
X202110052Y-99839201D01*
X202080870Y-99834657D01*
X202064151Y-99830874D01*
X202044464Y-99824986D01*
X202044461Y-99824985D01*
X202035859Y-99822413D01*
X202026884Y-99822358D01*
X202026883Y-99822358D01*
X202020190Y-99822317D01*
X202001444Y-99822203D01*
X202000672Y-99822170D01*
X201999577Y-99822000D01*
X201968702Y-99822000D01*
X201967932Y-99821998D01*
X201894284Y-99821548D01*
X201894283Y-99821548D01*
X201890348Y-99821524D01*
X201889004Y-99821908D01*
X201887659Y-99822000D01*
X187968702Y-99822000D01*
X187967932Y-99821998D01*
X187967078Y-99821993D01*
X187890348Y-99821524D01*
X187881719Y-99823990D01*
X187881714Y-99823991D01*
X187861952Y-99829639D01*
X187845191Y-99833217D01*
X187824848Y-99836130D01*
X187824838Y-99836133D01*
X187815955Y-99837405D01*
X187792605Y-99848021D01*
X187775093Y-99854464D01*
X187767057Y-99856761D01*
X187750435Y-99861512D01*
X187725452Y-99877274D01*
X187710386Y-99885404D01*
X187683490Y-99897633D01*
X187664061Y-99914374D01*
X187649053Y-99925479D01*
X187627369Y-99939160D01*
X187621427Y-99945888D01*
X187607819Y-99961296D01*
X187595627Y-99973340D01*
X187573253Y-99992619D01*
X187568374Y-100000147D01*
X187568371Y-100000150D01*
X187559304Y-100014139D01*
X187548014Y-100029013D01*
X187531044Y-100048228D01*
X187518490Y-100074966D01*
X187510176Y-100089935D01*
X187494107Y-100114727D01*
X187491535Y-100123327D01*
X187486761Y-100139290D01*
X187480099Y-100156736D01*
X187469201Y-100179948D01*
X187464658Y-100209128D01*
X187460874Y-100225849D01*
X187454986Y-100245536D01*
X187454985Y-100245539D01*
X187452413Y-100254141D01*
X187452358Y-100263116D01*
X187452358Y-100263117D01*
X187452203Y-100288546D01*
X187452170Y-100289328D01*
X187452000Y-100290423D01*
X187452000Y-100321298D01*
X187451998Y-100322068D01*
X187451524Y-100399652D01*
X187451908Y-100400996D01*
X187452000Y-100402341D01*
X187452000Y-114321298D01*
X187451998Y-114322068D01*
X187451524Y-114399652D01*
X183417625Y-114399652D01*
X183417797Y-114371444D01*
X183417830Y-114370672D01*
X183418000Y-114369577D01*
X183418000Y-114338702D01*
X183418002Y-114337932D01*
X183418452Y-114264284D01*
X183418452Y-114264283D01*
X183418476Y-114260348D01*
X183418092Y-114259004D01*
X183418000Y-114257659D01*
X183418000Y-100338702D01*
X183418002Y-100337932D01*
X183418421Y-100269322D01*
X183418476Y-100260348D01*
X183416010Y-100251719D01*
X183416009Y-100251714D01*
X183410361Y-100231952D01*
X183406783Y-100215191D01*
X183403870Y-100194848D01*
X183403867Y-100194838D01*
X183402595Y-100185955D01*
X183391979Y-100162605D01*
X183385536Y-100145093D01*
X183380954Y-100129063D01*
X183378488Y-100120435D01*
X183362726Y-100095452D01*
X183354596Y-100080386D01*
X183342367Y-100053490D01*
X183325626Y-100034061D01*
X183314521Y-100019053D01*
X183305630Y-100004961D01*
X183300840Y-99997369D01*
X183278703Y-99977818D01*
X183266659Y-99965626D01*
X183253239Y-99950051D01*
X183253237Y-99950050D01*
X183247381Y-99943253D01*
X183239853Y-99938374D01*
X183239850Y-99938371D01*
X183225861Y-99929304D01*
X183210987Y-99918014D01*
X183198502Y-99906988D01*
X183191772Y-99901044D01*
X183183646Y-99897229D01*
X183183645Y-99897228D01*
X183177979Y-99894568D01*
X183165034Y-99888490D01*
X183150065Y-99880176D01*
X183125273Y-99864107D01*
X183100709Y-99856761D01*
X183083264Y-99850099D01*
X183078827Y-99848016D01*
X183060052Y-99839201D01*
X183030870Y-99834657D01*
X183014151Y-99830874D01*
X182994464Y-99824986D01*
X182994461Y-99824985D01*
X182985859Y-99822413D01*
X182976884Y-99822358D01*
X182976883Y-99822358D01*
X182970190Y-99822317D01*
X182951444Y-99822203D01*
X182950672Y-99822170D01*
X182949577Y-99822000D01*
X182918702Y-99822000D01*
X182917932Y-99821998D01*
X182844284Y-99821548D01*
X182844283Y-99821548D01*
X182840348Y-99821524D01*
X182839004Y-99821908D01*
X182837659Y-99822000D01*
X168918702Y-99822000D01*
X168917932Y-99821998D01*
X168917078Y-99821993D01*
X168840348Y-99821524D01*
X168831719Y-99823990D01*
X168831714Y-99823991D01*
X168811952Y-99829639D01*
X168795191Y-99833217D01*
X168774848Y-99836130D01*
X168774838Y-99836133D01*
X168765955Y-99837405D01*
X168742605Y-99848021D01*
X168725093Y-99854464D01*
X168717057Y-99856761D01*
X168700435Y-99861512D01*
X168675452Y-99877274D01*
X168660386Y-99885404D01*
X168633490Y-99897633D01*
X168614061Y-99914374D01*
X168599053Y-99925479D01*
X168577369Y-99939160D01*
X168571427Y-99945888D01*
X168557819Y-99961296D01*
X168545627Y-99973340D01*
X168523253Y-99992619D01*
X168518374Y-100000147D01*
X168518371Y-100000150D01*
X168509304Y-100014139D01*
X168498014Y-100029013D01*
X168481044Y-100048228D01*
X168468490Y-100074966D01*
X168460176Y-100089935D01*
X168444107Y-100114727D01*
X168441535Y-100123327D01*
X168436761Y-100139290D01*
X168430099Y-100156736D01*
X168419201Y-100179948D01*
X168414658Y-100209128D01*
X168410874Y-100225849D01*
X168404986Y-100245536D01*
X168404985Y-100245539D01*
X168402413Y-100254141D01*
X168402358Y-100263116D01*
X168402358Y-100263117D01*
X168402203Y-100288546D01*
X168402170Y-100289328D01*
X168402000Y-100290423D01*
X168402000Y-100321298D01*
X168401998Y-100322068D01*
X168401524Y-100399652D01*
X168401908Y-100400996D01*
X168402000Y-100402341D01*
X168402000Y-114321298D01*
X168401998Y-114322068D01*
X168401524Y-114399652D01*
X165518000Y-114399652D01*
X165518000Y-95349652D01*
X168401524Y-95349652D01*
X168403990Y-95358281D01*
X168403991Y-95358286D01*
X168409639Y-95378048D01*
X168413217Y-95394809D01*
X168416130Y-95415152D01*
X168416133Y-95415162D01*
X168417405Y-95424045D01*
X168428021Y-95447395D01*
X168434464Y-95464907D01*
X168441512Y-95489565D01*
X168457274Y-95514548D01*
X168465404Y-95529614D01*
X168477633Y-95556510D01*
X168494374Y-95575939D01*
X168505479Y-95590947D01*
X168519160Y-95612631D01*
X168525888Y-95618573D01*
X168541296Y-95632181D01*
X168553340Y-95644373D01*
X168572619Y-95666747D01*
X168580147Y-95671626D01*
X168580150Y-95671629D01*
X168594139Y-95680696D01*
X168609013Y-95691986D01*
X168628228Y-95708956D01*
X168636354Y-95712771D01*
X168636355Y-95712772D01*
X168642021Y-95715432D01*
X168654966Y-95721510D01*
X168669935Y-95729824D01*
X168694727Y-95745893D01*
X168711650Y-95750954D01*
X168719290Y-95753239D01*
X168736736Y-95759901D01*
X168759948Y-95770799D01*
X168789130Y-95775343D01*
X168805849Y-95779126D01*
X168825536Y-95785014D01*
X168825539Y-95785015D01*
X168834141Y-95787587D01*
X168843116Y-95787642D01*
X168843117Y-95787642D01*
X168849810Y-95787683D01*
X168868556Y-95787797D01*
X168869328Y-95787830D01*
X168870423Y-95788000D01*
X168901298Y-95788000D01*
X168902068Y-95788002D01*
X168975716Y-95788452D01*
X168975717Y-95788452D01*
X168979652Y-95788476D01*
X168980996Y-95788092D01*
X168982341Y-95788000D01*
X182901298Y-95788000D01*
X182902069Y-95788002D01*
X182979652Y-95788476D01*
X182988281Y-95786010D01*
X182988286Y-95786009D01*
X183008048Y-95780361D01*
X183024809Y-95776783D01*
X183045152Y-95773870D01*
X183045162Y-95773867D01*
X183054045Y-95772595D01*
X183077395Y-95761979D01*
X183094907Y-95755536D01*
X183110937Y-95750954D01*
X183119565Y-95748488D01*
X183144548Y-95732726D01*
X183159614Y-95724596D01*
X183186510Y-95712367D01*
X183205939Y-95695626D01*
X183220947Y-95684521D01*
X183235039Y-95675630D01*
X183242631Y-95670840D01*
X183262182Y-95648703D01*
X183274374Y-95636659D01*
X183289949Y-95623239D01*
X183289950Y-95623237D01*
X183296747Y-95617381D01*
X183301626Y-95609853D01*
X183301629Y-95609850D01*
X183310696Y-95595861D01*
X183321986Y-95580987D01*
X183333012Y-95568502D01*
X183338956Y-95561772D01*
X183351510Y-95535034D01*
X183359824Y-95520065D01*
X183375893Y-95495273D01*
X183383239Y-95470709D01*
X183389901Y-95453264D01*
X183396983Y-95438179D01*
X183400799Y-95430052D01*
X183405343Y-95400870D01*
X183409126Y-95384151D01*
X183415014Y-95364464D01*
X183415015Y-95364461D01*
X183417587Y-95355859D01*
X183417625Y-95349652D01*
X187451524Y-95349652D01*
X187453990Y-95358281D01*
X187453991Y-95358286D01*
X187459639Y-95378048D01*
X187463217Y-95394809D01*
X187466130Y-95415152D01*
X187466133Y-95415162D01*
X187467405Y-95424045D01*
X187478021Y-95447395D01*
X187484464Y-95464907D01*
X187491512Y-95489565D01*
X187507274Y-95514548D01*
X187515404Y-95529614D01*
X187527633Y-95556510D01*
X187544374Y-95575939D01*
X187555479Y-95590947D01*
X187569160Y-95612631D01*
X187575888Y-95618573D01*
X187591296Y-95632181D01*
X187603340Y-95644373D01*
X187622619Y-95666747D01*
X187630147Y-95671626D01*
X187630150Y-95671629D01*
X187644139Y-95680696D01*
X187659013Y-95691986D01*
X187678228Y-95708956D01*
X187686354Y-95712771D01*
X187686355Y-95712772D01*
X187692021Y-95715432D01*
X187704966Y-95721510D01*
X187719935Y-95729824D01*
X187744727Y-95745893D01*
X187761650Y-95750954D01*
X187769290Y-95753239D01*
X187786736Y-95759901D01*
X187809948Y-95770799D01*
X187839130Y-95775343D01*
X187855849Y-95779126D01*
X187875536Y-95785014D01*
X187875539Y-95785015D01*
X187884141Y-95787587D01*
X187893116Y-95787642D01*
X187893117Y-95787642D01*
X187899810Y-95787683D01*
X187918556Y-95787797D01*
X187919328Y-95787830D01*
X187920423Y-95788000D01*
X187951298Y-95788000D01*
X187952068Y-95788002D01*
X188025716Y-95788452D01*
X188025717Y-95788452D01*
X188029652Y-95788476D01*
X188030996Y-95788092D01*
X188032341Y-95788000D01*
X201951298Y-95788000D01*
X201952069Y-95788002D01*
X202029652Y-95788476D01*
X202038281Y-95786010D01*
X202038286Y-95786009D01*
X202058048Y-95780361D01*
X202074809Y-95776783D01*
X202095152Y-95773870D01*
X202095162Y-95773867D01*
X202104045Y-95772595D01*
X202127395Y-95761979D01*
X202144907Y-95755536D01*
X202160937Y-95750954D01*
X202169565Y-95748488D01*
X202194548Y-95732726D01*
X202209614Y-95724596D01*
X202236510Y-95712367D01*
X202255939Y-95695626D01*
X202270947Y-95684521D01*
X202285039Y-95675630D01*
X202292631Y-95670840D01*
X202312182Y-95648703D01*
X202324374Y-95636659D01*
X202339949Y-95623239D01*
X202339950Y-95623237D01*
X202346747Y-95617381D01*
X202351626Y-95609853D01*
X202351629Y-95609850D01*
X202360696Y-95595861D01*
X202371986Y-95580987D01*
X202383012Y-95568502D01*
X202388956Y-95561772D01*
X202401510Y-95535034D01*
X202409824Y-95520065D01*
X202425893Y-95495273D01*
X202433239Y-95470709D01*
X202439901Y-95453264D01*
X202446983Y-95438179D01*
X202450799Y-95430052D01*
X202455343Y-95400870D01*
X202459126Y-95384151D01*
X202465014Y-95364464D01*
X202465015Y-95364461D01*
X202467587Y-95355859D01*
X202467797Y-95321444D01*
X202467830Y-95320672D01*
X202468000Y-95319577D01*
X202468000Y-95288702D01*
X202468002Y-95287932D01*
X202468452Y-95214284D01*
X202468452Y-95214283D01*
X202468476Y-95210348D01*
X202468092Y-95209004D01*
X202468000Y-95207659D01*
X202468000Y-81300000D01*
X203596738Y-81300000D01*
X203615767Y-81602462D01*
X203672555Y-81900154D01*
X203766206Y-82188381D01*
X203767893Y-82191967D01*
X203767895Y-82191971D01*
X203772601Y-82201971D01*
X203895242Y-82462598D01*
X204057630Y-82718480D01*
X204060149Y-82721525D01*
X204060152Y-82721529D01*
X204068425Y-82731529D01*
X204250808Y-82951992D01*
X204471729Y-83159450D01*
X204716910Y-83337584D01*
X204720379Y-83339491D01*
X204720382Y-83339493D01*
X204738572Y-83349493D01*
X204982483Y-83483585D01*
X204986152Y-83485038D01*
X204986157Y-83485040D01*
X205260591Y-83593696D01*
X205264261Y-83595149D01*
X205557800Y-83670516D01*
X205858470Y-83708500D01*
X206161530Y-83708500D01*
X206462200Y-83670516D01*
X206755739Y-83595149D01*
X206759409Y-83593696D01*
X207033843Y-83485040D01*
X207033848Y-83485038D01*
X207037517Y-83483585D01*
X207281428Y-83349493D01*
X207299618Y-83339493D01*
X207299621Y-83339491D01*
X207303090Y-83337584D01*
X207548271Y-83159450D01*
X207769192Y-82951992D01*
X207951575Y-82731529D01*
X207959848Y-82721529D01*
X207959851Y-82721525D01*
X207962370Y-82718480D01*
X208124758Y-82462598D01*
X208247399Y-82201971D01*
X208252105Y-82191971D01*
X208252107Y-82191967D01*
X208253794Y-82188381D01*
X208347445Y-81900154D01*
X208404233Y-81602462D01*
X208423262Y-81300000D01*
X208404233Y-80997538D01*
X208347445Y-80699846D01*
X208253794Y-80411619D01*
X208124758Y-80137402D01*
X207962370Y-79881520D01*
X207769192Y-79648008D01*
X207548271Y-79440550D01*
X207303090Y-79262416D01*
X207241389Y-79228495D01*
X207040986Y-79118322D01*
X207040985Y-79118321D01*
X207037517Y-79116415D01*
X207033848Y-79114962D01*
X207033843Y-79114960D01*
X206759409Y-79006304D01*
X206759408Y-79006304D01*
X206755739Y-79004851D01*
X206462200Y-78929484D01*
X206161530Y-78891500D01*
X205858470Y-78891500D01*
X205557800Y-78929484D01*
X205264261Y-79004851D01*
X205260592Y-79006304D01*
X205260591Y-79006304D01*
X204986157Y-79114960D01*
X204986152Y-79114962D01*
X204982483Y-79116415D01*
X204979015Y-79118321D01*
X204979014Y-79118322D01*
X204778612Y-79228495D01*
X204716910Y-79262416D01*
X204471729Y-79440550D01*
X204250808Y-79648008D01*
X204057630Y-79881520D01*
X203895242Y-80137402D01*
X203766206Y-80411619D01*
X203672555Y-80699846D01*
X203615767Y-80997538D01*
X203596738Y-81300000D01*
X202468000Y-81300000D01*
X202468000Y-81288702D01*
X202468002Y-81287932D01*
X202468421Y-81219322D01*
X202468476Y-81210348D01*
X202466010Y-81201719D01*
X202466009Y-81201714D01*
X202460361Y-81181952D01*
X202456783Y-81165191D01*
X202453870Y-81144848D01*
X202453867Y-81144838D01*
X202452595Y-81135955D01*
X202441979Y-81112605D01*
X202435536Y-81095093D01*
X202430954Y-81079063D01*
X202428488Y-81070435D01*
X202412726Y-81045452D01*
X202404596Y-81030386D01*
X202392367Y-81003490D01*
X202375626Y-80984061D01*
X202364521Y-80969053D01*
X202355630Y-80954961D01*
X202350840Y-80947369D01*
X202328703Y-80927818D01*
X202316659Y-80915626D01*
X202303239Y-80900051D01*
X202303237Y-80900050D01*
X202297381Y-80893253D01*
X202289853Y-80888374D01*
X202289850Y-80888371D01*
X202275861Y-80879304D01*
X202260987Y-80868014D01*
X202248502Y-80856988D01*
X202241772Y-80851044D01*
X202233646Y-80847229D01*
X202233645Y-80847228D01*
X202227979Y-80844568D01*
X202215034Y-80838490D01*
X202200065Y-80830176D01*
X202175273Y-80814107D01*
X202150709Y-80806761D01*
X202133264Y-80800099D01*
X202128827Y-80798016D01*
X202110052Y-80789201D01*
X202080870Y-80784657D01*
X202064151Y-80780874D01*
X202044464Y-80774986D01*
X202044461Y-80774985D01*
X202035859Y-80772413D01*
X202026884Y-80772358D01*
X202026883Y-80772358D01*
X202020190Y-80772317D01*
X202001444Y-80772203D01*
X202000672Y-80772170D01*
X201999577Y-80772000D01*
X201968702Y-80772000D01*
X201967932Y-80771998D01*
X201894284Y-80771548D01*
X201894283Y-80771548D01*
X201890348Y-80771524D01*
X201889004Y-80771908D01*
X201887659Y-80772000D01*
X187968702Y-80772000D01*
X187967932Y-80771998D01*
X187967078Y-80771993D01*
X187890348Y-80771524D01*
X187881719Y-80773990D01*
X187881714Y-80773991D01*
X187861952Y-80779639D01*
X187845191Y-80783217D01*
X187824848Y-80786130D01*
X187824838Y-80786133D01*
X187815955Y-80787405D01*
X187792605Y-80798021D01*
X187775093Y-80804464D01*
X187767057Y-80806761D01*
X187750435Y-80811512D01*
X187725452Y-80827274D01*
X187710386Y-80835404D01*
X187683490Y-80847633D01*
X187664061Y-80864374D01*
X187649053Y-80875479D01*
X187627369Y-80889160D01*
X187621427Y-80895888D01*
X187607819Y-80911296D01*
X187595627Y-80923340D01*
X187573253Y-80942619D01*
X187568374Y-80950147D01*
X187568371Y-80950150D01*
X187559304Y-80964139D01*
X187548014Y-80979013D01*
X187531044Y-80998228D01*
X187518490Y-81024966D01*
X187510176Y-81039935D01*
X187494107Y-81064727D01*
X187491535Y-81073327D01*
X187486761Y-81089290D01*
X187480099Y-81106736D01*
X187469201Y-81129948D01*
X187464658Y-81159128D01*
X187460874Y-81175849D01*
X187454986Y-81195536D01*
X187454985Y-81195539D01*
X187452413Y-81204141D01*
X187452358Y-81213116D01*
X187452358Y-81213117D01*
X187452203Y-81238546D01*
X187452170Y-81239328D01*
X187452000Y-81240423D01*
X187452000Y-81271298D01*
X187451998Y-81272068D01*
X187451524Y-81349652D01*
X187451908Y-81350996D01*
X187452000Y-81352341D01*
X187452000Y-95271298D01*
X187451998Y-95272068D01*
X187451524Y-95349652D01*
X183417625Y-95349652D01*
X183417797Y-95321444D01*
X183417830Y-95320672D01*
X183418000Y-95319577D01*
X183418000Y-95288702D01*
X183418002Y-95287932D01*
X183418452Y-95214284D01*
X183418452Y-95214283D01*
X183418476Y-95210348D01*
X183418092Y-95209004D01*
X183418000Y-95207659D01*
X183418000Y-81288702D01*
X183418002Y-81287932D01*
X183418421Y-81219322D01*
X183418476Y-81210348D01*
X183416010Y-81201719D01*
X183416009Y-81201714D01*
X183410361Y-81181952D01*
X183406783Y-81165191D01*
X183403870Y-81144848D01*
X183403867Y-81144838D01*
X183402595Y-81135955D01*
X183391979Y-81112605D01*
X183385536Y-81095093D01*
X183380954Y-81079063D01*
X183378488Y-81070435D01*
X183362726Y-81045452D01*
X183354596Y-81030386D01*
X183342367Y-81003490D01*
X183325626Y-80984061D01*
X183314521Y-80969053D01*
X183305630Y-80954961D01*
X183300840Y-80947369D01*
X183278703Y-80927818D01*
X183266659Y-80915626D01*
X183253239Y-80900051D01*
X183253237Y-80900050D01*
X183247381Y-80893253D01*
X183239853Y-80888374D01*
X183239850Y-80888371D01*
X183225861Y-80879304D01*
X183210987Y-80868014D01*
X183198502Y-80856988D01*
X183191772Y-80851044D01*
X183183646Y-80847229D01*
X183183645Y-80847228D01*
X183177979Y-80844568D01*
X183165034Y-80838490D01*
X183150065Y-80830176D01*
X183125273Y-80814107D01*
X183100709Y-80806761D01*
X183083264Y-80800099D01*
X183078827Y-80798016D01*
X183060052Y-80789201D01*
X183030870Y-80784657D01*
X183014151Y-80780874D01*
X182994464Y-80774986D01*
X182994461Y-80774985D01*
X182985859Y-80772413D01*
X182976884Y-80772358D01*
X182976883Y-80772358D01*
X182970190Y-80772317D01*
X182951444Y-80772203D01*
X182950672Y-80772170D01*
X182949577Y-80772000D01*
X182918702Y-80772000D01*
X182917932Y-80771998D01*
X182844284Y-80771548D01*
X182844283Y-80771548D01*
X182840348Y-80771524D01*
X182839004Y-80771908D01*
X182837659Y-80772000D01*
X168918702Y-80772000D01*
X168917932Y-80771998D01*
X168917078Y-80771993D01*
X168840348Y-80771524D01*
X168831719Y-80773990D01*
X168831714Y-80773991D01*
X168811952Y-80779639D01*
X168795191Y-80783217D01*
X168774848Y-80786130D01*
X168774838Y-80786133D01*
X168765955Y-80787405D01*
X168742605Y-80798021D01*
X168725093Y-80804464D01*
X168717057Y-80806761D01*
X168700435Y-80811512D01*
X168675452Y-80827274D01*
X168660386Y-80835404D01*
X168633490Y-80847633D01*
X168614061Y-80864374D01*
X168599053Y-80875479D01*
X168577369Y-80889160D01*
X168571427Y-80895888D01*
X168557819Y-80911296D01*
X168545627Y-80923340D01*
X168523253Y-80942619D01*
X168518374Y-80950147D01*
X168518371Y-80950150D01*
X168509304Y-80964139D01*
X168498014Y-80979013D01*
X168481044Y-80998228D01*
X168468490Y-81024966D01*
X168460176Y-81039935D01*
X168444107Y-81064727D01*
X168441535Y-81073327D01*
X168436761Y-81089290D01*
X168430099Y-81106736D01*
X168419201Y-81129948D01*
X168414658Y-81159128D01*
X168410874Y-81175849D01*
X168404986Y-81195536D01*
X168404985Y-81195539D01*
X168402413Y-81204141D01*
X168402358Y-81213116D01*
X168402358Y-81213117D01*
X168402203Y-81238546D01*
X168402170Y-81239328D01*
X168402000Y-81240423D01*
X168402000Y-81271298D01*
X168401998Y-81272068D01*
X168401524Y-81349652D01*
X168401908Y-81350996D01*
X168402000Y-81352341D01*
X168402000Y-95271298D01*
X168401998Y-95272068D01*
X168401524Y-95349652D01*
X165518000Y-95349652D01*
X165518000Y-86853702D01*
X165518002Y-86852932D01*
X165518421Y-86784322D01*
X165518476Y-86775348D01*
X165516010Y-86766719D01*
X165516009Y-86766714D01*
X165510361Y-86746952D01*
X165506783Y-86730191D01*
X165503870Y-86709848D01*
X165503867Y-86709838D01*
X165502595Y-86700955D01*
X165491979Y-86677605D01*
X165485536Y-86660093D01*
X165480954Y-86644063D01*
X165478488Y-86635435D01*
X165462726Y-86610452D01*
X165454596Y-86595386D01*
X165442367Y-86568490D01*
X165425626Y-86549061D01*
X165414521Y-86534053D01*
X165405630Y-86519961D01*
X165400840Y-86512369D01*
X165378703Y-86492818D01*
X165366659Y-86480626D01*
X165353239Y-86465051D01*
X165353237Y-86465050D01*
X165347381Y-86458253D01*
X165339853Y-86453374D01*
X165339850Y-86453371D01*
X165325861Y-86444304D01*
X165310987Y-86433014D01*
X165298502Y-86421988D01*
X165291772Y-86416044D01*
X165283646Y-86412229D01*
X165283645Y-86412228D01*
X165277979Y-86409568D01*
X165265034Y-86403490D01*
X165250065Y-86395176D01*
X165225273Y-86379107D01*
X165200709Y-86371761D01*
X165183264Y-86365099D01*
X165178827Y-86363016D01*
X165160052Y-86354201D01*
X165130870Y-86349657D01*
X165114151Y-86345874D01*
X165094464Y-86339986D01*
X165094461Y-86339985D01*
X165085859Y-86337413D01*
X165076884Y-86337358D01*
X165076883Y-86337358D01*
X165070190Y-86337317D01*
X165051444Y-86337203D01*
X165050672Y-86337170D01*
X165049577Y-86337000D01*
X165018702Y-86337000D01*
X165017932Y-86336998D01*
X164944284Y-86336548D01*
X164944283Y-86336548D01*
X164940348Y-86336524D01*
X164939004Y-86336908D01*
X164937659Y-86337000D01*
X136018702Y-86337000D01*
X136017932Y-86336998D01*
X136017078Y-86336993D01*
X135940348Y-86336524D01*
X135931719Y-86338990D01*
X135931714Y-86338991D01*
X135911952Y-86344639D01*
X135895191Y-86348217D01*
X135874848Y-86351130D01*
X135874838Y-86351133D01*
X135865955Y-86352405D01*
X135842605Y-86363021D01*
X135825093Y-86369464D01*
X135817057Y-86371761D01*
X135800435Y-86376512D01*
X135775452Y-86392274D01*
X135760386Y-86400404D01*
X135733490Y-86412633D01*
X135714061Y-86429374D01*
X135699053Y-86440479D01*
X135677369Y-86454160D01*
X135671427Y-86460888D01*
X135657819Y-86476296D01*
X135645627Y-86488340D01*
X135623253Y-86507619D01*
X135618374Y-86515147D01*
X135618371Y-86515150D01*
X135609304Y-86529139D01*
X135598014Y-86544013D01*
X135581044Y-86563228D01*
X135568490Y-86589966D01*
X135560176Y-86604935D01*
X135544107Y-86629727D01*
X135541535Y-86638327D01*
X135536761Y-86654290D01*
X135530099Y-86671736D01*
X135519201Y-86694948D01*
X135514658Y-86724128D01*
X135510874Y-86740849D01*
X135504986Y-86760536D01*
X135504985Y-86760539D01*
X135502413Y-86769141D01*
X135502358Y-86778116D01*
X135502358Y-86778117D01*
X135502203Y-86803546D01*
X135502170Y-86804328D01*
X135502000Y-86805423D01*
X135502000Y-86836298D01*
X135501998Y-86837068D01*
X135501524Y-86914652D01*
X135501908Y-86915996D01*
X135502000Y-86917341D01*
X135502000Y-115836298D01*
X135501998Y-115837068D01*
X135501524Y-115914652D01*
X96800082Y-115914652D01*
X96962370Y-115718480D01*
X97124758Y-115462598D01*
X97253794Y-115188381D01*
X97347445Y-114900154D01*
X97404233Y-114602462D01*
X97416993Y-114399652D01*
X98551524Y-114399652D01*
X98553990Y-114408281D01*
X98553991Y-114408286D01*
X98559639Y-114428048D01*
X98563217Y-114444809D01*
X98566130Y-114465152D01*
X98566133Y-114465162D01*
X98567405Y-114474045D01*
X98578021Y-114497395D01*
X98584464Y-114514907D01*
X98591512Y-114539565D01*
X98607274Y-114564548D01*
X98615404Y-114579614D01*
X98627633Y-114606510D01*
X98644374Y-114625939D01*
X98655479Y-114640947D01*
X98669160Y-114662631D01*
X98675888Y-114668573D01*
X98691296Y-114682181D01*
X98703340Y-114694373D01*
X98722619Y-114716747D01*
X98730147Y-114721626D01*
X98730150Y-114721629D01*
X98744139Y-114730696D01*
X98759013Y-114741986D01*
X98778228Y-114758956D01*
X98786354Y-114762771D01*
X98786355Y-114762772D01*
X98792021Y-114765432D01*
X98804966Y-114771510D01*
X98819935Y-114779824D01*
X98844727Y-114795893D01*
X98861650Y-114800954D01*
X98869290Y-114803239D01*
X98886736Y-114809901D01*
X98909948Y-114820799D01*
X98939130Y-114825343D01*
X98955849Y-114829126D01*
X98975536Y-114835014D01*
X98975539Y-114835015D01*
X98984141Y-114837587D01*
X98993116Y-114837642D01*
X98993117Y-114837642D01*
X98999810Y-114837683D01*
X99018556Y-114837797D01*
X99019328Y-114837830D01*
X99020423Y-114838000D01*
X99051298Y-114838000D01*
X99052068Y-114838002D01*
X99125716Y-114838452D01*
X99125717Y-114838452D01*
X99129652Y-114838476D01*
X99130996Y-114838092D01*
X99132341Y-114838000D01*
X113051298Y-114838000D01*
X113052069Y-114838002D01*
X113129652Y-114838476D01*
X113138281Y-114836010D01*
X113138286Y-114836009D01*
X113158048Y-114830361D01*
X113174809Y-114826783D01*
X113195152Y-114823870D01*
X113195162Y-114823867D01*
X113204045Y-114822595D01*
X113227395Y-114811979D01*
X113244907Y-114805536D01*
X113260937Y-114800954D01*
X113269565Y-114798488D01*
X113294548Y-114782726D01*
X113309614Y-114774596D01*
X113336510Y-114762367D01*
X113355939Y-114745626D01*
X113370947Y-114734521D01*
X113385039Y-114725630D01*
X113392631Y-114720840D01*
X113412182Y-114698703D01*
X113424374Y-114686659D01*
X113439949Y-114673239D01*
X113439950Y-114673237D01*
X113446747Y-114667381D01*
X113451626Y-114659853D01*
X113451629Y-114659850D01*
X113460696Y-114645861D01*
X113471986Y-114630987D01*
X113483012Y-114618502D01*
X113488956Y-114611772D01*
X113501513Y-114585028D01*
X113509824Y-114570065D01*
X113525893Y-114545273D01*
X113533239Y-114520709D01*
X113539901Y-114503264D01*
X113546983Y-114488179D01*
X113550799Y-114480052D01*
X113555343Y-114450870D01*
X113559126Y-114434151D01*
X113565014Y-114414464D01*
X113565015Y-114414461D01*
X113567587Y-114405859D01*
X113567625Y-114399652D01*
X117601524Y-114399652D01*
X117603990Y-114408281D01*
X117603991Y-114408286D01*
X117609639Y-114428048D01*
X117613217Y-114444809D01*
X117616130Y-114465152D01*
X117616133Y-114465162D01*
X117617405Y-114474045D01*
X117628021Y-114497395D01*
X117634464Y-114514907D01*
X117641512Y-114539565D01*
X117657274Y-114564548D01*
X117665404Y-114579614D01*
X117677633Y-114606510D01*
X117694374Y-114625939D01*
X117705479Y-114640947D01*
X117719160Y-114662631D01*
X117725888Y-114668573D01*
X117741296Y-114682181D01*
X117753340Y-114694373D01*
X117772619Y-114716747D01*
X117780147Y-114721626D01*
X117780150Y-114721629D01*
X117794139Y-114730696D01*
X117809013Y-114741986D01*
X117828228Y-114758956D01*
X117836354Y-114762771D01*
X117836355Y-114762772D01*
X117842021Y-114765432D01*
X117854966Y-114771510D01*
X117869935Y-114779824D01*
X117894727Y-114795893D01*
X117911650Y-114800954D01*
X117919290Y-114803239D01*
X117936736Y-114809901D01*
X117959948Y-114820799D01*
X117989130Y-114825343D01*
X118005849Y-114829126D01*
X118025536Y-114835014D01*
X118025539Y-114835015D01*
X118034141Y-114837587D01*
X118043116Y-114837642D01*
X118043117Y-114837642D01*
X118049810Y-114837683D01*
X118068556Y-114837797D01*
X118069328Y-114837830D01*
X118070423Y-114838000D01*
X118101298Y-114838000D01*
X118102068Y-114838002D01*
X118175716Y-114838452D01*
X118175717Y-114838452D01*
X118179652Y-114838476D01*
X118180996Y-114838092D01*
X118182341Y-114838000D01*
X132101298Y-114838000D01*
X132102069Y-114838002D01*
X132179652Y-114838476D01*
X132188281Y-114836010D01*
X132188286Y-114836009D01*
X132208048Y-114830361D01*
X132224809Y-114826783D01*
X132245152Y-114823870D01*
X132245162Y-114823867D01*
X132254045Y-114822595D01*
X132277395Y-114811979D01*
X132294907Y-114805536D01*
X132310937Y-114800954D01*
X132319565Y-114798488D01*
X132344548Y-114782726D01*
X132359614Y-114774596D01*
X132386510Y-114762367D01*
X132405939Y-114745626D01*
X132420947Y-114734521D01*
X132435039Y-114725630D01*
X132442631Y-114720840D01*
X132462182Y-114698703D01*
X132474374Y-114686659D01*
X132489949Y-114673239D01*
X132489950Y-114673237D01*
X132496747Y-114667381D01*
X132501626Y-114659853D01*
X132501629Y-114659850D01*
X132510696Y-114645861D01*
X132521986Y-114630987D01*
X132533012Y-114618502D01*
X132538956Y-114611772D01*
X132551513Y-114585028D01*
X132559824Y-114570065D01*
X132575893Y-114545273D01*
X132583239Y-114520709D01*
X132589901Y-114503264D01*
X132596983Y-114488179D01*
X132600799Y-114480052D01*
X132605343Y-114450870D01*
X132609126Y-114434151D01*
X132615014Y-114414464D01*
X132615015Y-114414461D01*
X132617587Y-114405859D01*
X132617797Y-114371444D01*
X132617830Y-114370672D01*
X132618000Y-114369577D01*
X132618000Y-114338702D01*
X132618002Y-114337932D01*
X132618452Y-114264284D01*
X132618452Y-114264283D01*
X132618476Y-114260348D01*
X132618092Y-114259004D01*
X132618000Y-114257659D01*
X132618000Y-100338702D01*
X132618002Y-100337932D01*
X132618421Y-100269322D01*
X132618476Y-100260348D01*
X132616010Y-100251719D01*
X132616009Y-100251714D01*
X132610361Y-100231952D01*
X132606783Y-100215191D01*
X132603870Y-100194848D01*
X132603867Y-100194838D01*
X132602595Y-100185955D01*
X132591979Y-100162605D01*
X132585536Y-100145093D01*
X132580954Y-100129063D01*
X132578488Y-100120435D01*
X132562726Y-100095452D01*
X132554596Y-100080386D01*
X132542367Y-100053490D01*
X132525626Y-100034061D01*
X132514521Y-100019053D01*
X132505630Y-100004961D01*
X132500840Y-99997369D01*
X132478703Y-99977818D01*
X132466659Y-99965626D01*
X132453239Y-99950051D01*
X132453237Y-99950050D01*
X132447381Y-99943253D01*
X132439853Y-99938374D01*
X132439850Y-99938371D01*
X132425861Y-99929304D01*
X132410987Y-99918014D01*
X132398502Y-99906988D01*
X132391772Y-99901044D01*
X132383646Y-99897229D01*
X132383645Y-99897228D01*
X132377979Y-99894568D01*
X132365034Y-99888490D01*
X132350065Y-99880176D01*
X132325273Y-99864107D01*
X132300709Y-99856761D01*
X132283264Y-99850099D01*
X132278827Y-99848016D01*
X132260052Y-99839201D01*
X132230870Y-99834657D01*
X132214151Y-99830874D01*
X132194464Y-99824986D01*
X132194461Y-99824985D01*
X132185859Y-99822413D01*
X132176884Y-99822358D01*
X132176883Y-99822358D01*
X132170190Y-99822317D01*
X132151444Y-99822203D01*
X132150672Y-99822170D01*
X132149577Y-99822000D01*
X132118702Y-99822000D01*
X132117932Y-99821998D01*
X132044284Y-99821548D01*
X132044283Y-99821548D01*
X132040348Y-99821524D01*
X132039004Y-99821908D01*
X132037659Y-99822000D01*
X118118702Y-99822000D01*
X118117932Y-99821998D01*
X118117078Y-99821993D01*
X118040348Y-99821524D01*
X118031719Y-99823990D01*
X118031714Y-99823991D01*
X118011952Y-99829639D01*
X117995191Y-99833217D01*
X117974848Y-99836130D01*
X117974838Y-99836133D01*
X117965955Y-99837405D01*
X117942605Y-99848021D01*
X117925093Y-99854464D01*
X117917057Y-99856761D01*
X117900435Y-99861512D01*
X117875452Y-99877274D01*
X117860386Y-99885404D01*
X117833490Y-99897633D01*
X117814061Y-99914374D01*
X117799053Y-99925479D01*
X117777369Y-99939160D01*
X117771427Y-99945888D01*
X117757819Y-99961296D01*
X117745627Y-99973340D01*
X117723253Y-99992619D01*
X117718374Y-100000147D01*
X117718371Y-100000150D01*
X117709304Y-100014139D01*
X117698014Y-100029013D01*
X117681044Y-100048228D01*
X117668490Y-100074966D01*
X117660176Y-100089935D01*
X117644107Y-100114727D01*
X117641535Y-100123327D01*
X117636761Y-100139290D01*
X117630099Y-100156736D01*
X117619201Y-100179948D01*
X117614658Y-100209128D01*
X117610874Y-100225849D01*
X117604986Y-100245536D01*
X117604985Y-100245539D01*
X117602413Y-100254141D01*
X117602358Y-100263116D01*
X117602358Y-100263117D01*
X117602203Y-100288546D01*
X117602170Y-100289328D01*
X117602000Y-100290423D01*
X117602000Y-100321298D01*
X117601998Y-100322068D01*
X117601524Y-100399652D01*
X117601908Y-100400996D01*
X117602000Y-100402341D01*
X117602000Y-114321298D01*
X117601998Y-114322068D01*
X117601524Y-114399652D01*
X113567625Y-114399652D01*
X113567797Y-114371444D01*
X113567830Y-114370672D01*
X113568000Y-114369577D01*
X113568000Y-114338702D01*
X113568002Y-114337932D01*
X113568452Y-114264284D01*
X113568452Y-114264283D01*
X113568476Y-114260348D01*
X113568092Y-114259004D01*
X113568000Y-114257659D01*
X113568000Y-100338702D01*
X113568002Y-100337932D01*
X113568421Y-100269322D01*
X113568476Y-100260348D01*
X113566010Y-100251719D01*
X113566009Y-100251714D01*
X113560361Y-100231952D01*
X113556783Y-100215191D01*
X113553870Y-100194848D01*
X113553867Y-100194838D01*
X113552595Y-100185955D01*
X113541979Y-100162605D01*
X113535536Y-100145093D01*
X113530954Y-100129063D01*
X113528488Y-100120435D01*
X113512726Y-100095452D01*
X113504596Y-100080386D01*
X113492367Y-100053490D01*
X113475626Y-100034061D01*
X113464521Y-100019053D01*
X113455630Y-100004961D01*
X113450840Y-99997369D01*
X113428703Y-99977818D01*
X113416659Y-99965626D01*
X113403239Y-99950051D01*
X113403237Y-99950050D01*
X113397381Y-99943253D01*
X113389853Y-99938374D01*
X113389850Y-99938371D01*
X113375861Y-99929304D01*
X113360987Y-99918014D01*
X113348502Y-99906988D01*
X113341772Y-99901044D01*
X113333646Y-99897229D01*
X113333645Y-99897228D01*
X113327979Y-99894568D01*
X113315034Y-99888490D01*
X113300065Y-99880176D01*
X113275273Y-99864107D01*
X113250709Y-99856761D01*
X113233264Y-99850099D01*
X113228827Y-99848016D01*
X113210052Y-99839201D01*
X113180870Y-99834657D01*
X113164151Y-99830874D01*
X113144464Y-99824986D01*
X113144461Y-99824985D01*
X113135859Y-99822413D01*
X113126884Y-99822358D01*
X113126883Y-99822358D01*
X113120190Y-99822317D01*
X113101444Y-99822203D01*
X113100672Y-99822170D01*
X113099577Y-99822000D01*
X113068702Y-99822000D01*
X113067932Y-99821998D01*
X112994284Y-99821548D01*
X112994283Y-99821548D01*
X112990348Y-99821524D01*
X112989004Y-99821908D01*
X112987659Y-99822000D01*
X99068702Y-99822000D01*
X99067932Y-99821998D01*
X99067078Y-99821993D01*
X98990348Y-99821524D01*
X98981719Y-99823990D01*
X98981714Y-99823991D01*
X98961952Y-99829639D01*
X98945191Y-99833217D01*
X98924848Y-99836130D01*
X98924838Y-99836133D01*
X98915955Y-99837405D01*
X98892605Y-99848021D01*
X98875093Y-99854464D01*
X98867057Y-99856761D01*
X98850435Y-99861512D01*
X98825452Y-99877274D01*
X98810386Y-99885404D01*
X98783490Y-99897633D01*
X98764061Y-99914374D01*
X98749053Y-99925479D01*
X98727369Y-99939160D01*
X98721427Y-99945888D01*
X98707819Y-99961296D01*
X98695627Y-99973340D01*
X98673253Y-99992619D01*
X98668374Y-100000147D01*
X98668371Y-100000150D01*
X98659304Y-100014139D01*
X98648014Y-100029013D01*
X98631044Y-100048228D01*
X98618490Y-100074966D01*
X98610176Y-100089935D01*
X98594107Y-100114727D01*
X98591535Y-100123327D01*
X98586761Y-100139290D01*
X98580099Y-100156736D01*
X98569201Y-100179948D01*
X98564658Y-100209128D01*
X98560874Y-100225849D01*
X98554986Y-100245536D01*
X98554985Y-100245539D01*
X98552413Y-100254141D01*
X98552358Y-100263116D01*
X98552358Y-100263117D01*
X98552203Y-100288546D01*
X98552170Y-100289328D01*
X98552000Y-100290423D01*
X98552000Y-100321298D01*
X98551998Y-100322068D01*
X98551524Y-100399652D01*
X98551908Y-100400996D01*
X98552000Y-100402341D01*
X98552000Y-114321298D01*
X98551998Y-114322068D01*
X98551524Y-114399652D01*
X97416993Y-114399652D01*
X97423262Y-114300000D01*
X97404233Y-113997538D01*
X97347445Y-113699846D01*
X97253794Y-113411619D01*
X97124758Y-113137402D01*
X96962370Y-112881520D01*
X96769192Y-112648008D01*
X96548271Y-112440550D01*
X96303090Y-112262416D01*
X96037517Y-112116415D01*
X96033848Y-112114962D01*
X96033843Y-112114960D01*
X95759409Y-112006304D01*
X95759408Y-112006304D01*
X95755739Y-112004851D01*
X95462200Y-111929484D01*
X95161530Y-111891500D01*
X94858470Y-111891500D01*
X94557800Y-111929484D01*
X94264261Y-112004851D01*
X94260592Y-112006304D01*
X94260591Y-112006304D01*
X93986157Y-112114960D01*
X93986152Y-112114962D01*
X93982483Y-112116415D01*
X93716910Y-112262416D01*
X93471729Y-112440550D01*
X93250808Y-112648008D01*
X93057630Y-112881520D01*
X92895242Y-113137402D01*
X92766206Y-113411619D01*
X92672555Y-113699846D01*
X92615767Y-113997538D01*
X92596738Y-114300000D01*
X91048719Y-114300000D01*
X91035811Y-114201957D01*
X91034853Y-114191006D01*
X91020059Y-113852173D01*
X91021686Y-113825769D01*
X91022263Y-113822342D01*
X91022263Y-113822340D01*
X91023071Y-113817539D01*
X91023224Y-113805000D01*
X91019273Y-113777412D01*
X91018000Y-113759549D01*
X91018000Y-95349652D01*
X98551524Y-95349652D01*
X98553990Y-95358281D01*
X98553991Y-95358286D01*
X98559639Y-95378048D01*
X98563217Y-95394809D01*
X98566130Y-95415152D01*
X98566133Y-95415162D01*
X98567405Y-95424045D01*
X98578021Y-95447395D01*
X98584464Y-95464907D01*
X98591512Y-95489565D01*
X98607274Y-95514548D01*
X98615404Y-95529614D01*
X98627633Y-95556510D01*
X98644374Y-95575939D01*
X98655479Y-95590947D01*
X98669160Y-95612631D01*
X98675888Y-95618573D01*
X98691296Y-95632181D01*
X98703340Y-95644373D01*
X98722619Y-95666747D01*
X98730147Y-95671626D01*
X98730150Y-95671629D01*
X98744139Y-95680696D01*
X98759013Y-95691986D01*
X98778228Y-95708956D01*
X98786354Y-95712771D01*
X98786355Y-95712772D01*
X98792021Y-95715432D01*
X98804966Y-95721510D01*
X98819935Y-95729824D01*
X98844727Y-95745893D01*
X98861650Y-95750954D01*
X98869290Y-95753239D01*
X98886736Y-95759901D01*
X98909948Y-95770799D01*
X98939130Y-95775343D01*
X98955849Y-95779126D01*
X98975536Y-95785014D01*
X98975539Y-95785015D01*
X98984141Y-95787587D01*
X98993116Y-95787642D01*
X98993117Y-95787642D01*
X98999810Y-95787683D01*
X99018556Y-95787797D01*
X99019328Y-95787830D01*
X99020423Y-95788000D01*
X99051298Y-95788000D01*
X99052068Y-95788002D01*
X99125716Y-95788452D01*
X99125717Y-95788452D01*
X99129652Y-95788476D01*
X99130996Y-95788092D01*
X99132341Y-95788000D01*
X113051298Y-95788000D01*
X113052069Y-95788002D01*
X113129652Y-95788476D01*
X113138281Y-95786010D01*
X113138286Y-95786009D01*
X113158048Y-95780361D01*
X113174809Y-95776783D01*
X113195152Y-95773870D01*
X113195162Y-95773867D01*
X113204045Y-95772595D01*
X113227395Y-95761979D01*
X113244907Y-95755536D01*
X113260937Y-95750954D01*
X113269565Y-95748488D01*
X113294548Y-95732726D01*
X113309614Y-95724596D01*
X113336510Y-95712367D01*
X113355939Y-95695626D01*
X113370947Y-95684521D01*
X113385039Y-95675630D01*
X113392631Y-95670840D01*
X113412182Y-95648703D01*
X113424374Y-95636659D01*
X113439949Y-95623239D01*
X113439950Y-95623237D01*
X113446747Y-95617381D01*
X113451626Y-95609853D01*
X113451629Y-95609850D01*
X113460696Y-95595861D01*
X113471986Y-95580987D01*
X113483012Y-95568502D01*
X113488956Y-95561772D01*
X113501510Y-95535034D01*
X113509824Y-95520065D01*
X113525893Y-95495273D01*
X113533239Y-95470709D01*
X113539901Y-95453264D01*
X113546983Y-95438179D01*
X113550799Y-95430052D01*
X113555343Y-95400870D01*
X113559126Y-95384151D01*
X113565014Y-95364464D01*
X113565015Y-95364461D01*
X113567587Y-95355859D01*
X113567625Y-95349652D01*
X117601524Y-95349652D01*
X117603990Y-95358281D01*
X117603991Y-95358286D01*
X117609639Y-95378048D01*
X117613217Y-95394809D01*
X117616130Y-95415152D01*
X117616133Y-95415162D01*
X117617405Y-95424045D01*
X117628021Y-95447395D01*
X117634464Y-95464907D01*
X117641512Y-95489565D01*
X117657274Y-95514548D01*
X117665404Y-95529614D01*
X117677633Y-95556510D01*
X117694374Y-95575939D01*
X117705479Y-95590947D01*
X117719160Y-95612631D01*
X117725888Y-95618573D01*
X117741296Y-95632181D01*
X117753340Y-95644373D01*
X117772619Y-95666747D01*
X117780147Y-95671626D01*
X117780150Y-95671629D01*
X117794139Y-95680696D01*
X117809013Y-95691986D01*
X117828228Y-95708956D01*
X117836354Y-95712771D01*
X117836355Y-95712772D01*
X117842021Y-95715432D01*
X117854966Y-95721510D01*
X117869935Y-95729824D01*
X117894727Y-95745893D01*
X117911650Y-95750954D01*
X117919290Y-95753239D01*
X117936736Y-95759901D01*
X117959948Y-95770799D01*
X117989130Y-95775343D01*
X118005849Y-95779126D01*
X118025536Y-95785014D01*
X118025539Y-95785015D01*
X118034141Y-95787587D01*
X118043116Y-95787642D01*
X118043117Y-95787642D01*
X118049810Y-95787683D01*
X118068556Y-95787797D01*
X118069328Y-95787830D01*
X118070423Y-95788000D01*
X118101298Y-95788000D01*
X118102068Y-95788002D01*
X118175716Y-95788452D01*
X118175717Y-95788452D01*
X118179652Y-95788476D01*
X118180996Y-95788092D01*
X118182341Y-95788000D01*
X132101298Y-95788000D01*
X132102069Y-95788002D01*
X132179652Y-95788476D01*
X132188281Y-95786010D01*
X132188286Y-95786009D01*
X132208048Y-95780361D01*
X132224809Y-95776783D01*
X132245152Y-95773870D01*
X132245162Y-95773867D01*
X132254045Y-95772595D01*
X132277395Y-95761979D01*
X132294907Y-95755536D01*
X132310937Y-95750954D01*
X132319565Y-95748488D01*
X132344548Y-95732726D01*
X132359614Y-95724596D01*
X132386510Y-95712367D01*
X132405939Y-95695626D01*
X132420947Y-95684521D01*
X132435039Y-95675630D01*
X132442631Y-95670840D01*
X132462182Y-95648703D01*
X132474374Y-95636659D01*
X132489949Y-95623239D01*
X132489950Y-95623237D01*
X132496747Y-95617381D01*
X132501626Y-95609853D01*
X132501629Y-95609850D01*
X132510696Y-95595861D01*
X132521986Y-95580987D01*
X132533012Y-95568502D01*
X132538956Y-95561772D01*
X132551510Y-95535034D01*
X132559824Y-95520065D01*
X132575893Y-95495273D01*
X132583239Y-95470709D01*
X132589901Y-95453264D01*
X132596983Y-95438179D01*
X132600799Y-95430052D01*
X132605343Y-95400870D01*
X132609126Y-95384151D01*
X132615014Y-95364464D01*
X132615015Y-95364461D01*
X132617587Y-95355859D01*
X132617797Y-95321444D01*
X132617830Y-95320672D01*
X132618000Y-95319577D01*
X132618000Y-95288702D01*
X132618002Y-95287932D01*
X132618452Y-95214284D01*
X132618452Y-95214283D01*
X132618476Y-95210348D01*
X132618092Y-95209004D01*
X132618000Y-95207659D01*
X132618000Y-81288702D01*
X132618002Y-81287932D01*
X132618421Y-81219322D01*
X132618476Y-81210348D01*
X132616010Y-81201719D01*
X132616009Y-81201714D01*
X132610361Y-81181952D01*
X132606783Y-81165191D01*
X132603870Y-81144848D01*
X132603867Y-81144838D01*
X132602595Y-81135955D01*
X132591979Y-81112605D01*
X132585536Y-81095093D01*
X132580954Y-81079063D01*
X132578488Y-81070435D01*
X132562726Y-81045452D01*
X132554596Y-81030386D01*
X132542367Y-81003490D01*
X132525626Y-80984061D01*
X132514521Y-80969053D01*
X132505630Y-80954961D01*
X132500840Y-80947369D01*
X132478703Y-80927818D01*
X132466659Y-80915626D01*
X132453239Y-80900051D01*
X132453237Y-80900050D01*
X132447381Y-80893253D01*
X132439853Y-80888374D01*
X132439850Y-80888371D01*
X132425861Y-80879304D01*
X132410987Y-80868014D01*
X132398502Y-80856988D01*
X132391772Y-80851044D01*
X132383646Y-80847229D01*
X132383645Y-80847228D01*
X132377979Y-80844568D01*
X132365034Y-80838490D01*
X132350065Y-80830176D01*
X132325273Y-80814107D01*
X132300709Y-80806761D01*
X132283264Y-80800099D01*
X132278827Y-80798016D01*
X132260052Y-80789201D01*
X132230870Y-80784657D01*
X132214151Y-80780874D01*
X132194464Y-80774986D01*
X132194461Y-80774985D01*
X132185859Y-80772413D01*
X132176884Y-80772358D01*
X132176883Y-80772358D01*
X132170190Y-80772317D01*
X132151444Y-80772203D01*
X132150672Y-80772170D01*
X132149577Y-80772000D01*
X132118702Y-80772000D01*
X132117932Y-80771998D01*
X132044284Y-80771548D01*
X132044283Y-80771548D01*
X132040348Y-80771524D01*
X132039004Y-80771908D01*
X132037659Y-80772000D01*
X118118702Y-80772000D01*
X118117932Y-80771998D01*
X118117078Y-80771993D01*
X118040348Y-80771524D01*
X118031719Y-80773990D01*
X118031714Y-80773991D01*
X118011952Y-80779639D01*
X117995191Y-80783217D01*
X117974848Y-80786130D01*
X117974838Y-80786133D01*
X117965955Y-80787405D01*
X117942605Y-80798021D01*
X117925093Y-80804464D01*
X117917057Y-80806761D01*
X117900435Y-80811512D01*
X117875452Y-80827274D01*
X117860386Y-80835404D01*
X117833490Y-80847633D01*
X117814061Y-80864374D01*
X117799053Y-80875479D01*
X117777369Y-80889160D01*
X117771427Y-80895888D01*
X117757819Y-80911296D01*
X117745627Y-80923340D01*
X117723253Y-80942619D01*
X117718374Y-80950147D01*
X117718371Y-80950150D01*
X117709304Y-80964139D01*
X117698014Y-80979013D01*
X117681044Y-80998228D01*
X117668490Y-81024966D01*
X117660176Y-81039935D01*
X117644107Y-81064727D01*
X117641535Y-81073327D01*
X117636761Y-81089290D01*
X117630099Y-81106736D01*
X117619201Y-81129948D01*
X117614658Y-81159128D01*
X117610874Y-81175849D01*
X117604986Y-81195536D01*
X117604985Y-81195539D01*
X117602413Y-81204141D01*
X117602358Y-81213116D01*
X117602358Y-81213117D01*
X117602203Y-81238546D01*
X117602170Y-81239328D01*
X117602000Y-81240423D01*
X117602000Y-81271298D01*
X117601998Y-81272068D01*
X117601524Y-81349652D01*
X117601908Y-81350996D01*
X117602000Y-81352341D01*
X117602000Y-95271298D01*
X117601998Y-95272068D01*
X117601524Y-95349652D01*
X113567625Y-95349652D01*
X113567797Y-95321444D01*
X113567830Y-95320672D01*
X113568000Y-95319577D01*
X113568000Y-95288702D01*
X113568002Y-95287932D01*
X113568452Y-95214284D01*
X113568452Y-95214283D01*
X113568476Y-95210348D01*
X113568092Y-95209004D01*
X113568000Y-95207659D01*
X113568000Y-81288702D01*
X113568002Y-81287932D01*
X113568421Y-81219322D01*
X113568476Y-81210348D01*
X113566010Y-81201719D01*
X113566009Y-81201714D01*
X113560361Y-81181952D01*
X113556783Y-81165191D01*
X113553870Y-81144848D01*
X113553867Y-81144838D01*
X113552595Y-81135955D01*
X113541979Y-81112605D01*
X113535536Y-81095093D01*
X113530954Y-81079063D01*
X113528488Y-81070435D01*
X113512726Y-81045452D01*
X113504596Y-81030386D01*
X113492367Y-81003490D01*
X113475626Y-80984061D01*
X113464521Y-80969053D01*
X113455630Y-80954961D01*
X113450840Y-80947369D01*
X113428703Y-80927818D01*
X113416659Y-80915626D01*
X113403239Y-80900051D01*
X113403237Y-80900050D01*
X113397381Y-80893253D01*
X113389853Y-80888374D01*
X113389850Y-80888371D01*
X113375861Y-80879304D01*
X113360987Y-80868014D01*
X113348502Y-80856988D01*
X113341772Y-80851044D01*
X113333646Y-80847229D01*
X113333645Y-80847228D01*
X113327979Y-80844568D01*
X113315034Y-80838490D01*
X113300065Y-80830176D01*
X113275273Y-80814107D01*
X113250709Y-80806761D01*
X113233264Y-80800099D01*
X113228827Y-80798016D01*
X113210052Y-80789201D01*
X113180870Y-80784657D01*
X113164151Y-80780874D01*
X113144464Y-80774986D01*
X113144461Y-80774985D01*
X113135859Y-80772413D01*
X113126884Y-80772358D01*
X113126883Y-80772358D01*
X113120190Y-80772317D01*
X113101444Y-80772203D01*
X113100672Y-80772170D01*
X113099577Y-80772000D01*
X113068702Y-80772000D01*
X113067932Y-80771998D01*
X112994284Y-80771548D01*
X112994283Y-80771548D01*
X112990348Y-80771524D01*
X112989004Y-80771908D01*
X112987659Y-80772000D01*
X99068702Y-80772000D01*
X99067932Y-80771998D01*
X99067078Y-80771993D01*
X98990348Y-80771524D01*
X98981719Y-80773990D01*
X98981714Y-80773991D01*
X98961952Y-80779639D01*
X98945191Y-80783217D01*
X98924848Y-80786130D01*
X98924838Y-80786133D01*
X98915955Y-80787405D01*
X98892605Y-80798021D01*
X98875093Y-80804464D01*
X98867057Y-80806761D01*
X98850435Y-80811512D01*
X98825452Y-80827274D01*
X98810386Y-80835404D01*
X98783490Y-80847633D01*
X98764061Y-80864374D01*
X98749053Y-80875479D01*
X98727369Y-80889160D01*
X98721427Y-80895888D01*
X98707819Y-80911296D01*
X98695627Y-80923340D01*
X98673253Y-80942619D01*
X98668374Y-80950147D01*
X98668371Y-80950150D01*
X98659304Y-80964139D01*
X98648014Y-80979013D01*
X98631044Y-80998228D01*
X98618490Y-81024966D01*
X98610176Y-81039935D01*
X98594107Y-81064727D01*
X98591535Y-81073327D01*
X98586761Y-81089290D01*
X98580099Y-81106736D01*
X98569201Y-81129948D01*
X98564658Y-81159128D01*
X98560874Y-81175849D01*
X98554986Y-81195536D01*
X98554985Y-81195539D01*
X98552413Y-81204141D01*
X98552358Y-81213116D01*
X98552358Y-81213117D01*
X98552203Y-81238546D01*
X98552170Y-81239328D01*
X98552000Y-81240423D01*
X98552000Y-81271298D01*
X98551998Y-81272068D01*
X98551524Y-81349652D01*
X98551908Y-81350996D01*
X98552000Y-81352341D01*
X98552000Y-95271298D01*
X98551998Y-95272068D01*
X98551524Y-95349652D01*
X91018000Y-95349652D01*
X91018000Y-81858207D01*
X91019746Y-81837303D01*
X91022264Y-81822335D01*
X91023071Y-81817539D01*
X91023224Y-81805000D01*
X91020885Y-81788664D01*
X91019733Y-81765311D01*
X91034853Y-81418993D01*
X91035811Y-81408042D01*
X91048719Y-81310000D01*
X92596738Y-81310000D01*
X92615767Y-81612462D01*
X92672555Y-81910154D01*
X92766206Y-82198381D01*
X92895242Y-82472598D01*
X93057630Y-82728480D01*
X93250808Y-82961992D01*
X93471729Y-83169450D01*
X93716910Y-83347584D01*
X93982483Y-83493585D01*
X93986152Y-83495038D01*
X93986157Y-83495040D01*
X94260591Y-83603696D01*
X94264261Y-83605149D01*
X94557800Y-83680516D01*
X94858470Y-83718500D01*
X95161530Y-83718500D01*
X95462200Y-83680516D01*
X95755739Y-83605149D01*
X95759409Y-83603696D01*
X96033843Y-83495040D01*
X96033848Y-83495038D01*
X96037517Y-83493585D01*
X96303090Y-83347584D01*
X96548271Y-83169450D01*
X96769192Y-82961992D01*
X96962370Y-82728480D01*
X97124758Y-82472598D01*
X97253794Y-82198381D01*
X97347445Y-81910154D01*
X97404233Y-81612462D01*
X97423262Y-81310000D01*
X97404233Y-81007538D01*
X97347445Y-80709846D01*
X97253794Y-80421619D01*
X97249089Y-80411619D01*
X97126445Y-80150988D01*
X97124758Y-80147402D01*
X96962370Y-79891520D01*
X96954098Y-79881520D01*
X96903930Y-79820879D01*
X96769192Y-79658008D01*
X96548271Y-79450550D01*
X96303090Y-79272416D01*
X96284901Y-79262416D01*
X96040986Y-79128322D01*
X96040985Y-79128321D01*
X96037517Y-79126415D01*
X96033848Y-79124962D01*
X96033843Y-79124960D01*
X95759409Y-79016304D01*
X95759408Y-79016304D01*
X95755739Y-79014851D01*
X95462200Y-78939484D01*
X95161530Y-78901500D01*
X94858470Y-78901500D01*
X94557800Y-78939484D01*
X94264261Y-79014851D01*
X94260592Y-79016304D01*
X94260591Y-79016304D01*
X93986157Y-79124960D01*
X93986152Y-79124962D01*
X93982483Y-79126415D01*
X93979015Y-79128321D01*
X93979014Y-79128322D01*
X93735100Y-79262416D01*
X93716910Y-79272416D01*
X93471729Y-79450550D01*
X93250808Y-79658008D01*
X93116070Y-79820879D01*
X93065903Y-79881520D01*
X93057630Y-79891520D01*
X92895242Y-80147402D01*
X92893555Y-80150988D01*
X92770912Y-80411619D01*
X92766206Y-80421619D01*
X92672555Y-80709846D01*
X92615767Y-81007538D01*
X92596738Y-81310000D01*
X91048719Y-81310000D01*
X91085527Y-81030421D01*
X91087436Y-81019597D01*
X91169870Y-80647757D01*
X91172715Y-80637139D01*
X91239479Y-80425392D01*
X91287248Y-80273890D01*
X91291004Y-80263568D01*
X91337636Y-80150988D01*
X91436766Y-79911666D01*
X91441399Y-79901731D01*
X91617278Y-79563872D01*
X91622768Y-79554363D01*
X91827410Y-79233140D01*
X91833714Y-79224136D01*
X92000862Y-79006304D01*
X92065586Y-78921954D01*
X92072649Y-78913537D01*
X92329963Y-78632728D01*
X92337732Y-78624959D01*
X92618537Y-78367649D01*
X92626957Y-78360583D01*
X92929136Y-78128714D01*
X92938140Y-78122410D01*
X93259363Y-77917768D01*
X93268872Y-77912278D01*
X93606731Y-77736399D01*
X93616666Y-77731766D01*
X93968575Y-77586001D01*
X93978890Y-77582248D01*
X94342140Y-77467715D01*
X94352757Y-77464870D01*
X94724597Y-77382436D01*
X94735421Y-77380527D01*
X95113042Y-77330811D01*
X95123993Y-77329853D01*
X95391226Y-77318186D01*
X95466583Y-77314896D01*
X95491462Y-77316276D01*
X95503730Y-77318186D01*
X95535252Y-77314064D01*
X95551589Y-77313000D01*
X205460672Y-77313000D01*
X205480057Y-77314500D01*
G37*
%TD.AperFunction*%
M02*
