M48
; DRILL file {KiCad (6.99.0)} date Thu Dec 30 19:51:39 2021
; FORMAT={-:-/ absolute / metric / decimal}
; #@! TF.CreationDate,2021-12-30T19:51:39+01:00
; #@! TF.GenerationSoftware,Kicad,Pcbnew,(6.99.0)
; #@! TF.FileFunction,MixedPlating,1,2
FMAT,2
METRIC
; #@! TA.AperFunction,Plated,PTH,ViaDrill
T1C0.400
; #@! TA.AperFunction,Plated,PTH,ComponentDrill
T2C0.990
; #@! TA.AperFunction,Plated,PTH,ComponentDrill
T3C0.991
; #@! TA.AperFunction,Plated,PTH,ComponentDrill
T4C1.000
; #@! TA.AperFunction,Plated,PTH,ComponentDrill
T5C1.092
; #@! TA.AperFunction,Plated,PTH,ComponentDrill
T6C1.300
; #@! TA.AperFunction,NonPlated,NPTH,ComponentDrill
T7C1.200
; #@! TA.AperFunction,NonPlated,NPTH,ComponentDrill
T8C1.750
; #@! TA.AperFunction,NonPlated,NPTH,ComponentDrill
T9C3.000
; #@! TA.AperFunction,NonPlated,NPTH,ComponentDrill
T10C3.988
%
G90
G05
T1
X97.493Y-100.65
X107.09Y-98.03
X107.64Y-107.8
X108.96Y-86.63
X109.15Y-101.63
X109.153Y-104.353
X114.332Y-78.454
X120.96Y-106.1
X121.317Y-93.694
X121.34Y-103.57
X123.476Y-114.014
X124.619Y-114.014
X125.762Y-114.014
X126.27Y-95.345
X127.032Y-108.934
X129.572Y-95.345
X129.572Y-96.488
X132.112Y-101.314
X134.652Y-93.694
X141.002Y-96.234
X146.93Y-115.466
X148.622Y-95.345
X148.622Y-96.488
X160.052Y-96.234
X165.99Y-114.741
X167.672Y-95.345
X167.672Y-96.488
X179.102Y-96.234
X182.912Y-114.014
X186.722Y-95.345
T2
X108.617Y-114.141
X113.617Y-114.141
T3
X143.701Y-84.328
X143.701Y-91.948
X143.701Y-103.378
X143.701Y-110.998
X162.75Y-84.328
X162.75Y-91.948
X162.75Y-103.378
X162.75Y-110.998
X181.8Y-84.328
X181.8Y-91.948
X181.8Y-103.378
X181.8Y-110.998
X200.85Y-84.328
X200.85Y-91.948
X200.85Y-103.378
X200.85Y-110.998
T4
X99.795Y-93.123
X99.795Y-95.663
X99.795Y-98.203
X99.795Y-100.743
T5
X103.537Y-84.487
X103.537Y-87.027
X103.537Y-89.567
X103.537Y-92.107
X103.537Y-94.647
X103.537Y-97.187
X103.537Y-99.727
X103.537Y-102.267
X103.537Y-104.807
X103.537Y-107.347
X103.537Y-109.887
X103.537Y-112.427
X118.777Y-84.487
X118.777Y-87.027
X118.777Y-89.567
X118.777Y-92.107
X118.777Y-94.647
X118.777Y-97.187
X118.777Y-99.727
X118.777Y-102.267
X118.777Y-104.807
X118.777Y-107.347
X118.777Y-109.887
X118.777Y-112.427
T6
X107.617Y-111.651
X114.627Y-111.651
T7
X111.117Y-115.351
T8
X129.889Y-87.344
X129.889Y-106.394
X140.049Y-87.344
X140.049Y-106.394
X148.939Y-87.344
X148.939Y-106.394
X159.099Y-87.344
X159.099Y-106.394
X167.989Y-87.344
X167.989Y-106.394
X178.149Y-87.344
X178.149Y-106.394
X187.039Y-87.344
X187.039Y-106.394
X197.199Y-87.344
X197.199Y-106.394
T9
X131.159Y-84.804
X131.159Y-103.854
X137.509Y-82.264
X137.509Y-101.314
X150.209Y-84.804
X150.209Y-103.854
X156.559Y-82.264
X156.559Y-101.314
X169.259Y-84.804
X169.259Y-103.854
X175.609Y-82.264
X175.609Y-101.314
X188.309Y-84.804
X188.309Y-103.854
X194.659Y-82.264
X194.659Y-101.314
T10
X134.969Y-87.344
X134.969Y-106.394
X154.019Y-87.344
X154.019Y-106.394
X173.069Y-87.344
X173.069Y-106.394
X192.119Y-87.344
X192.119Y-106.394
T0
M30
