%TF.GenerationSoftware,KiCad,Pcbnew,(6.99.0)*%
%TF.CreationDate,2021-12-30T19:51:54+01:00*%
%TF.ProjectId,TurtlePad,54757274-6c65-4506-9164-2e6b69636164,rev?*%
%TF.SameCoordinates,Original*%
%TF.FileFunction,Soldermask,Bot*%
%TF.FilePolarity,Negative*%
%FSLAX46Y46*%
G04 Gerber Fmt 4.6, Leading zero omitted, Abs format (unit mm)*
G04 Created by KiCad (PCBNEW (6.99.0)) date 2021-12-30 19:51:54*
%MOMM*%
%LPD*%
G01*
G04 APERTURE LIST*
%ADD10O,2.000000X1.600000*%
%ADD11C,1.651000*%
%ADD12R,1.651000X1.651000*%
%ADD13C,3.000000*%
%ADD14C,1.750000*%
%ADD15C,3.987800*%
%ADD16R,2.550000X2.500000*%
%ADD17R,1.501140X0.899160*%
%ADD18R,1.752600X1.752600*%
%ADD19C,1.752600*%
%ADD20C,2.100000*%
%ADD21C,1.200000*%
G04 APERTURE END LIST*
D10*
%TO.C,OL1*%
X99794750Y-100743250D03*
X99794750Y-98203250D03*
X99794750Y-95663250D03*
X99794750Y-93123250D03*
%TD*%
D11*
%TO.C,D2*%
X181800500Y-91948000D03*
D12*
X181800500Y-84328000D03*
%TD*%
D11*
%TO.C,D3*%
X162750500Y-91948000D03*
D12*
X162750500Y-84328000D03*
%TD*%
D11*
%TO.C,D4*%
X143700500Y-91948000D03*
D12*
X143700500Y-84328000D03*
%TD*%
D11*
%TO.C,D5*%
X200850500Y-110998000D03*
D12*
X200850500Y-103378000D03*
%TD*%
D11*
%TO.C,D6*%
X181800500Y-110998000D03*
D12*
X181800500Y-103378000D03*
%TD*%
D11*
%TO.C,D7*%
X162750500Y-110998000D03*
D12*
X162750500Y-103378000D03*
%TD*%
D11*
%TO.C,D8*%
X143700500Y-110998000D03*
D12*
X143700500Y-103378000D03*
%TD*%
D13*
%TO.C,MX1*%
X194659250Y-82264250D03*
D14*
X197199250Y-87344250D03*
D15*
X192119250Y-87344250D03*
D14*
X187039250Y-87344250D03*
D13*
X188309250Y-84804250D03*
D16*
X185034250Y-84804250D03*
X197961250Y-82264250D03*
%TD*%
D14*
%TO.C,MX2*%
X167989250Y-87344250D03*
D15*
X173069250Y-87344250D03*
D14*
X178149250Y-87344250D03*
D13*
X169259250Y-84804250D03*
X175609250Y-82264250D03*
D16*
X165984250Y-84804250D03*
X178911250Y-82264250D03*
%TD*%
D15*
%TO.C,MX3*%
X154019250Y-87344250D03*
D13*
X156559250Y-82264250D03*
D14*
X159099250Y-87344250D03*
D13*
X150209250Y-84804250D03*
D14*
X148939250Y-87344250D03*
D16*
X146934250Y-84804250D03*
X159861250Y-82264250D03*
%TD*%
D13*
%TO.C,MX5*%
X188309250Y-103854250D03*
D14*
X197199250Y-106394250D03*
D13*
X194659250Y-101314250D03*
D15*
X192119250Y-106394250D03*
D14*
X187039250Y-106394250D03*
D16*
X185034250Y-103854250D03*
X197961250Y-101314250D03*
%TD*%
D13*
%TO.C,MX6*%
X175609250Y-101314250D03*
X169259250Y-103854250D03*
D15*
X173069250Y-106394250D03*
D14*
X167989250Y-106394250D03*
X178149250Y-106394250D03*
D16*
X165984250Y-103854250D03*
X178911250Y-101314250D03*
%TD*%
D14*
%TO.C,MX7*%
X148939250Y-106394250D03*
X159099250Y-106394250D03*
D15*
X154019250Y-106394250D03*
D13*
X156559250Y-101314250D03*
X150209250Y-103854250D03*
D16*
X146934250Y-103854250D03*
X159861250Y-101314250D03*
%TD*%
D15*
%TO.C,MX8*%
X134969250Y-106394250D03*
D13*
X131159250Y-103854250D03*
X137509250Y-101314250D03*
D14*
X140049250Y-106394250D03*
X129889250Y-106394250D03*
D16*
X127884250Y-103854250D03*
X140811250Y-101314250D03*
%TD*%
D11*
%TO.C,D1*%
X200850500Y-91948000D03*
D12*
X200850500Y-84328000D03*
%TD*%
D13*
%TO.C,MX4*%
X137509250Y-82264250D03*
X131159250Y-84804250D03*
D14*
X140049250Y-87344250D03*
X129889250Y-87344250D03*
D15*
X134969250Y-87344250D03*
D16*
X127884250Y-84804250D03*
X140811250Y-82264250D03*
%TD*%
D17*
%TO.C,RGB1*%
X127943610Y-95269050D03*
X127943610Y-98469450D03*
X122944890Y-98469450D03*
X122944890Y-95269050D03*
%TD*%
%TO.C,RGB3*%
X166043610Y-95269050D03*
X166043610Y-98469450D03*
X161044890Y-98469450D03*
X161044890Y-95269050D03*
%TD*%
%TO.C,RGB2*%
X146993610Y-95269050D03*
X146993610Y-98469450D03*
X141994890Y-98469450D03*
X141994890Y-95269050D03*
%TD*%
%TO.C,RGB4*%
X185093610Y-95269050D03*
X185093610Y-98469450D03*
X180094890Y-98469450D03*
X180094890Y-95269050D03*
%TD*%
D18*
%TO.C,U1*%
X118776750Y-84486750D03*
D19*
X118776750Y-87026750D03*
X118776750Y-89566750D03*
X118776750Y-92106750D03*
X118776750Y-94646750D03*
X118776750Y-97186750D03*
X118776750Y-99726750D03*
X118776750Y-102266750D03*
X118776750Y-104806750D03*
X118776750Y-107346750D03*
X118776750Y-109886750D03*
X118776750Y-112426750D03*
X103536750Y-112426750D03*
X103536750Y-109886750D03*
X103536750Y-107346750D03*
X103536750Y-104806750D03*
X103536750Y-102266750D03*
X103536750Y-99726750D03*
X103536750Y-97186750D03*
X103536750Y-94646750D03*
X103536750Y-92106750D03*
X103536750Y-89566750D03*
X103536750Y-87026750D03*
X103536750Y-84486750D03*
%TD*%
D20*
%TO.C,SW1*%
X107616750Y-111651250D03*
D21*
X111116750Y-115351250D03*
D20*
X114626750Y-111651250D03*
D14*
X108616750Y-114141250D03*
X113616750Y-114141250D03*
%TD*%
M02*
