%TF.GenerationSoftware,KiCad,Pcbnew,(6.0.0)*%
%TF.CreationDate,2022-03-13T18:47:54+01:00*%
%TF.ProjectId,TurtlePad,54757274-6c65-4506-9164-2e6b69636164,rev?*%
%TF.SameCoordinates,Original*%
%TF.FileFunction,Paste,Bot*%
%TF.FilePolarity,Positive*%
%FSLAX46Y46*%
G04 Gerber Fmt 4.6, Leading zero omitted, Abs format (unit mm)*
G04 Created by KiCad (PCBNEW (6.0.0)) date 2022-03-13 18:47:54*
%MOMM*%
%LPD*%
G01*
G04 APERTURE LIST*
%TA.AperFunction,Profile*%
%ADD10C,0.250000*%
%TD*%
%ADD11R,1.501140X0.899160*%
G04 APERTURE END LIST*
D10*
X98598750Y-79243439D02*
G75*
G03*
X93598750Y-84243439I0J-5000000D01*
G01*
X208598750Y-79243439D02*
X98598750Y-79243439D01*
X98598750Y-121243439D02*
X208598750Y-121243439D01*
X208598750Y-121243439D02*
G75*
G03*
X213598750Y-116243439I0J5000000D01*
G01*
X213598750Y-84243439D02*
G75*
G03*
X208598750Y-79243439I-5000000J0D01*
G01*
X100848750Y-116743439D02*
G75*
G03*
X100848750Y-116743439I-2750000J0D01*
G01*
X211848750Y-83743439D02*
G75*
G03*
X211848750Y-83743439I-2750000J0D01*
G01*
X211848750Y-116743439D02*
G75*
G03*
X211848750Y-116743439I-2750000J0D01*
G01*
X93598750Y-116243439D02*
G75*
G03*
X98598750Y-121243439I5000000J0D01*
G01*
X93598750Y-84243439D02*
X93598750Y-116243439D01*
X100848750Y-83743439D02*
G75*
G03*
X100848750Y-83743439I-2750000J0D01*
G01*
X213598750Y-116243439D02*
X213598750Y-84243439D01*
D11*
%TO.C,RGB4*%
X191027171Y-98638239D03*
X191027171Y-101838639D03*
X186028451Y-101838639D03*
X186028451Y-98638239D03*
%TD*%
%TO.C,RGB3*%
X166978451Y-98638239D03*
X166978451Y-101838639D03*
X171977171Y-101838639D03*
X171977171Y-98638239D03*
%TD*%
%TO.C,RGB2*%
X140227171Y-98638239D03*
X140227171Y-101838639D03*
X135228451Y-101838639D03*
X135228451Y-98638239D03*
%TD*%
%TO.C,RGB1*%
X121177171Y-98638239D03*
X121177171Y-101838639D03*
X116178451Y-101838639D03*
X116178451Y-98638239D03*
%TD*%
M02*
